<svg width="2184" height="1920" viewBox="0 0 2184 1920" fill="none" xmlns="http://www.w3.org/2000/svg">
<g clip-path="url(#clip0_22_401)">
<path d="M0 0C720.72 0 1441.44 0 2184 0C2184 633.6 2184 1267.2 2184 1920C1463.28 1920 742.56 1920 0 1920C0 1286.4 0 652.8 0 0Z" fill="#C2E1D4"/>
<path d="M1016.62 272.688C1017.88 272.689 1019.13 272.691 1020.42 272.693C1040.76 272.743 1060.81 273.429 1081 276C1082.29 276.161 1083.59 276.322 1084.92 276.488C1115 280.373 1145.41 286.787 1174 297C1175.02 297.357 1176.05 297.713 1177.1 298.08C1217.21 312.089 1255.02 331.453 1289 357C1289.61 357.461 1290.23 357.921 1290.86 358.395C1294.61 361.22 1298.31 364.093 1302 367C1302.92 367.725 1303.84 368.449 1304.79 369.195C1311.06 374.233 1316.98 379.585 1322.86 385.078C1325.65 387.689 1328.5 390.224 1331.38 392.75C1334.93 395.935 1338.08 399.256 1341.16 402.902C1343.34 405.381 1345.65 407.682 1348 410C1352.21 414.177 1356.19 418.455 1360 423C1360.69 423.808 1361.37 424.617 1362.08 425.449C1368.17 432.74 1373.44 440.213 1379 448C1379.33 428.53 1379.66 409.06 1380 389C1418.61 389 1457.22 389 1497 389C1497.01 399.198 1497.02 409.396 1497.02 419.902C1497.03 426.821 1497.04 433.74 1497.04 440.659C1497.04 442.007 1497.04 442.007 1497.04 443.383C1497.09 502.906 1497.14 562.428 1497.2 621.951C1497.2 623.1 1497.2 624.25 1497.2 625.434C1497.23 650.414 1497.25 675.395 1497.28 700.375C1497.29 712.625 1497.31 724.876 1497.32 737.126C1497.32 738.345 1497.32 739.564 1497.32 740.82C1497.36 780.328 1497.39 819.835 1497.42 859.342C1497.46 899.944 1497.49 940.545 1497.54 981.147C1497.55 986.883 1497.55 992.619 1497.56 998.355C1497.56 1000.05 1497.56 1000.05 1497.56 1001.78C1497.58 1019.94 1497.59 1038.11 1497.61 1056.27C1497.62 1074.54 1497.63 1092.8 1497.66 1111.07C1497.67 1121.92 1497.68 1132.77 1497.68 1143.62C1497.69 1150.87 1497.69 1158.13 1497.71 1165.38C1497.72 1169.51 1497.72 1173.64 1497.72 1177.77C1497.6 1200.46 1497.6 1200.46 1500 1223C1500.18 1224.14 1500.36 1225.27 1500.55 1226.44C1506.59 1262.76 1520.64 1296.04 1546 1323C1546.81 1323.9 1546.81 1323.9 1547.63 1324.82C1565.11 1343.62 1591.05 1353.19 1616.27 1354.29C1629.37 1354.61 1642.11 1353.25 1655 1351C1655.76 1350.87 1656.52 1350.74 1657.31 1350.61C1677.02 1347.16 1696.61 1339.88 1714 1330C1714.65 1329.63 1715.3 1329.27 1715.98 1328.89C1726.72 1322.76 1735.95 1315.41 1745 1307C1745.84 1306.23 1746.68 1305.46 1747.55 1304.66C1763.34 1289.57 1774.83 1270.09 1785.66 1251.31C1787.61 1247.96 1789.59 1244.63 1791.56 1241.3C1803.94 1220.46 1815.94 1199.4 1827.95 1178.35C1830.37 1174.11 1832.79 1169.87 1835.21 1165.64C1843.75 1150.74 1843.75 1150.74 1852.12 1135.75C1856.42 1127.95 1860.91 1120.26 1865.41 1112.58C1869.95 1104.83 1874.43 1097.05 1878.88 1089.25C1879.21 1088.67 1879.54 1088.09 1879.88 1087.49C1882.26 1083.32 1884.63 1079.16 1887 1075C1889.71 1070.25 1892.41 1065.5 1895.12 1060.75C1895.62 1059.88 1895.62 1059.88 1896.13 1058.98C1900.72 1050.94 1905.37 1042.93 1910.06 1034.94C1915.66 1025.4 1921.05 1015.75 1926.39 1006.07C1931.07 997.612 1935.9 989.252 1940.8 980.918C1944.96 973.829 1949 966.682 1953 959.5C1958.16 950.226 1963.45 941.034 1968.82 931.879C1972.78 925.122 1976.66 918.327 1980.5 911.5C1984.87 903.73 1989.31 896.005 1993.81 888.313C1998.91 879.614 2003.94 870.882 2008.94 862.125C2009.6 860.956 2010.27 859.788 2010.94 858.619C2013.67 853.839 2016.4 849.059 2019.12 844.276C2020.85 841.237 2022.58 838.202 2024.32 835.168C2025.29 833.475 2026.25 831.78 2027.22 830.085C2027.8 829.065 2028.39 828.046 2028.99 826.996C2029.5 826.101 2030.01 825.206 2030.54 824.283C2031.87 822.211 2033.18 820.646 2035 819C2035.74 819.437 2036.48 819.873 2037.25 820.323C2040.79 822.404 2044.33 824.484 2047.88 826.563C2048.52 826.944 2049.17 827.325 2049.84 827.718C2059.16 833.186 2068.51 838.613 2077.88 844C2085.8 848.557 2093.68 853.162 2101.5 857.891C2112.89 864.776 2124.42 871.432 2136 878C2135.4 882.166 2134 885.14 2131.89 888.77C2131.25 889.893 2130.6 891.017 2129.94 892.174C2129.23 893.387 2128.52 894.6 2127.81 895.813C2127.08 897.075 2126.35 898.337 2125.63 899.599C2123.43 903.405 2121.21 907.203 2119 911C2118.38 912.07 2117.76 913.139 2117.11 914.241C2114.25 919.156 2111.39 924.068 2108.52 928.977C2100.28 943.076 2092.09 957.207 2084.13 971.462C2081.21 976.672 2078.18 981.818 2075.14 986.959C2071.3 993.467 2067.52 1000.01 2063.75 1006.56C2058.86 1015.06 2053.95 1023.54 2049 1032C2043.5 1041.41 2038.05 1050.84 2032.61 1060.29C2028.99 1066.57 2025.34 1072.84 2021.68 1079.09C2014.45 1091.43 2007.43 1103.88 2000.47 1116.38C1995.78 1124.76 1990.97 1133.06 1986.12 1141.35C1985.52 1142.37 1984.93 1143.39 1984.31 1144.44C1983.41 1145.98 1983.41 1145.98 1982.49 1147.55C1978.35 1154.64 1974.28 1161.78 1970.25 1168.94C1966.21 1176.11 1962.13 1183.24 1957.94 1190.32C1948.45 1206.37 1939.23 1222.58 1929.99 1238.77C1923.32 1250.46 1916.6 1262.12 1909.86 1273.77C1907.98 1277.04 1906.1 1280.3 1904.22 1283.56C1898 1294.36 1891.76 1305.16 1885.5 1315.94C1884.95 1316.89 1884.4 1317.84 1883.83 1318.82C1878.35 1328.24 1872.55 1337.42 1866.25 1346.31C1865.74 1347.03 1865.23 1347.76 1864.7 1348.5C1857.22 1358.97 1849.33 1368.9 1840.51 1378.28C1838.74 1380.2 1837.07 1382.11 1835.42 1384.13C1833.42 1386.51 1831.5 1388.46 1829.12 1390.44C1826.57 1392.61 1824.18 1394.81 1821.88 1397.25C1816.44 1402.76 1810.15 1407.32 1804 1412C1803.41 1412.45 1802.82 1412.91 1802.22 1413.38C1769.51 1438.59 1730.31 1455.54 1690 1464C1689.12 1464.19 1688.24 1464.37 1687.34 1464.56C1681.57 1465.77 1675.79 1466.9 1670 1468C1668.88 1468.22 1667.76 1468.43 1666.61 1468.66C1653.24 1471.09 1639.67 1471.18 1626.12 1471.13C1625 1471.12 1625 1471.12 1623.86 1471.12C1605.74 1471.06 1588.76 1469.82 1571 1466C1569.91 1465.77 1568.82 1465.55 1567.7 1465.32C1535.59 1458.01 1506.39 1441.91 1481.3 1420.91C1479.05 1418.99 1479.05 1418.99 1476.7 1417.37C1476.14 1416.92 1475.58 1416.47 1475 1416C1475 1415.34 1475 1414.68 1475 1414C1474.41 1413.73 1473.82 1413.46 1473.21 1413.19C1469.52 1411.21 1466.86 1408.2 1463.94 1405.25C1463.27 1404.58 1462.61 1403.91 1461.92 1403.22C1456.2 1397.38 1451.14 1391.2 1446.25 1384.65C1445.06 1383.08 1443.83 1381.54 1442.59 1380.01C1416.33 1347.17 1397.17 1306.07 1388.44 1264.96C1387.71 1261.72 1386.8 1258.52 1385.94 1255.31C1380.91 1235.73 1379.9 1215.08 1378 1195C1377.32 1196 1376.64 1197.01 1375.95 1198.04C1369.91 1206.93 1363.7 1215.59 1357 1224C1356.49 1224.65 1355.97 1225.29 1355.44 1225.95C1349.47 1233.43 1343.43 1240.8 1336.96 1247.86C1335.17 1249.81 1333.42 1251.8 1331.69 1253.81C1327.14 1259.03 1322.43 1264.08 1317.72 1269.15C1315.92 1271.08 1314.13 1273.03 1312.35 1274.97C1305.48 1282.42 1298.45 1289.53 1290.93 1296.32C1288.27 1298.75 1285.72 1301.24 1283.19 1303.81C1279.29 1307.76 1275.21 1311.39 1271 1315C1269.85 1316 1268.7 1317 1267.55 1318.01C1238.93 1342.98 1208.62 1366.45 1175.92 1385.85C1173.15 1387.51 1170.42 1389.23 1167.69 1390.94C1121.05 1419.6 1071.2 1441.83 1018 1455C1016.56 1455.36 1016.56 1455.36 1015.1 1455.73C994.851 1460.78 974.566 1465 953.854 1467.63C951.947 1467.88 950.041 1468.14 948.138 1468.42C911.328 1473.77 871.805 1473.27 835 1468C833.8 1467.83 832.6 1467.66 831.363 1467.48C786.282 1460.78 742.451 1447.9 701 1429C700.119 1428.6 699.238 1428.2 698.33 1427.79C659.502 1410.17 623.597 1386.4 591 1359C589.471 1357.75 589.471 1357.75 587.91 1356.47C578.961 1349.03 570.722 1340.91 562.5 1332.69C561.65 1331.84 561.65 1331.84 560.784 1330.97C554.64 1324.83 548.615 1318.64 543 1312C542.016 1310.87 541.03 1309.74 540.043 1308.61C533.91 1301.54 528.002 1294.36 522.394 1286.86C521.404 1285.54 520.411 1284.22 519.415 1282.9C480.087 1230.85 450.455 1170.95 433.782 1107.86C433.23 1105.84 432.652 1103.83 432.056 1101.83C429.273 1092.47 427.28 1083.07 425.438 1073.5C424.999 1071.25 424.559 1069 424.118 1066.75C423.83 1065.28 423.542 1063.81 423.256 1062.33C422.356 1057.73 421.391 1053.14 420.387 1048.56C419.16 1042.9 418.164 1037.24 417.375 1031.5C417.186 1030.15 417.186 1030.15 416.992 1028.77C416.165 1022.69 415.604 1016.64 415.25 1010.51C414.761 1003.65 413.851 996.825 413 990C412.573 990.749 412.146 991.498 411.706 992.269C403.605 1006.47 395.491 1020.66 387.281 1034.79C385.977 1037.04 384.676 1039.29 383.375 1041.54C379.515 1048.22 375.652 1054.89 371.758 1061.55C365.448 1072.33 359.187 1083.14 353 1094C347.467 1103.71 341.881 1113.39 336.236 1123.03C331.167 1131.7 326.15 1140.39 321.148 1149.1C317.499 1155.44 313.79 1161.74 310 1168C306.878 1166.8 303.914 1165.5 300.98 1163.89C300.218 1163.47 299.456 1163.06 298.67 1162.63C297.441 1161.94 297.441 1161.94 296.188 1161.25C295.318 1160.77 294.449 1160.29 293.553 1159.8C285.604 1155.39 277.764 1150.8 269.927 1146.19C263.67 1142.53 257.371 1138.96 251 1135.5C236.107 1127.4 221.519 1118.75 207 1110C213.188 1098.42 219.922 1087.17 226.641 1075.89C234.355 1062.92 241.951 1049.9 249.414 1036.79C254.527 1027.81 259.724 1018.89 265 1010C272.522 997.324 279.975 984.613 287.329 971.839C295.562 957.542 303.804 943.249 312.331 929.126C322.645 911.995 332.637 894.666 342.607 877.335C347.14 869.465 351.741 861.638 356.373 853.826C362.862 842.873 369.214 831.843 375.562 820.809C382.011 809.608 388.495 798.432 395.092 787.318C399.222 780.348 403.276 773.337 407.312 766.313C413.13 756.193 419.051 746.138 425.019 736.107C429.574 728.439 434.058 720.734 438.5 713C443.598 704.125 448.767 695.296 454 686.5C463.468 670.575 472.714 654.527 481.887 638.43C502.902 601.554 524.151 564.86 549.633 530.827C551.104 528.861 552.566 526.888 554.027 524.914C562.556 513.428 571.569 502.425 580.91 491.594C582.911 489.272 584.898 486.94 586.871 484.594C597.659 471.801 609.197 459.732 621 447.875C621.682 447.189 622.363 446.503 623.065 445.796C626.933 441.94 630.91 438.278 635.044 434.711C638.216 431.936 641.254 429.023 644.312 426.125C649.478 421.268 654.733 416.621 660.277 412.195C662.752 410.2 665.17 408.149 667.577 406.073C674.811 399.85 682.349 394.104 690.034 388.451C691.867 387.098 693.689 385.732 695.508 384.36C721.438 364.904 749.307 348.037 778 333C778.936 332.51 779.872 332.019 780.836 331.513C801.899 320.556 823.606 311.204 845.875 303C847.08 302.555 848.285 302.111 849.526 301.652C857.593 298.733 865.732 296.28 874 294C876.313 293.336 878.626 292.669 880.938 292C883.291 291.333 885.646 290.666 888 290C889.582 289.54 889.582 289.54 891.195 289.07C910.643 283.611 930.513 280.02 950.5 277.25C951.582 277.099 951.582 277.099 952.686 276.945C957.784 276.239 962.888 275.602 968 275C968.78 274.906 969.56 274.812 970.363 274.714C985.782 272.892 1001.11 272.641 1016.62 272.688ZM947 393C946.271 393.14 945.541 393.281 944.79 393.425C939.169 394.513 933.58 395.718 928 397C927.154 397.194 926.309 397.388 925.438 397.588C898.707 403.853 872.785 413.237 848 425C846.509 425.705 846.509 425.705 844.988 426.425C820.756 437.987 798.096 451.784 776 467C775.281 467.495 774.561 467.99 773.82 468.501C761.375 477.119 749.604 486.535 738.105 496.367C735.156 498.884 732.145 501.319 729.125 503.75C725.451 506.738 722.044 509.822 718.766 513.235C717.079 514.921 715.336 516.457 713.516 517.996C708.438 522.41 703.699 527.151 698.954 531.915C697.44 533.435 695.921 534.949 694.4 536.463C689.586 541.274 684.879 546.134 680.451 551.308C678.45 553.642 676.347 555.877 674.25 558.125C669.503 563.331 665.152 568.773 660.844 574.344C658.956 576.785 657.041 579.199 655.094 581.594C643.549 595.794 632.955 610.648 623 626C622.548 626.691 622.097 627.382 621.631 628.093C609.967 645.98 599.291 664.575 590.045 683.831C588.829 686.355 587.592 688.869 586.355 691.383C580.683 702.995 575.468 714.686 570.857 726.76C570.069 728.819 569.266 730.871 568.457 732.922C556.496 763.583 547.916 795.811 542.481 828.247C542.035 830.799 541.528 833.328 540.996 835.863C539.696 842.261 538.854 848.718 538 855.188C537.913 855.843 537.826 856.498 537.737 857.173C536.123 869.422 534.846 881.674 534 894C533.942 894.805 533.884 895.61 533.825 896.439C529.991 951.937 534.125 1008.88 547 1063C547.2 1063.85 547.4 1064.69 547.606 1065.56C548.681 1070.06 549.817 1074.53 551 1079C551.364 1080.41 551.364 1080.41 551.734 1081.84C552.456 1084.57 553.218 1087.29 554 1090C554.3 1091.05 554.601 1092.1 554.91 1093.18C556.199 1097.48 557.577 1101.74 559 1106C559.34 1107.02 559.679 1108.04 560.029 1109.09C575.769 1155.64 600.053 1198.87 631 1237C631.44 1237.55 631.879 1238.09 632.333 1238.65C656.505 1268.44 686.86 1293.26 719.819 1312.7C721.346 1313.61 722.866 1314.53 724.38 1315.46C752.926 1332.94 785.038 1343.02 817.625 1349.75C818.516 1349.94 819.406 1350.12 820.324 1350.32C840.069 1354.18 859.665 1355.52 879.75 1355.38C880.886 1355.37 882.021 1355.37 883.192 1355.36C900.305 1355.29 917.072 1354.7 934 1352C935.163 1351.82 936.326 1351.65 937.525 1351.46C979.533 1345 1023.11 1333.64 1061.46 1314.73C1065 1313 1068.57 1311.41 1072.18 1309.82C1103.22 1296.14 1132.11 1278.21 1160 1259C1161.14 1258.22 1161.14 1258.22 1162.3 1257.42C1180.2 1245.04 1197.48 1231.2 1213.41 1216.38C1215.47 1214.48 1217.56 1212.65 1219.68 1210.82C1223.84 1207.19 1227.78 1203.38 1231.68 1199.48C1232.38 1198.79 1233.08 1198.09 1233.8 1197.37C1235.27 1195.91 1236.74 1194.44 1238.21 1192.98C1240.42 1190.76 1242.65 1188.56 1244.87 1186.36C1252.38 1178.87 1259.43 1171.34 1266 1163C1267.61 1161.16 1269.26 1159.4 1270.94 1157.63C1276.36 1151.71 1281.23 1145.45 1286 1139C1286.5 1138.32 1287.01 1137.64 1287.53 1136.94C1306.35 1111.48 1322.99 1084.4 1337 1056C1337.63 1054.73 1337.63 1054.73 1338.27 1053.43C1344.2 1041.3 1349.1 1028.82 1353.81 1016.19C1354.09 1015.46 1354.36 1014.73 1354.64 1013.98C1358.58 1003.45 1361.95 992.825 1365 982C1365.26 981.11 1365.51 980.22 1365.78 979.302C1377.59 937.946 1380.39 895.49 1380.32 852.713C1380.31 849.658 1380.32 846.603 1380.34 843.549C1380.49 816.77 1379.21 790.235 1374.75 763.777C1374.08 759.737 1373.59 755.684 1373.11 751.617C1371.99 742.423 1370.47 733.309 1368.88 724.188C1368.65 722.903 1368.65 722.903 1368.42 721.592C1366.22 709.03 1363.73 696.555 1360.88 684.125C1360.72 683.434 1360.56 682.743 1360.4 682.032C1356.56 665.323 1351.86 648.889 1346.44 632.625C1346.18 631.857 1345.93 631.088 1345.66 630.296C1338.6 609.184 1330.07 588.793 1319.27 569.299C1317.91 566.838 1316.58 564.364 1315.25 561.887C1303.78 540.602 1290.28 520.739 1275 502C1274.56 501.465 1274.13 500.929 1273.68 500.378C1263.36 487.799 1252.47 475.476 1240 465C1239.44 464.524 1238.87 464.048 1238.29 463.557C1195.37 427.463 1144 403.768 1089 393C1088.02 392.8 1088.02 392.8 1087.02 392.595C1041.74 383.481 992.216 384.045 947 393Z" fill="#FDFDFD"/>
<path d="M1298 430C1301.29 431.427 1303.35 433.157 1305.79 435.773C1306.48 436.516 1307.18 437.258 1307.89 438.023C1308.61 438.799 1309.32 439.575 1310.06 440.375C1310.78 441.143 1311.5 441.912 1312.24 442.703C1315.34 446.031 1318.32 449.319 1321 453C1325.15 452.328 1325.15 452.328 1329.27 451.484C1342.12 449.208 1353.89 451.298 1364.75 458.562C1370.37 462.932 1374.34 467.924 1378 474C1378.46 474.745 1378.91 475.49 1379.38 476.258C1384.2 485.894 1383.43 499.518 1380.44 509.625C1378.56 514.51 1375.82 518.124 1372.2 521.867C1370.66 524.017 1370.66 524.017 1371.74 526.728C1373.03 530.072 1374.47 533.268 1376.04 536.492C1376.32 537.083 1376.61 537.674 1376.9 538.283C1377.81 540.148 1378.72 542.012 1379.62 543.875C1380.24 545.148 1380.86 546.422 1381.48 547.695C1382.98 550.799 1384.49 553.9 1386 557C1383.38 559.77 1380.94 561.135 1377.44 562.688C1376.47 563.124 1375.5 563.561 1374.5 564.012C1372 565 1372 565 1370 565C1369.59 564.157 1369.18 563.314 1368.76 562.446C1367.24 559.324 1365.72 556.206 1364.18 553.092C1363.52 551.743 1362.86 550.391 1362.21 549.038C1361.27 547.095 1360.31 545.158 1359.36 543.223C1358.78 542.055 1358.21 540.887 1357.63 539.684C1356.22 536.715 1356.22 536.715 1353 536C1351.3 536.464 1351.3 536.464 1349.56 536.938C1338.53 539.857 1327.45 537.924 1317.43 532.645C1306.6 525.791 1299.12 516.489 1296 504C1295.59 500.674 1295.52 497.411 1295.56 494.062C1295.57 493.183 1295.58 492.303 1295.59 491.397C1295.86 481.067 1298.78 474.68 1305.8 467.105C1306.2 466.411 1306.59 465.716 1307 465C1305.84 460.898 1303.88 458.524 1300.87 455.574C1300.06 454.778 1299.26 453.982 1298.43 453.162C1297.58 452.345 1296.74 451.529 1295.88 450.688C1295.03 449.852 1294.18 449.016 1293.3 448.154C1291.21 446.096 1289.11 444.045 1287 442C1287.94 440.893 1288.88 439.788 1289.82 438.684C1290.61 437.76 1290.61 437.76 1291.41 436.818C1293.5 434.428 1295.72 432.213 1298 430Z" fill="#B698BF"/>
<path d="M2089.33 855.598C2098.55 863.055 2103.98 874.522 2105.38 886.196C2105.89 900.108 2101.01 911.596 2091.75 921.75C2087.69 925.604 2083.14 927.88 2078 930C2077.23 930.321 2076.46 930.642 2075.66 930.973C2066.53 934.235 2056.43 933.793 2047 932C2046.68 932.601 2046.36 933.202 2046.04 933.82C2044.6 936.531 2043.14 939.235 2041.69 941.938C2041.19 942.883 2040.69 943.829 2040.17 944.803C2039.44 946.152 2039.44 946.152 2038.7 947.528C2038.03 948.777 2038.03 948.777 2037.35 950.051C2036 952 2036 952 2033 953C2030.34 951.856 2030.34 951.856 2027.37 950.188C2025.9 949.374 2025.9 949.374 2024.4 948.543C2022 947 2022 947 2021 945C2021.93 942.909 2021.93 942.909 2023.38 940.352C2023.89 939.429 2024.4 938.506 2024.92 937.555C2026.01 935.606 2027.11 933.661 2028.22 931.719C2028.72 930.793 2029.23 929.868 2029.75 928.914C2030.23 928.068 2030.71 927.222 2031.2 926.35C2032.26 924.023 2032.26 924.023 2031.22 921.803C2029.96 919.935 2028.62 918.185 2027.19 916.438C2019.25 906.034 2016.94 894.89 2018 882C2020.52 871.03 2027.12 860.907 2036 854C2054.24 843.208 2071.69 843.512 2089.33 855.598Z" fill="#B697BE"/>
<path d="M1275 207C1274.68 207.502 1274.36 208.004 1274.03 208.522C1267.41 218.871 1260.96 229.257 1255 240C1255.62 240.11 1256.23 240.221 1256.87 240.334C1262.8 241.451 1268.43 242.925 1274.12 244.937C1274.97 245.236 1275.82 245.535 1276.69 245.842C1305.39 256.284 1343.72 273.252 1364 297C1364 300.811 1363.8 303.051 1361.31 306C1358.06 307.405 1356.42 306.92 1353 306C1350.54 304.342 1348.3 302.675 1346 300.812C1318.06 279.085 1286.75 264.232 1253 254C1253.18 254.979 1253.36 255.957 1253.55 256.966C1254.23 260.603 1254.9 264.241 1255.56 267.879C1255.85 269.453 1256.14 271.026 1256.44 272.599C1256.86 274.862 1257.27 277.126 1257.69 279.391C1257.82 280.092 1257.95 280.793 1258.09 281.515C1258.68 284.764 1259 287.68 1259 291C1255.4 289.644 1252.14 288.039 1248.81 286.121C1247.29 285.247 1247.29 285.247 1245.74 284.355C1244.65 283.722 1243.56 283.089 1242.44 282.437C1241.3 281.777 1240.16 281.117 1238.98 280.436C1226.95 273.452 1215.08 266.206 1203.21 258.955C1198.55 256.116 1193.87 253.305 1189.19 250.5C1188.38 250.018 1187.58 249.537 1186.75 249.041C1183.15 246.882 1179.54 244.728 1175.93 242.582C1167.5 237.564 1159.22 232.356 1151 227C1154.17 225.211 1157.03 224.492 1160.61 223.89C1161.75 223.696 1162.89 223.501 1164.06 223.301C1165.3 223.096 1166.54 222.891 1167.82 222.68C1169.12 222.46 1170.42 222.24 1171.76 222.013C1175.29 221.416 1178.83 220.827 1182.36 220.24C1184.56 219.875 1186.76 219.509 1188.95 219.141C1199.3 217.409 1209.65 215.699 1220 214C1220.68 213.888 1221.36 213.776 1222.06 213.661C1230.04 212.351 1238.02 211.054 1246 209.78C1248.2 209.427 1250.41 209.073 1252.61 208.716C1255.65 208.224 1258.69 207.743 1261.74 207.266C1262.63 207.12 1263.52 206.975 1264.43 206.825C1265.65 206.638 1265.65 206.638 1266.9 206.446C1267.6 206.335 1268.3 206.224 1269.02 206.109C1271.21 205.988 1272.91 206.367 1275 207Z" fill="#2A2627"/>
<path d="M606 943C610.29 943.33 614.58 943.66 619 944C620.09 947.271 619.936 949.031 619.578 952.426C617.781 971.735 618.991 990.884 622 1010C622.249 1011.59 622.249 1011.59 622.504 1013.2C626.419 1040.28 626.419 1040.28 637 1065C644.192 1057.24 651.031 1049.28 657.602 1040.98C658.693 1039.62 659.839 1038.3 661 1037C661.66 1037 662.32 1037 663 1037C663.146 1038.93 663.146 1038.93 663.295 1040.9C664.835 1060.86 666.677 1080.79 668.514 1100.73C668.976 1105.74 669.435 1110.76 669.892 1115.77C670.248 1119.67 670.607 1123.57 670.966 1127.46C671.136 1129.32 671.305 1131.17 671.474 1133.02C671.708 1135.59 671.946 1138.16 672.184 1140.73C672.252 1141.48 672.32 1142.23 672.39 1143.01C672.767 1147.04 673.313 1151.01 674 1155C674.062 1156.62 674.087 1158.25 674.062 1159.88C674.053 1160.66 674.044 1161.44 674.035 1162.24C674.024 1162.82 674.012 1163.4 674 1164C669.276 1160.24 665.182 1156.14 661.125 1151.69C655.164 1145.15 649.174 1138.71 642.448 1132.95C637.595 1128.71 633.046 1124.19 628.496 1119.63C627.614 1118.75 626.732 1117.87 625.823 1116.96C623.498 1114.63 621.175 1112.31 618.853 1109.98C617.439 1108.56 616.023 1107.15 614.606 1105.74C611.858 1102.99 609.114 1100.25 606.371 1097.5C605.535 1096.67 604.7 1095.84 603.839 1094.98C599.023 1090.14 594.423 1085.19 590 1080C588.02 1077.69 586.04 1075.38 584 1073C596.87 1073 609.74 1073 623 1073C619.895 1062.57 619.895 1062.57 616.778 1052.15C612.573 1038.02 609.061 1023.84 606.812 1009.25C606.648 1008.24 606.484 1007.24 606.314 1006.2C604.445 994.346 603.806 982.554 603.812 970.562C603.812 969.389 603.811 968.216 603.811 967.007C603.861 958.785 604.477 951.093 606 943Z" fill="#2C2828"/>
<path d="M310 1033C316.75 1034.12 316.75 1034.12 320.375 1036.56C321.063 1037.02 321.752 1037.47 322.461 1037.94C322.969 1038.29 323.477 1038.64 324 1039C323.337 1044.55 320.474 1048.83 317.707 1053.56C315.574 1057.1 315.574 1057.1 315.262 1061.09C316.178 1063.46 317.708 1064.67 319.531 1066.39C328.251 1075.94 329.671 1086.89 329.367 1099.26C328.676 1111.64 321.838 1119.72 313.027 1127.81C303.637 1135.53 291.84 1137.8 280 1137C268.342 1134.85 257.704 1128.48 250.812 1118.81C244.003 1107.77 242.416 1096.8 244 1084C247.082 1071.88 254.63 1062.74 265 1056C276.526 1049.82 287.327 1050.19 300 1052C303.3 1045.73 306.6 1039.46 310 1033Z" fill="#CA3E32"/>
<path d="M1167 1139C1165.59 1143.64 1163.68 1147.85 1161.44 1152.14C1161.09 1152.81 1160.74 1153.48 1160.39 1154.17C1159.26 1156.35 1158.13 1158.52 1157 1160.69C1156.22 1162.2 1155.43 1163.71 1154.65 1165.22C1150.38 1173.46 1146.08 1181.68 1141.74 1189.89C1138.32 1196.36 1134.96 1202.86 1131.6 1209.36C1130.63 1211.23 1129.66 1213.11 1128.69 1214.98C1125.6 1220.95 1122.52 1226.94 1119.48 1232.94C1118.93 1234.01 1118.38 1235.07 1117.82 1236.17C1116.8 1238.18 1115.78 1240.19 1114.77 1242.21C1114.09 1243.54 1114.09 1243.54 1113.39 1244.89C1113 1245.66 1112.61 1246.44 1112.2 1247.24C1111 1249 1111 1249 1108 1250C1107.78 1249.26 1107.56 1248.52 1107.33 1247.76C1106.31 1244.36 1105.28 1240.96 1104.25 1237.56C1103.9 1236.4 1103.55 1235.23 1103.2 1234.03C1101.2 1227.47 1099 1221.18 1096 1215C1091.15 1216.59 1087.55 1219.38 1083.5 1222.38C1056.22 1242.07 1013.86 1266 979 1266C977.548 1261.46 976.765 1257.82 977 1253C981.193 1251.77 985.399 1250.63 989.633 1249.55C1009.76 1244.38 1028.69 1237.87 1047 1228C1047.65 1227.65 1048.31 1227.31 1048.98 1226.95C1060.49 1220.82 1071.73 1213.96 1081.83 1205.68C1084 1204 1084 1204 1086 1204C1083.52 1201.13 1080.94 1199.9 1077.48 1198.41C1076.4 1197.93 1075.31 1197.46 1074.19 1196.97C1073.06 1196.49 1071.92 1196 1070.75 1195.5C1069.63 1195.01 1068.51 1194.53 1067.36 1194.03C1064.24 1192.68 1061.12 1191.34 1058 1190C1057.22 1189.67 1056.44 1189.33 1055.64 1188.99C1054.1 1188.32 1052.55 1187.66 1051 1187C1054.53 1184 1058.5 1182.38 1062.74 1180.66C1063.52 1180.33 1064.3 1180.01 1065.1 1179.68C1067.69 1178.62 1070.28 1177.56 1072.88 1176.5C1074.7 1175.75 1076.52 1175 1078.35 1174.25C1082.22 1172.66 1086.09 1171.07 1089.96 1169.48C1096.03 1166.99 1102.09 1164.48 1108.14 1161.97C1111.16 1160.72 1114.18 1159.47 1117.19 1158.22C1119.11 1157.42 1121.03 1156.63 1122.94 1155.83C1133.51 1151.44 1144.1 1147.13 1154.74 1142.94C1155.74 1142.54 1156.73 1142.15 1157.76 1141.74C1158.68 1141.38 1159.6 1141.02 1160.54 1140.65C1161.76 1140.17 1161.76 1140.17 1163.01 1139.68C1165 1139 1165 1139 1167 1139Z" fill="#2C2728"/>
<path d="M1462 415C1471.97 421.837 1477.23 430.683 1481 442C1481.96 452.314 1481.94 462.696 1477 472C1476.6 472.785 1476.2 473.57 1475.79 474.379C1470.26 483.839 1460.41 490.046 1450 493C1449.01 493 1448.02 493 1447 493C1447 495.97 1447 498.94 1447 502C1441.39 502 1435.78 502 1430 502C1430 499.03 1430 496.06 1430 493C1429.13 493.051 1428.26 493.103 1427.36 493.156C1417.9 492.717 1409.22 485.706 1403 479C1395.7 470.392 1393.21 458.131 1393.62 447.098C1395.13 434.819 1402.39 423.624 1412 416C1428.81 405.906 1445.24 404.875 1462 415Z" fill="#B597BE"/>
<path d="M2031 1216C2030.62 1227.18 2029.7 1238.16 2028.23 1249.25C2027.13 1257.65 2026.28 1266.06 2025.5 1274.5C2024.63 1283.82 2023.66 1293.1 2022.44 1302.38C2020.83 1314.55 2019.87 1326.76 2019 1339C2015.32 1337.77 2014.5 1336.41 2012.12 1333.38C2008.21 1328.48 2004.22 1323.68 2000.12 1318.94C1999.57 1318.28 1999.01 1317.63 1998.43 1316.95C1997.63 1316.03 1997.63 1316.03 1996.82 1315.09C1996.35 1314.54 1995.88 1313.99 1995.39 1313.43C1993.86 1311.75 1993.86 1311.75 1991 1310C1990.77 1310.64 1990.53 1311.27 1990.29 1311.93C1975.64 1346.87 1951.69 1378.9 1928.23 1408.44C1925.46 1411.94 1922.73 1415.47 1920 1419C1916.61 1418.41 1914.79 1417.23 1912.25 1414.94C1911.64 1414.39 1911.02 1413.84 1910.39 1413.28C1909.93 1412.86 1909.47 1412.43 1909 1412C1909.58 1408.3 1911.09 1406.5 1913.63 1403.8C1917.65 1399.42 1921.32 1394.89 1924.88 1390.12C1925.82 1388.86 1925.82 1388.86 1926.79 1387.57C1946.35 1361.08 1963.25 1332.87 1979 1304C1970.22 1302.67 1961.47 1301.59 1952.62 1300.88C1951.59 1300.79 1950.56 1300.7 1949.49 1300.61C1947 1300.41 1944.5 1300.2 1942 1300C1945.73 1295.48 1949.57 1291.4 1953.94 1287.5C1957.28 1284.49 1960.6 1281.47 1963.75 1278.25C1966 1275.96 1968.31 1273.83 1970.75 1271.75C1974.16 1268.82 1977.34 1265.7 1980.5 1262.5C1983.55 1259.41 1986.62 1256.38 1989.94 1253.56C1993.48 1250.55 1996.73 1247.31 2000 1244C2003.82 1240.13 2007.71 1236.45 2011.86 1232.92C2015.31 1229.82 2018.55 1226.49 2021.79 1223.17C2028.84 1216 2028.84 1216 2031 1216Z" fill="#2B2728"/>
<path d="M1555.57 409.77C1557.05 409.791 1557.05 409.791 1558.56 409.812C1560.05 409.822 1560.05 409.822 1561.57 409.832C1564 410 1564 410 1565 411C1565.1 413.952 1565.13 416.881 1565.11 419.834C1565.11 420.761 1565.11 421.688 1565.11 422.643C1565.11 425.721 1565.11 428.8 1565.1 431.879C1565.1 434.007 1565.09 436.136 1565.09 438.264C1565.09 443.879 1565.08 449.493 1565.07 455.107C1565.06 460.831 1565.05 466.555 1565.05 472.279C1565.04 483.52 1565.02 494.76 1565 506C1566.62 505.356 1566.62 505.356 1568.27 504.699C1572.27 503.113 1576.27 501.537 1580.27 499.964C1582 499.281 1583.74 498.595 1585.47 497.906C1587.95 496.918 1590.44 495.941 1592.93 494.965C1593.71 494.653 1594.48 494.342 1595.28 494.021C1597.17 493.289 1599.08 492.636 1601 492C1601.66 492.33 1602.32 492.66 1603 493C1602.57 494.096 1602.14 495.191 1601.69 496.32C1597.8 506.233 1594.08 516.192 1590.52 526.228C1583.86 544.978 1577.01 563.656 1570.13 582.324C1566.37 592.532 1562.62 602.743 1559 613C1558.34 613 1557.68 613 1557 613C1556.58 611.8 1556.17 610.6 1555.74 609.363C1551.72 597.791 1547.56 586.279 1543.29 574.797C1541.45 569.861 1539.63 564.923 1537.8 559.984C1537.42 558.949 1537.03 557.914 1536.64 556.847C1532.32 545.159 1528.01 533.463 1523.72 521.761C1522.87 519.423 1522.01 517.086 1521.15 514.749C1519.95 511.485 1518.75 508.219 1517.56 504.953C1517.2 503.972 1516.84 502.991 1516.46 501.98C1516.14 501.086 1515.81 500.192 1515.47 499.271C1515.19 498.49 1514.9 497.709 1514.61 496.905C1514 495 1514 495 1514 493C1522.21 495.3 1530.15 498.195 1538.12 501.188C1539.38 501.656 1540.64 502.124 1541.89 502.592C1544.93 503.725 1547.96 504.861 1551 506C1551 504.827 1550.99 503.654 1550.99 502.445C1550.95 491.408 1550.92 480.372 1550.9 469.335C1550.89 463.661 1550.87 457.986 1550.85 452.312C1550.83 446.84 1550.82 441.367 1550.81 435.895C1550.81 433.803 1550.8 431.712 1550.79 429.62C1550.77 426.698 1550.77 423.777 1550.77 420.856C1550.77 419.984 1550.76 419.112 1550.75 418.214C1550.78 410.199 1550.78 410.199 1555.57 409.77Z" fill="#2A2527"/>
<path d="M298 754C296.771 763.744 294.983 773.251 292.888 782.837C289.61 797.864 286.643 812.934 283.875 828.062C280.818 844.762 277.554 861.398 274 878C270.944 875.022 268.619 872.098 266.312 868.5C258.913 857.147 258.913 857.147 250 847C249.361 848.098 249.361 848.098 248.709 849.218C239.688 864.702 230.558 880.11 221.228 895.411C214.424 906.571 207.71 917.784 201 929C199.369 928.434 197.745 927.847 196.125 927.25C195.22 926.925 194.315 926.6 193.383 926.266C191 925 191 925 189.513 923.182C189 921 189 921 189.959 918.568C190.522 917.669 191.084 916.77 191.664 915.844C192.597 914.325 192.597 914.325 193.548 912.775C194.234 911.694 194.919 910.613 195.625 909.5C196.673 907.804 197.721 906.107 198.768 904.41C199.829 902.694 200.897 900.982 201.967 899.271C204.826 894.672 207.602 890.026 210.375 885.375C211.352 883.744 212.33 882.114 213.309 880.484C213.766 879.722 214.223 878.959 214.695 878.174C215.89 876.183 217.087 874.193 218.285 872.203C224.922 861.174 231.462 850.088 238 839C225.376 836.667 212.717 834.747 200 833C200 832.34 200 831.68 200 831C201.964 829.315 203.938 827.745 206 826.188C207.289 825.195 208.576 824.202 209.863 823.207C210.541 822.684 211.218 822.162 211.916 821.624C215.381 818.924 218.784 816.151 222.187 813.375C222.867 812.822 223.546 812.268 224.246 811.698C228.001 808.637 231.751 805.569 235.5 802.5C237.333 801 239.166 799.5 241 798C241.598 797.51 242.196 797.021 242.811 796.516C249.621 790.942 256.434 785.391 263.437 780.062C268.642 776.096 273.709 771.985 278.75 767.812C288.425 759.81 288.425 759.81 292.437 756.625C293.096 756.102 293.755 755.578 294.434 755.039C296 754 296 754 298 754Z" fill="#2B2727"/>
<path d="M147 956C151.62 956 156.24 956 161 956C161 999.89 161 1043.78 161 1089C155.06 1089 149.12 1089 143 1089C143 1057.32 143 1025.64 143 993C132.44 993 121.88 993 111 993C111 988.71 111 984.42 111 980C114.125 979.629 114.125 979.629 117.312 979.25C126.481 977.924 135.565 976.063 142 969C144.336 964.795 145.834 960.663 147 956Z" fill="#292525"/>
<path d="M308.688 1056.69C317.987 1062.02 324.564 1071.17 328.148 1081.22C329.159 1085.71 329.331 1089.85 329.312 1094.44C329.329 1095.25 329.345 1096.05 329.361 1096.88C329.366 1102.58 328.272 1106.78 326 1112C324.938 1108.81 324.928 1106.68 325.008 1103.34C325.025 1102.21 325.041 1101.09 325.059 1099.93C325.102 1097.58 325.154 1095.24 325.215 1092.89C325.303 1085.88 324.649 1080.51 322 1074C321.34 1074 320.68 1074 320 1074C319.732 1073.42 319.464 1072.85 319.188 1072.25C317.971 1069.94 316.612 1068.05 315 1066C314.464 1065.2 313.928 1064.39 313.375 1063.56C306.427 1056.07 297.306 1054.26 287.445 1053.85C284.283 1053.82 281.156 1053.79 278 1054C277.67 1054.33 277.34 1054.66 277 1055C274.329 1055.14 271.676 1055.04 269 1055C281.054 1046.96 296.63 1050.68 308.688 1056.69Z" fill="#B04C43"/>
<path d="M248 1110C249.519 1111.93 250.858 1113.66 251.812 1115.94C253.578 1119 256.277 1120.78 259 1123C259.42 1123.67 259.84 1124.33 260.273 1125.02C262.71 1127.82 265.146 1128.27 268.688 1129.25C270.457 1129.75 270.457 1129.75 272.262 1130.27C273.165 1130.51 274.069 1130.75 275 1131C275 1131.66 275 1132.32 275 1133C283.664 1133.19 291.567 1133.25 300 1131C301.32 1131 302.64 1131 304 1131C304 1130.34 304 1129.68 304 1129C305.65 1129.33 307.3 1129.66 309 1130C301.876 1135.98 291.922 1137.68 282.844 1137.32C271.977 1136.1 261.509 1131.01 254 1123C251.114 1119.2 248.514 1115.54 247 1111C247.33 1110.67 247.66 1110.34 248 1110Z" fill="#AD554C"/>
<path d="M269 1055C269 1055.66 269 1056.32 269 1057C268.41 1057.25 267.819 1057.51 267.211 1057.77C264.74 1059.14 263.421 1060.58 261.625 1062.75C258.561 1066.36 255.47 1069.77 252 1073C251.34 1073 250.68 1073 250 1073C249.814 1074.33 249.814 1074.33 249.625 1075.69C249 1079 249 1079 247.973 1081.32C246.841 1084.44 246.772 1086.86 246.805 1090.18C246.811 1091.33 246.818 1092.49 246.824 1093.68C246.841 1094.88 246.858 1096.08 246.875 1097.31C246.884 1098.53 246.893 1099.75 246.902 1101C246.926 1104 246.959 1107 247 1110C242.17 1102.76 243.187 1092.38 244 1084C247.112 1071.51 254.813 1063.35 265 1056C267 1055 267 1055 269 1055Z" fill="#AD473E"/>
<path d="M284.812 1048.81C285.976 1048.81 285.976 1048.81 287.162 1048.81C292.859 1048.86 292.859 1048.86 294 1050C296.328 1050.37 298.662 1050.7 301 1051C300.67 1051.66 300.34 1052.32 300 1053C298.992 1052.84 297.984 1052.69 296.945 1052.52C283.312 1050.71 273.153 1052.79 261 1059C261 1058.01 261 1057.02 261 1056C262.371 1055.2 263.747 1054.41 265.125 1053.62C265.891 1053.18 266.656 1052.74 267.445 1052.29C273.359 1049.31 278.311 1048.71 284.812 1048.81Z" fill="#FCE2DD"/>
<path d="M247 1072C247.66 1072 248.32 1072 249 1072C247.667 1076 246.333 1080 245 1084C244.918 1085.77 244.893 1087.55 244.902 1089.32C244.906 1090.35 244.909 1091.38 244.912 1092.44C244.921 1093.51 244.929 1094.58 244.938 1095.69C244.942 1096.77 244.947 1097.85 244.951 1098.97C244.963 1101.65 244.979 1104.32 245 1107C240.639 1100.46 240.336 1094.71 241 1087C241.748 1083.87 242.783 1080.97 244 1078C244.33 1077.01 244.66 1076.02 245 1075C245.66 1075 246.32 1075 247 1075C247 1074.01 247 1073.02 247 1072Z" fill="#F9DCD8"/>
<path d="M325 1075C325.99 1075 326.98 1075 328 1075C328.133 1075.64 328.266 1076.28 328.402 1076.93C328.579 1077.76 328.756 1078.59 328.938 1079.44C329.112 1080.26 329.286 1081.08 329.465 1081.93C329.808 1083.98 329.808 1083.98 331 1085C331.307 1088.43 331.278 1091.87 331.312 1095.31C331.342 1096.28 331.371 1097.24 331.4 1098.23C331.465 1105.39 331.465 1105.39 328.98 1108.67C328.327 1109.11 327.673 1109.55 327 1110C327.16 1109.2 327.32 1108.4 327.484 1107.58C329.02 1096.92 329.325 1085.01 325 1075Z" fill="#FFF3EF"/>
<path d="M323 1112C323.66 1112.66 324.32 1113.32 325 1114C315.095 1127.97 315.095 1127.97 309 1130C310.173 1126.66 311.189 1124.23 314 1122C314.66 1122 315.32 1122 316 1122C316.268 1121.4 316.536 1120.8 316.812 1120.19C317.999 1118 319.096 1116.59 321 1115C321.66 1115 322.32 1115 323 1115C323 1114.01 323 1113.02 323 1112Z" fill="#AA473C"/>
<path d="M327 1081C329.511 1085.44 329.332 1089.26 329.312 1094.25C329.329 1095.07 329.345 1095.89 329.361 1096.74C329.366 1102.49 328.301 1106.73 326 1112C324.793 1108.38 325.361 1106.77 326 1103C326.268 1099.21 326.413 1095.42 326.562 1091.62C326.606 1090.6 326.649 1089.58 326.693 1088.53C326.799 1086.02 326.901 1083.51 327 1081Z" fill="#AA574D"/>
<path d="M1414 415C1414.66 415.33 1415.32 415.66 1416 416C1411 421 1406 426 1401 431C1401.43 426.126 1403.47 424.072 1406.94 420.75C1407.83 419.879 1408.73 419.007 1409.65 418.109C1412 416 1412 416 1414 415Z" fill="#AD95B3"/>
<path d="M252 1120C252.639 1120.7 253.279 1121.4 253.938 1122.12C259.062 1127.25 265.454 1130.98 272 1134C272 1134.33 272 1134.66 272 1135C267.309 1135.5 265.145 1134.1 261.438 1131.31C260.043 1130.29 260.043 1130.29 258.621 1129.24C256.008 1127.01 253.978 1124.81 252 1122C252 1121.34 252 1120.68 252 1120Z" fill="#F8DBD7"/>
<path d="M304 1129C306.475 1129.5 306.475 1129.5 309 1130C305.673 1133.33 302.499 1133.48 298.023 1133.79C295.933 1133.89 295.933 1133.89 294 1135C291.667 1135.04 289.333 1135.04 287 1135C289.805 1133.48 292.386 1132.55 295.5 1131.88C296.253 1131.71 297.006 1131.54 297.781 1131.37C300 1131 300 1131 304 1131C304 1130.34 304 1129.68 304 1129Z" fill="#BE4E40"/>
<path d="M253 1066C253.33 1066.99 253.66 1067.98 254 1069C253.034 1070.36 252.027 1071.69 251 1073C250.21 1074.89 249.482 1076.81 248.812 1078.75C248.296 1080.23 248.296 1080.23 247.77 1081.73C247.516 1082.48 247.262 1083.23 247 1084C246.34 1083.67 245.68 1083.34 245 1083C246.806 1076.66 249.256 1071.43 253 1066Z" fill="#AC544B"/>
<path d="M329 1088C329.33 1088 329.66 1088 330 1088C330.276 1090.92 330.522 1093.83 330.75 1096.75C330.831 1097.57 330.912 1098.4 330.996 1099.25C331.444 1105.42 331.444 1105.42 329.016 1108.58C328.018 1109.28 328.018 1109.28 327 1110C327.153 1109.18 327.307 1108.37 327.465 1107.52C328.068 1103.55 328.342 1099.63 328.562 1095.62C328.606 1094.89 328.649 1094.15 328.693 1093.39C328.798 1091.6 328.9 1089.8 329 1088Z" fill="#FAD9D3"/>
<path d="M269 1055C269 1055.66 269 1056.32 269 1057C266.883 1058.4 266.883 1058.4 264.125 1059.94C260.739 1061.82 259.185 1062.72 257 1066C256.01 1065.67 255.02 1065.34 254 1065C265.041 1055 265.041 1055 269 1055Z" fill="#A9524A"/>
<path d="M1979 1266C1977.41 1270.14 1974.4 1273.23 1971 1276C1970.34 1276 1969.68 1276 1969 1276C1970.5 1272.1 1974.46 1266 1979 1266Z" fill="#1F2321"/>
<path d="M1555 603C1556.32 603.99 1557.64 604.98 1559 606C1559.66 606.33 1560.32 606.66 1561 607C1560.34 608.98 1559.68 610.96 1559 613C1558.34 613 1557.68 613 1557 613C1556.34 609.7 1555.68 606.4 1555 603Z" fill="#232D2A"/>
<path d="M606 1095C610.274 1096.58 612.265 1099.51 615 1103C612 1103 612 1103 610.395 1101.76C609.872 1101.22 609.35 1100.68 608.812 1100.12C608.283 1099.59 607.753 1099.06 607.207 1098.51C606 1097 606 1097 606 1095Z" fill="#313833"/>
<path d="M274 1053C267.565 1055.97 267.565 1055.97 261 1059C261 1058.01 261 1057.02 261 1056C265.21 1052.87 268.933 1051.31 274 1053Z" fill="#FBD7D2"/>
<path d="M1305 520C1309.18 523.509 1313.2 527.081 1317 531C1311.81 529.583 1308.34 526.079 1305 522C1305 521.34 1305 520.68 1305 520Z" fill="#AD96B3"/>
<path d="M1514 493C1515.98 493.66 1517.96 494.32 1520 495C1519.34 496.32 1518.68 497.64 1518 499C1517.01 498.67 1516.02 498.34 1515 498C1514.67 496.35 1514.34 494.7 1514 493Z" fill="#1B211C"/>
<path d="M1984 1259C1984.66 1259.66 1985.32 1260.32 1986 1261C1982.54 1263.97 1982.54 1263.97 1979 1267C1979 1264 1979 1264 1981.5 1261.31C1982.32 1260.55 1983.15 1259.79 1984 1259Z" fill="#363A37"/>
<path d="M2026 1219C2026.33 1219.99 2026.66 1220.98 2027 1222C2024.03 1224.47 2024.03 1224.47 2021 1227C2020.34 1226.67 2019.68 1226.34 2019 1226C2021.31 1223.69 2023.62 1221.38 2026 1219Z" fill="#323935"/>
<path d="M274 868C274.33 868 274.66 868 275 868C274.67 871.3 274.34 874.6 274 878C273.01 877.01 272.02 876.02 271 875C271.99 872.69 272.98 870.38 274 868Z" fill="#16221B"/>
<path d="M229 810C228.375 811.875 228.375 811.875 227 814C223.875 815.25 223.875 815.25 221 816C225.615 810 225.615 810 229 810Z" fill="#1F2523"/>
<path d="M325 1075C325.99 1075 326.98 1075 328 1075C329.607 1078.21 329.057 1081.44 329 1085C327.263 1081.77 326.109 1078.49 325 1075Z" fill="#FDE2DD"/>
<path d="M265 864C265.66 864 266.32 864 267 864C269.188 866.812 269.188 866.812 271 870C270.67 870.99 270.34 871.98 270 873C269.161 871.879 268.329 870.753 267.5 869.625C267.036 868.999 266.572 868.372 266.094 867.727C265 866 265 866 265 864Z" fill="#1C231E"/>
<path d="M1336 292C1338.47 292.495 1338.47 292.495 1341 293C1341 293.66 1341 294.32 1341 295C1342.32 295.66 1343.64 296.32 1345 297C1344.01 297.33 1343.02 297.66 1342 298C1338.81 295.625 1338.81 295.625 1336 293C1336 292.67 1336 292.34 1336 292Z" fill="#1A201C"/>
<path d="M1275 207C1274.67 207.66 1274.34 208.32 1274 209C1271.03 208.67 1268.06 208.34 1265 208C1265 207.67 1265 207.34 1265 207C1268.66 206.251 1271.42 205.762 1275 207Z" fill="#35413D"/>
<path d="M2017 1331C2017.33 1331 2017.66 1331 2018 1331C2018 1333.64 2018 1336.28 2018 1339C2016.68 1337.68 2015.36 1336.36 2014 1335C2015 1333 2015 1333 2017 1331Z" fill="#1A231C"/>
<path d="M1950 1291C1950.66 1291.33 1951.32 1291.66 1952 1292C1950.35 1293.98 1948.7 1295.96 1947 1298C1946.34 1297.34 1945.68 1296.68 1945 1296C1946.65 1294.35 1948.3 1292.7 1950 1291Z" fill="#353A38"/>
<path d="M304 1129C305.65 1129.33 307.3 1129.66 309 1130C305.375 1133 305.375 1133 302 1133C302 1132.34 302 1131.68 302 1131C302.66 1131 303.32 1131 304 1131C304 1130.34 304 1129.68 304 1129Z" fill="#B25C50"/>
<path d="M1591 493C1592.65 493 1594.3 493 1596 493C1596 493.66 1596 494.32 1596 495C1593.03 495.66 1590.06 496.32 1587 497C1588.32 496.34 1589.64 495.68 1591 495C1591 494.34 1591 493.68 1591 493Z" fill="#CEDED7"/>
</g>
<defs>
<clipPath id="clip0_22_401">
<rect width="2184" height="1920" fill="white"/>
</clipPath>
</defs>
</svg>
