<svg width="2184" height="1920" viewBox="0 0 2184 1920" fill="none" xmlns="http://www.w3.org/2000/svg">
<g clip-path="url(#clip0_22_277)">
<path d="M2183.5 0.5V1919.5H0.5V0.5H2183.5Z" stroke="black"/>
<path d="M486 729C487.091 729.563 487.091 729.563 488.203 730.137C496.259 734.237 504.411 738.137 513 741C511.744 747.838 510.102 754.462 508.125 761.125C505.527 770.037 503.18 778.977 501 788C500.668 789.334 500.336 790.667 500 792C497.874 791.524 495.749 791.044 493.625 790.562C492.442 790.296 491.258 790.029 490.039 789.754C487 789 487 789 485 788C484.817 782.902 485.401 778.666 486.75 773.754C486.928 773.098 487.105 772.442 487.288 771.766C487.85 769.696 488.425 767.629 489 765.562C489.386 764.149 489.772 762.736 490.156 761.322C491.095 757.879 492.044 754.439 493 751C491.071 752.929 489.879 755.527 488.508 757.863C487.796 759.072 487.083 760.281 486.371 761.49C485.249 763.399 484.128 765.308 483.007 767.218C481.926 769.059 480.842 770.899 479.758 772.738C479.11 773.842 478.461 774.946 477.793 776.083C476.302 778.508 474.758 780.765 473 783C468.028 781.236 463.566 778.606 459 776C460.273 771.798 461.851 768.258 464.125 764.508C464.745 763.48 465.365 762.452 466.004 761.392C466.662 760.314 467.321 759.236 468 758.125C468.67 757.019 469.339 755.913 470.03 754.774C475.274 746.133 480.592 737.539 486 729Z" fill="#2F282A"/>
<path d="M1427 675C1427.66 678.3 1428.32 681.6 1429 685C1429.33 684.67 1429.66 684.34 1430 684C1435.61 684 1441.22 684 1447 684C1447 700.17 1447 716.34 1447 733C1441.39 733 1435.78 733 1430 733C1430 732.01 1430 731.02 1430 730C1425.05 730.495 1425.05 730.495 1420 731C1419.8 729.866 1419.6 728.731 1419.39 727.563C1418.63 723.319 1417.88 719.075 1417.12 714.832C1416.79 713.002 1416.47 711.172 1416.14 709.342C1415.67 706.697 1415.2 704.054 1414.73 701.41C1414.58 700.604 1414.44 699.797 1414.29 698.966C1413.45 694.256 1412.49 689.594 1411.39 684.937C1410.92 682.596 1410.85 680.38 1411 678C1412.92 677.494 1414.83 676.996 1416.75 676.5C1418.35 676.082 1418.35 676.082 1419.98 675.656C1423 675 1423 675 1427 675Z" fill="#2D2729"/>
<path d="M1426 917C1432.93 917 1439.86 917 1447 917C1447 933.5 1447 950 1447 967C1424 967 1424 967 1419 966C1419.6 955.459 1421.33 945.148 1423.06 934.75C1423.35 933.022 1423.63 931.294 1423.92 929.566C1424.6 925.377 1425.3 921.188 1426 917Z" fill="#2E2728"/>
<path d="M528 659C530.322 660.066 532.631 661.152 534.938 662.25C535.597 662.55 536.256 662.851 536.936 663.16C541.764 665.488 541.764 665.488 542.826 667.793C543.061 670.779 542.192 672.513 540.938 675.227C540.474 676.251 540.01 677.275 539.531 678.33C539.026 679.417 538.521 680.505 538 681.625C534.077 690.234 530.345 698.823 527.283 707.78C525.501 712.698 525.501 712.698 523.137 714.125C515.119 713.656 507.5 706.326 502 701C504.111 695.261 507.341 690.3 510.547 685.119C511.607 683.405 512.657 681.685 513.707 679.965C518.171 672.72 522.887 665.8 528 659Z" fill="#2C2728"/>
<path d="M1447 762C1447 778.5 1447 795 1447 812C1441.06 812 1435.12 812 1429 812C1428.8 809.468 1428.59 806.937 1428.38 804.328C1428.18 801.836 1427.98 799.343 1427.77 796.851C1427.63 795.139 1427.5 793.426 1427.36 791.713C1426.58 782.141 1425.8 772.57 1425 763C1432.42 762.081 1439.46 762 1447 762Z" fill="#2E2829"/>
<path d="M477 820C482.508 820.59 487.649 821.567 493 823C490.924 841.083 488.018 859.053 485 877C479.39 876.34 473.78 875.68 468 875C471.778 835.666 471.778 835.666 477 820Z" fill="#2C2727"/>
<path d="M1400 590C1405.14 602.532 1410.16 615.086 1414.62 627.875C1414.97 628.848 1415.31 629.822 1415.66 630.824C1415.97 631.725 1416.28 632.626 1416.6 633.555C1417.01 634.738 1417.01 634.738 1417.42 635.945C1418 638 1418 638 1418 641C1415.73 641.866 1413.46 642.718 1411.19 643.562C1410.22 643.933 1410.22 643.933 1409.24 644.311C1404.34 646.113 1404.34 646.113 1401 645C1399.85 642.299 1398.9 639.691 1398 636.906C1397.73 636.086 1397.45 635.265 1397.17 634.419C1396.29 631.783 1395.43 629.142 1394.56 626.5C1393.7 623.887 1392.83 621.276 1391.96 618.666C1391.42 617.042 1390.89 615.416 1390.36 613.788C1388.78 609.012 1386.93 604.48 1384.76 599.94C1384 598 1384 598 1384 595C1385.91 594.158 1387.83 593.327 1389.75 592.5C1390.82 592.036 1391.88 591.572 1392.98 591.094C1396 590 1396 590 1400 590Z" fill="#2B2527"/>
<path d="M499 1080C499.156 1080.55 499.311 1081.1 499.471 1081.67C502.12 1091.06 504.771 1100.44 507.688 1109.75C507.993 1110.72 507.993 1110.72 508.304 1111.72C509.415 1115.23 510.591 1118.71 511.812 1122.19C512.851 1125.52 513.112 1127.6 513 1131C510.877 1131.84 508.751 1132.67 506.625 1133.5C505.442 1133.96 504.258 1134.43 503.039 1134.91C500 1136 500 1136 498 1136C482 1094.16 482 1094.16 482 1083C483.517 1082.49 485.039 1081.99 486.562 1081.5C487.409 1081.22 488.256 1080.94 489.129 1080.66C492.485 1079.89 495.569 1079.9 499 1080Z" fill="#302B2B"/>
<path d="M355 956C356.965 956.902 358.922 957.822 360.875 958.75C362.511 959.516 362.511 959.516 364.18 960.297C367.18 962.109 368.065 962.689 369 966C367.917 968.755 367.917 968.755 366.047 971.918C365.716 972.489 365.384 973.059 365.043 973.647C363.96 975.503 362.856 977.345 361.75 979.188C361.006 980.453 360.264 981.719 359.523 982.985C357.698 986.099 355.856 989.202 354.009 992.303C352.561 994.738 351.132 997.183 349.703 999.629C347.483 1003.43 345.248 1007.22 343 1011C338.938 1010.42 336.152 1009.11 332.688 1006.94C331.804 1006.39 330.921 1005.84 330.012 1005.28C329.348 1004.86 328.684 1004.43 328 1004C330.027 998.723 332.664 993.889 335.375 988.938C336.162 987.498 336.162 987.498 336.964 986.029C351.65 959.35 351.65 959.35 355 956Z" fill="#2D2727"/>
<path d="M314 1026C315.965 1026.9 317.922 1027.82 319.875 1028.75C321.511 1029.52 321.511 1029.52 323.18 1030.3C326.18 1032.11 327.065 1032.69 328 1036C326.917 1038.75 326.917 1038.75 325.047 1041.92C324.716 1042.49 324.384 1043.06 324.043 1043.65C322.96 1045.5 321.856 1047.35 320.75 1049.19C320.006 1050.45 319.264 1051.72 318.523 1052.99C316.698 1056.1 314.856 1059.2 313.009 1062.3C311.561 1064.74 310.132 1067.18 308.703 1069.63C306.483 1073.43 304.248 1077.22 302 1081C297.938 1080.42 295.152 1079.11 291.688 1076.94C290.804 1076.39 289.921 1075.84 289.012 1075.28C288.348 1074.86 287.684 1074.43 287 1074C289.027 1068.72 291.664 1063.89 294.375 1058.94C295.162 1057.5 295.162 1057.5 295.964 1056.03C310.65 1029.35 310.65 1029.35 314 1026Z" fill="#2D2727"/>
<path d="M297 1055C298.965 1055.9 300.922 1056.82 302.875 1057.75C304.511 1058.52 304.511 1058.52 306.18 1059.3C309.18 1061.11 310.065 1061.69 311 1065C309.917 1067.75 309.917 1067.75 308.047 1070.92C307.716 1071.49 307.384 1072.06 307.043 1072.65C305.96 1074.5 304.856 1076.35 303.75 1078.19C303.006 1079.45 302.264 1080.72 301.523 1081.99C299.698 1085.1 297.856 1088.2 296.009 1091.3C294.561 1093.74 293.132 1096.18 291.703 1098.63C289.483 1102.43 287.248 1106.22 285 1110C280.938 1109.42 278.152 1108.11 274.688 1105.94C273.804 1105.39 272.921 1104.84 272.012 1104.28C271.348 1103.86 270.684 1103.43 270 1103C272.027 1097.72 274.664 1092.89 277.375 1087.94C278.162 1086.5 278.162 1086.5 278.964 1085.03C293.65 1058.35 293.65 1058.35 297 1055Z" fill="#2D2727"/>
<path d="M399 881C404.31 882.46 408.463 884.983 413 888C411.569 891.807 409.823 895.283 407.84 898.832C406.902 900.515 406.902 900.515 405.946 902.231C405.276 903.425 404.607 904.619 403.938 905.812C403.258 907.029 402.579 908.245 401.9 909.462C399.938 912.977 397.969 916.489 396 920C395.215 921.399 395.215 921.399 394.415 922.827C391.95 927.222 389.479 931.613 387 936C383.344 935.312 380.481 933.746 377.25 931.938C376.265 931.39 375.28 930.842 374.266 930.277C373.518 929.856 372.77 929.434 372 929C372.594 924.893 373.946 921.962 376.027 918.387C376.65 917.31 377.274 916.234 377.916 915.125C378.583 913.99 379.25 912.856 379.938 911.688C380.62 910.518 381.301 909.348 381.983 908.178C396.262 883.738 396.262 883.738 399 881Z" fill="#2D2828"/>
<path d="M484 995C484.105 995.855 484.211 996.711 484.32 997.592C484.812 1001.56 485.31 1005.53 485.813 1009.5C485.902 1010.21 485.992 1010.92 486.085 1011.65C487.254 1020.84 488.551 1029.95 490.484 1039C491 1042 491 1042 491 1048C485.39 1048.66 479.78 1049.32 474 1050C473.323 1045.86 472.646 1041.72 471.974 1037.58C471.746 1036.18 471.517 1034.78 471.287 1033.38C466.634 1004.98 466.634 1004.98 467 996C468.333 995.827 469.666 995.662 471 995.5C471.743 995.407 472.485 995.314 473.25 995.219C476.845 994.933 480.394 994.969 484 995Z" fill="#2E2828"/>
<path d="M443 804C453.625 809.75 453.625 809.75 457 812C455.749 815.278 454.356 818.307 452.602 821.344C452.128 822.169 451.653 822.993 451.165 823.843C450.657 824.72 450.149 825.597 449.625 826.5C448.549 828.368 447.474 830.237 446.398 832.105C445.843 833.069 445.287 834.032 444.714 835.025C441.879 839.946 439.065 844.88 436.25 849.812C435.234 851.59 434.219 853.367 433.203 855.145C432.777 855.891 432.35 856.637 431.911 857.406C431.61 857.932 431.31 858.458 431 859C425.583 856.989 420.905 854.009 416 851C419.993 842.776 424.298 834.813 428.938 826.938C429.52 825.939 430.102 824.941 430.701 823.912C434.649 817.175 438.764 810.56 443 804Z" fill="#2C2627"/>
<path d="M1341 1143C1342.77 1144.12 1344.54 1145.25 1346.31 1146.38C1347.3 1147 1348.28 1147.63 1349.3 1148.27C1351.21 1149.5 1353.11 1150.74 1355 1152C1353.38 1156.95 1350.51 1160.81 1347.5 1165C1346.97 1165.75 1346.43 1166.5 1345.88 1167.27C1341.08 1173.97 1336.07 1180.49 1331 1187C1328.99 1189.66 1326.99 1192.33 1325 1195C1321.48 1193.44 1318.73 1191.31 1315.75 1188.88C1314.86 1188.15 1313.97 1187.43 1313.05 1186.68C1312.37 1186.13 1311.7 1185.57 1311 1185C1312.6 1181.39 1314.81 1178.53 1317.25 1175.44C1321.72 1169.71 1326.07 1163.91 1330.38 1158.06C1330.97 1157.26 1331.56 1156.45 1332.18 1155.62C1335.23 1151.48 1338.19 1147.31 1341 1143Z" fill="#2E2929"/>
<path d="M528 1163C529.397 1165.12 529.397 1165.12 530.664 1167.93C531.381 1169.48 531.381 1169.48 532.113 1171.07C532.612 1172.18 533.111 1173.29 533.625 1174.44C537.761 1183.4 542.082 1192.12 547.141 1200.6C548.166 1202.36 549.093 1204.18 550 1206C548.693 1209.92 547.213 1210.28 543.625 1212.19C542.648 1212.72 541.671 1213.25 540.664 1213.79C538 1215 538 1215 535 1215C526.317 1199.63 518.273 1184.09 511 1168C512.603 1167.18 514.207 1166.37 515.812 1165.56C516.706 1165.11 517.599 1164.66 518.52 1164.19C524.347 1161.39 524.347 1161.39 528 1163Z" fill="#2F292A"/>
<path d="M566 1236C569.237 1237.2 570.915 1238.81 572.961 1241.54C573.509 1242.25 574.056 1242.97 574.62 1243.71C575.199 1244.49 575.778 1245.26 576.375 1246.06C581.938 1253.39 587.665 1260.53 593.644 1267.52C594.48 1268.51 594.48 1268.51 595.332 1269.52C595.824 1270.1 596.316 1270.68 596.823 1271.27C598.139 1273.2 598.689 1274.69 599 1277C597.742 1278.82 597.742 1278.82 595.875 1280.56C595.274 1281.14 594.674 1281.72 594.055 1282.32C591.824 1284.14 589.504 1285.57 587 1287C579.857 1279.35 573.338 1271.32 567 1263C566.49 1262.33 565.98 1261.66 565.455 1260.97C563.919 1258.95 562.395 1256.91 560.875 1254.88C560.401 1254.25 559.928 1253.62 559.44 1252.97C557.249 1250 555.737 1247.61 555 1244C556.457 1242.85 557.915 1241.71 559.375 1240.56C560.593 1239.61 560.593 1239.61 561.836 1238.63C564 1237 564 1237 566 1236Z" fill="#2C2727"/>
<path d="M1411 995C1412.94 995.283 1414.88 995.576 1416.81 995.875C1417.89 996.037 1418.97 996.2 1420.08 996.367C1423 997 1423 997 1426 999C1426.51 1004.14 1425.55 1008.25 1423.95 1013.11C1423.74 1013.77 1423.53 1014.42 1423.31 1015.1C1422.86 1016.47 1422.41 1017.85 1421.95 1019.22C1421.26 1021.29 1420.58 1023.37 1419.91 1025.44C1413.28 1045.72 1413.28 1045.72 1411 1048C1405.33 1047.61 1401.11 1046.45 1396 1044C1396.59 1037.09 1398.98 1030.93 1401.31 1024.44C1404.25 1016.13 1407.07 1007.86 1409.34 999.344C1410 997 1410 997 1411 995Z" fill="#2E2728"/>
<path d="M1382 1073C1385.85 1073.6 1388.86 1074.77 1392.31 1076.56C1393.2 1077.02 1394.08 1077.47 1394.99 1077.94C1395.65 1078.29 1396.32 1078.64 1397 1079C1394.83 1086.21 1391.84 1092.61 1388.31 1099.25C1387.78 1100.26 1387.25 1101.26 1386.7 1102.3C1375.57 1123.18 1375.57 1123.18 1372.11 1124.99C1369.08 1125.01 1367.38 1123.88 1364.81 1122.31C1363.93 1121.79 1363.05 1121.27 1362.14 1120.74C1360 1119 1360 1119 1359.22 1117.19C1358.92 1114.18 1359.87 1112.83 1361.39 1110.25C1361.93 1109.32 1362.47 1108.39 1363.03 1107.43C1363.62 1106.44 1364.21 1105.46 1364.81 1104.44C1366.01 1102.37 1367.21 1100.31 1368.41 1098.24C1369.01 1097.2 1369.61 1096.16 1370.23 1095.09C1372.87 1090.47 1375.36 1085.78 1377.81 1081.06C1378.45 1079.84 1378.45 1079.84 1379.1 1078.59C1380.07 1076.73 1381.04 1074.86 1382 1073Z" fill="#2E2828"/>
<path d="M1154 342C1161.49 344.065 1168.6 346.732 1175.75 349.75C1177.32 350.407 1177.32 350.407 1178.92 351.078C1186.79 354.406 1194.46 357.99 1202 362C1201.4 365.85 1200.23 368.861 1198.44 372.312C1197.98 373.196 1197.53 374.079 1197.06 374.988C1196.71 375.652 1196.36 376.316 1196 377C1190.04 375.168 1184.36 372.68 1178.62 370.25C1169.83 366.523 1169.83 366.523 1160.9 363.148C1160.16 362.885 1159.42 362.622 1158.65 362.351C1157.29 361.879 1155.93 361.42 1154.56 360.978C1150.31 359.503 1150.31 359.503 1148.94 357.258C1149.03 353.924 1150.18 351.324 1151.44 348.25C1151.91 347.08 1152.38 345.909 1152.87 344.703C1153.24 343.811 1153.62 342.919 1154 342Z" fill="#2D2829"/>
<path d="M1290 1208C1294.69 1210.98 1298.85 1214.31 1303 1218C1301.37 1221.96 1298.64 1224.8 1295.75 1227.88C1295.23 1228.44 1294.7 1229 1294.16 1229.58C1285.52 1238.77 1276.74 1247.96 1267 1256C1262.86 1252.62 1259.19 1249.33 1256 1245C1257.67 1240.64 1260.91 1237.85 1264.18 1234.66C1264.79 1234.06 1265.4 1233.45 1266.03 1232.83C1267.97 1230.9 1269.92 1228.98 1271.88 1227.06C1273.82 1225.15 1275.76 1223.23 1277.7 1221.31C1278.91 1220.11 1280.12 1218.92 1281.33 1217.73C1284.46 1214.64 1287.33 1211.51 1290 1208Z" fill="#302B2B"/>
<path d="M806 376C807.641 378.363 807.641 378.363 809.25 381.313C809.791 382.278 810.333 383.244 810.891 384.238C812.108 387.27 812.219 388.059 811 391C809.276 392.273 809.276 392.273 807.012 393.375C806.169 393.797 805.326 394.22 804.458 394.655C803.544 395.099 802.63 395.543 801.688 396C792.944 400.389 784.54 405.14 776.223 410.291C775.434 410.776 774.645 411.262 773.832 411.762C772.791 412.411 772.791 412.411 771.73 413.073C770 414 770 414 768 414C766.273 411.48 766.273 411.48 764.375 408.188C763.743 407.109 763.112 406.03 762.461 404.918C761 402 761 402 761 399C763.24 397.318 763.24 397.318 766.379 395.488C767.218 394.994 767.218 394.994 768.074 394.489C769.897 393.419 771.729 392.365 773.562 391.313C774.807 390.589 776.051 389.865 777.295 389.141C780.853 387.075 784.425 385.035 788 383C788.892 382.49 789.784 381.98 790.703 381.454C802.406 374.802 802.406 374.802 806 376Z" fill="#2E292A"/>
<path d="M1230 378C1234 378.671 1237.2 380.68 1240.62 382.75C1241.27 383.138 1241.92 383.527 1242.58 383.927C1250.34 388.696 1257.65 394.103 1264.98 399.514C1267.96 401.707 1270.98 403.854 1274 406C1272.65 409.837 1270.92 412.652 1268.38 415.812C1267.43 416.998 1267.43 416.998 1266.46 418.207C1265.98 418.799 1265.5 419.39 1265 420C1262.22 418.687 1259.8 417.222 1257.34 415.383C1256.64 414.864 1255.93 414.345 1255.21 413.81C1254.46 413.254 1253.71 412.698 1252.94 412.125C1245.49 406.652 1237.86 401.625 1229.93 396.872C1229.17 396.406 1228.41 395.941 1227.62 395.461C1226.61 394.855 1226.61 394.855 1225.57 394.236C1224 393 1224 393 1223 390C1224.43 387.082 1224.43 387.082 1226.44 383.812C1227.1 382.726 1227.75 381.639 1228.43 380.52C1228.95 379.688 1229.47 378.857 1230 378Z" fill="#2E292A"/>
<path d="M1233 1264C1236.67 1267.67 1240.33 1271.33 1244 1275C1242.46 1279.01 1239.67 1281.29 1236.44 1283.94C1235.59 1284.64 1235.59 1284.64 1234.73 1285.36C1227.99 1290.92 1221.03 1296.22 1214.04 1301.46C1212.61 1302.54 1211.19 1303.63 1209.78 1304.72C1209.06 1305.27 1208.35 1305.82 1207.61 1306.39C1206.97 1306.89 1206.32 1307.39 1205.66 1307.91C1204 1309 1204 1309 1202 1309C1200.55 1307.1 1199.19 1305.13 1197.88 1303.12C1196.79 1301.49 1196.79 1301.49 1195.68 1299.82C1194 1297 1194 1297 1194 1295C1195.29 1293.8 1195.29 1293.8 1197.12 1292.45C1197.8 1291.94 1198.48 1291.44 1199.18 1290.91C1200.3 1290.09 1200.3 1290.09 1201.44 1289.25C1209.93 1282.89 1218.12 1276.22 1226.27 1269.43C1228.49 1267.59 1230.74 1265.79 1233 1264Z" fill="#2E2A2A"/>
<path d="M671 468C674.311 469.576 676.667 471.312 679.312 473.875C680.031 474.553 680.749 475.231 681.488 475.93C683 478 683 478 682.765 479.939C681.913 482.234 681.012 483.346 679.272 485.053C678.701 485.62 678.13 486.188 677.542 486.772C676.612 487.674 676.612 487.674 675.664 488.594C675.029 489.222 674.394 489.851 673.739 490.498C671.708 492.506 669.667 494.503 667.625 496.5C665.592 498.498 663.561 500.499 661.532 502.502C660.27 503.747 659.005 504.989 657.736 506.228C654.906 509.01 652.252 511.711 650 515C645.896 514.482 644.043 512.354 641.25 509.438C640.451 508.611 639.652 507.785 638.828 506.934C637.923 505.976 637.923 505.976 637 505C638.484 501.513 640.462 499.358 643.188 496.75C646.033 494.019 648.703 491.221 651.273 488.234C655.13 483.783 659.25 479.638 663.438 475.5C664.169 474.773 664.901 474.046 665.654 473.297C667.434 471.529 669.216 469.763 671 468Z" fill="#2C2628"/>
<path d="M1073 325C1081.82 325.605 1090.37 326.787 1099.06 328.375C1100.85 328.688 1100.85 328.688 1102.67 329.008C1109.9 330.31 1116.95 331.925 1124 334C1121.99 345.116 1121.99 345.116 1121 350C1113.46 349.43 1106.2 348.127 1098.81 346.562C1089.55 344.65 1080.39 343.087 1071 342C1071.66 336.39 1072.32 330.78 1073 325Z" fill="#2D2829"/>
<path d="M992 322C1008.5 322 1025 322 1042 322C1042 327.61 1042 333.22 1042 339C1025.5 339 1009 339 992 339C992 333.39 992 327.78 992 322Z" fill="#302B2B"/>
<path d="M465 909C470.28 909 475.56 909 481 909C481 926.49 481 943.98 481 962C475.72 962 470.44 962 465 962C465 944.51 465 927.02 465 909Z" fill="#292325"/>
<path d="M734 417C738.592 421.067 741.217 425.564 744 431C743.224 431.594 742.448 432.189 741.648 432.801C729.621 442.024 717.684 451.343 706 461C701.339 457.423 698.261 453.891 695 449C696.532 444.901 699.43 442.798 702.812 440.25C703.408 439.792 704.004 439.334 704.618 438.862C705.967 437.827 707.318 436.796 708.672 435.769C711.298 433.774 713.913 431.766 716.527 429.758C718.434 428.296 720.342 426.835 722.25 425.375C723.179 424.664 724.108 423.953 725.066 423.22C725.936 422.557 726.806 421.894 727.703 421.211C728.483 420.616 729.264 420.021 730.067 419.408C732 418 732 418 734 417Z" fill="#2D282A"/>
<path d="M882 345C882.672 346.936 883.338 348.874 884 350.813C884.371 351.892 884.743 352.971 885.125 354.082C886 357 886 357 886 360C885.312 360.231 884.624 360.462 883.915 360.699C871.306 364.946 858.8 369.255 846.614 374.611C841.171 377 841.171 377 839 377C837.995 374.877 836.996 372.752 836 370.625C835.443 369.442 834.886 368.258 834.312 367.039C833 364 833 364 833 362C843.183 356.858 853.577 352.466 864.25 348.438C865.428 347.984 866.606 347.53 867.82 347.063C868.936 346.649 870.053 346.235 871.203 345.809C872.698 345.249 872.698 345.249 874.224 344.678C877.233 343.943 879.05 344.154 882 345Z" fill="#2E292A"/>
<path d="M962 326C962.495 333.92 962.495 333.92 963 342C959.705 343.647 955.995 343.755 952.375 344.25C943.088 345.567 933.948 347.379 924.785 349.374C923.813 349.584 922.841 349.795 921.84 350.012C920.977 350.202 920.115 350.392 919.226 350.588C917 351 917 351 914 351C913.489 349.462 912.992 347.919 912.5 346.375C912.222 345.516 911.943 344.658 911.656 343.773C910.944 340.763 910.891 338.083 911 335C920.276 331.879 929.699 329.993 939.312 328.25C940.516 328.027 941.72 327.805 942.96 327.575C949.411 326.437 955.45 325.747 962 326Z" fill="#2B2627"/>
<path d="M1170 1314C1171.76 1316.27 1171.76 1316.27 1173.69 1319.25C1174.33 1320.22 1174.97 1321.2 1175.64 1322.2C1177 1325 1177 1325 1176.78 1327.02C1175.38 1330.57 1171.76 1332.13 1168.63 1334.06C1167.88 1334.53 1167.13 1335.01 1166.36 1335.49C1158.34 1340.51 1150.14 1345.23 1141.91 1349.9C1140.28 1350.84 1138.68 1351.82 1137.08 1352.81C1135 1354 1135 1354 1133 1354C1131.96 1352.09 1130.95 1350.17 1129.94 1348.25C1129.37 1347.18 1128.8 1346.12 1128.21 1345.02C1127 1342 1127 1342 1127.13 1340.01C1128.38 1337.14 1130.07 1336.41 1132.79 1334.9C1133.78 1334.33 1134.78 1333.76 1135.81 1333.18C1136.88 1332.58 1137.96 1331.99 1139.06 1331.38C1141.26 1330.13 1143.45 1328.89 1145.64 1327.64C1146.72 1327.03 1147.8 1326.41 1148.91 1325.78C1153.82 1322.95 1158.6 1319.92 1163.35 1316.85C1167.8 1314 1167.8 1314 1170 1314Z" fill="#2E2929"/>
<path d="M1473 1300C1474.29 1301.7 1474.29 1301.7 1475.41 1303.91C1475.84 1304.73 1476.27 1305.55 1476.71 1306.39C1477.15 1307.27 1477.6 1308.15 1478.06 1309.06C1482.1 1316.75 1486.45 1323.95 1491.56 1330.97C1493.8 1334.09 1495.05 1336.21 1496 1340C1492.37 1342.97 1488.74 1345.94 1485 1349C1480.42 1346.71 1478.56 1344 1475.81 1339.87C1475.33 1339.17 1474.86 1338.46 1474.37 1337.74C1469.47 1330.4 1465.14 1322.78 1461 1315C1460.4 1313.96 1459.8 1312.92 1459.19 1311.85C1458 1309 1458 1309 1458.01 1306.3C1459.34 1303.2 1460.79 1302.55 1463.81 1301.12C1464.69 1300.69 1465.56 1300.26 1466.46 1299.82C1469.3 1298.9 1470.27 1298.91 1473 1300Z" fill="#2F2A2A"/>
<path d="M1430 1150C1435.61 1150 1441.22 1150 1447 1150C1447 1166.17 1447 1182.34 1447 1199C1441.39 1199 1435.78 1199 1430 1199C1430 1182.83 1430 1166.66 1430 1150Z" fill="#2E2829"/>
<path d="M1430 1073C1435.61 1073 1441.22 1073 1447 1073C1447 1089.17 1447 1105.34 1447 1122C1441.39 1122 1435.78 1122 1430 1122C1430 1105.83 1430 1089.66 1430 1073Z" fill="#2D2828"/>
<path d="M1430 607C1435.61 607 1441.22 607 1447 607C1447 623.17 1447 639.34 1447 656C1441.39 656 1435.78 656 1430 656C1430 639.83 1430 623.66 1430 607Z" fill="#2F2A2B"/>
<path d="M1430 530C1435.61 530 1441.22 530 1447 530C1447 546.17 1447 562.34 1447 579C1441.39 579 1435.78 579 1430 579C1430 562.83 1430 546.66 1430 530Z" fill="#2B2527"/>
<path d="M1429 463C1434.61 463 1440.22 463 1446 463C1446 479.17 1446 495.34 1446 512C1440.39 512 1434.78 512 1429 512C1429 495.83 1429 479.66 1429 463Z" fill="#2B2527"/>
<path d="M1429 419C1434.61 419 1440.22 419 1446 419C1446 429.56 1446 440.12 1446 451C1440.39 451 1434.78 451 1429 451C1429 440.44 1429 429.88 1429 419Z" fill="#2B2527"/>
<path d="M949 1401C949.342 1402.52 949.673 1404.04 950 1405.56C950.186 1406.41 950.371 1407.26 950.562 1408.13C951.069 1411.45 951.028 1414.65 951 1418C946.131 1418.58 941.26 1419.15 936.388 1419.71C934.737 1419.9 933.087 1420.09 931.437 1420.29C921.206 1421.51 911.319 1422.22 901 1422C901 1416.39 901 1410.78 901 1405C904.633 1404.69 904.633 1404.69 908.34 1404.38C910.713 1404.18 913.086 1403.98 915.459 1403.77C917.095 1403.63 918.731 1403.5 920.367 1403.36C922.733 1403.16 925.099 1402.96 927.465 1402.75C928.184 1402.69 928.903 1402.63 929.644 1402.57C934.087 1402.19 938.513 1401.73 942.941 1401.19C944.953 1401 946.979 1401 949 1401Z" fill="#2F2B2A"/>
<path d="M1026 1383C1026.67 1385.1 1027.34 1387.21 1028 1389.31C1028.37 1390.48 1028.74 1391.66 1029.12 1392.86C1030 1396 1030 1396 1030 1399C1018.58 1403.06 1007.17 1406.63 995.375 1409.44C994.291 1409.7 993.207 1409.95 992.09 1410.22C984.433 1412 984.433 1412 981 1412C980.494 1410.08 979.996 1408.17 979.5 1406.25C979.222 1405.18 978.943 1404.12 978.656 1403.02C978 1400 978 1400 978 1396C982.181 1394.14 986.413 1393.21 990.875 1392.31C999.599 1390.48 1008.06 1387.96 1016.56 1385.29C1017.97 1384.84 1017.97 1384.84 1019.41 1384.39C1020.24 1384.12 1021.08 1383.86 1021.95 1383.58C1024 1383 1024 1383 1026 1383Z" fill="#2F2A2A"/>
<path d="M1100 1354C1101.04 1355.74 1102.05 1357.49 1103.06 1359.25C1103.63 1360.22 1104.2 1361.2 1104.79 1362.2C1106 1365 1106 1365 1106.05 1367.14C1101.51 1375.19 1083.81 1379.71 1075.81 1383C1074.62 1383.49 1073.42 1383.99 1072.19 1384.49C1071.06 1384.95 1069.93 1385.41 1068.77 1385.88C1067.75 1386.28 1066.74 1386.69 1065.69 1387.12C1063 1388 1063 1388 1059 1388C1058.16 1386.07 1057.33 1384.13 1056.5 1382.19C1056.04 1381.11 1055.57 1380.03 1055.09 1378.92C1054 1376 1054 1376 1054 1373C1054.62 1372.74 1055.24 1372.49 1055.89 1372.22C1067.99 1367.24 1080.05 1362.19 1091.93 1356.69C1093.09 1356.16 1093.09 1356.16 1094.27 1355.62C1094.95 1355.3 1095.62 1354.99 1096.32 1354.67C1098 1354 1098 1354 1100 1354Z" fill="#2F2A2A"/>
<path d="M824 1401C838.976 1401.73 838.976 1401.73 846.375 1403C854.55 1404.38 862.725 1404.62 871 1405C871 1410.61 871 1416.22 871 1422C854.505 1422.45 838.262 1420.78 822 1418C821.782 1412 822.494 1406.81 824 1401Z" fill="#312C2C"/>
<path d="M1815 1303C1818.89 1304.39 1821.97 1306.22 1825.31 1308.62C1826.2 1309.26 1827.08 1309.89 1827.99 1310.54C1828.65 1311.02 1829.32 1311.5 1830 1312C1825.25 1319.9 1819.98 1327 1814 1334C1812.95 1335.23 1811.91 1336.47 1810.86 1337.7C1802.33 1347.73 1802.33 1347.73 1799 1351C1795.17 1349.44 1792.83 1346.97 1790 1344C1789.38 1343.48 1788.76 1342.97 1788.12 1342.44C1787.75 1341.96 1787.38 1341.49 1787 1341C1787.43 1337.73 1788.44 1336.28 1790.88 1334.12C1800.32 1325.07 1807.73 1313.81 1815 1303Z" fill="#2F2B2B"/>
<path d="M1699 1393C1699.84 1395.29 1700.67 1397.58 1701.5 1399.88C1701.74 1400.53 1701.98 1401.18 1702.22 1401.85C1704 1406.77 1704 1406.77 1704 1409C1693.92 1412.3 1683.79 1414.79 1673.37 1416.81C1672.26 1417.03 1671.15 1417.25 1670 1417.48C1664.58 1418.49 1659.51 1419.28 1654 1419C1653.66 1417.27 1653.33 1415.54 1653 1413.81C1652.81 1412.85 1652.63 1411.89 1652.44 1410.89C1652.03 1408.2 1651.97 1405.72 1652 1403C1652.84 1402.84 1653.68 1402.68 1654.55 1402.51C1657.73 1401.9 1660.92 1401.28 1664.1 1400.66C1665.47 1400.39 1666.84 1400.13 1668.2 1399.87C1676.41 1398.29 1684.38 1396.43 1692.32 1393.76C1695 1393 1695 1393 1699 1393Z" fill="#302B2B"/>
<path d="M619 1298C623.086 1299.64 625.934 1302.57 629.062 1305.56C634.833 1310.99 640.801 1316.07 647 1321C647.959 1321.77 648.918 1322.54 649.906 1323.33C652.267 1325.23 654.632 1327.11 657 1329C656.376 1332.76 654.652 1335.19 652.438 1338.25C651.797 1339.14 651.156 1340.03 650.496 1340.95C650.002 1341.63 649.509 1342.3 649 1343C641.002 1338.1 634.053 1332.13 627 1326C625.882 1325.04 625.882 1325.04 624.742 1324.05C619.431 1319.44 614.219 1314.72 609 1310C610.372 1306.82 611.862 1305.03 614.562 1302.88C617.21 1300.79 617.21 1300.79 619 1298Z" fill="#2E2829"/>
<path d="M1430 996C1435.61 996 1441.22 996 1447 996C1447 1011.84 1447 1027.68 1447 1044C1441.39 1044 1435.78 1044 1430 1044C1430 1028.16 1430 1012.32 1430 996Z" fill="#2C2727"/>
<path d="M1430 840C1435.61 840 1441.22 840 1447 840C1447 855.84 1447 871.68 1447 888C1441.39 888 1435.78 888 1430 888C1430 872.16 1430 856.32 1430 840Z" fill="#2E2829"/>
<path d="M1765 1358C1768.93 1361.7 1771.95 1365.55 1775 1370C1773.66 1373.12 1772.41 1374.74 1769.61 1376.63C1768.91 1377.1 1768.21 1377.57 1767.49 1378.06C1766.35 1378.8 1766.35 1378.8 1765.19 1379.56C1764.4 1380.08 1763.62 1380.6 1762.81 1381.13C1756.57 1385.16 1750.14 1388.79 1743.56 1392.25C1742.2 1392.97 1742.2 1392.97 1740.82 1393.7C1734.39 1397 1734.39 1397 1731 1397C1730.16 1395.25 1729.33 1393.5 1728.5 1391.75C1728.04 1390.78 1727.57 1389.8 1727.09 1388.8C1726 1386 1726 1386 1726 1382C1727.58 1381.2 1727.58 1381.2 1729.19 1380.38C1741.86 1373.87 1753.44 1366.29 1765 1358Z" fill="#2D2929"/>
<path d="M1513 1361C1516.58 1362.79 1518.33 1364.11 1521.12 1366.81C1530.24 1375.2 1540.66 1382.2 1551 1389C1549.51 1393.97 1547.4 1398.42 1545 1403C1540.25 1401.63 1536.35 1399.58 1532.25 1396.88C1531.64 1396.48 1531.03 1396.08 1530.4 1395.66C1525 1392.09 1519.92 1388.21 1515 1384C1514.09 1383.22 1513.17 1382.44 1512.23 1381.64C1505.28 1375.56 1505.28 1375.56 1503 1371C1506.3 1367.7 1509.6 1364.4 1513 1361Z" fill="#2E2929"/>
<path d="M1854 1238C1857.48 1238.79 1860.11 1240.05 1863.19 1241.88C1864.07 1242.39 1864.95 1242.9 1865.86 1243.43C1868 1245 1868 1245 1869 1248C1867.86 1250.52 1867.86 1250.52 1866.1 1253.52C1865.46 1254.62 1864.82 1255.72 1864.16 1256.85C1863.46 1258.03 1862.76 1259.2 1862.06 1260.38C1861.37 1261.56 1860.67 1262.75 1859.98 1263.93C1855.42 1271.69 1850.81 1279.41 1846 1287C1841.9 1285.78 1838.64 1284.32 1835.12 1281.88C1834.34 1281.34 1833.56 1280.8 1832.76 1280.24C1832.18 1279.83 1831.6 1279.42 1831 1279C1832.46 1275.03 1834.35 1271.55 1836.52 1267.92C1836.86 1267.35 1837.2 1266.78 1837.55 1266.19C1838.63 1264.38 1839.72 1262.56 1840.81 1260.75C1845.32 1253.23 1849.82 1245.71 1854 1238Z" fill="#302B2B"/>
<path d="M750 1381C754.895 1381.76 759.367 1383.5 764 1385.19C774.531 1388.96 785.213 1392.05 796 1395C796.206 1400.87 794.787 1405.49 793 1411C783.633 1409.87 775.043 1407.3 766.16 1404.26C763.913 1403.49 761.661 1402.74 759.408 1401.99C757.968 1401.5 756.529 1401.02 755.09 1400.53C754.421 1400.31 753.752 1400.08 753.063 1399.85C750.046 1398.82 747.676 1397.78 745 1396C748.075 1385.44 748.075 1385.44 750 1381Z" fill="#2E2929"/>
<path d="M1451 1228C1451.27 1229.21 1451.54 1230.42 1451.81 1231.67C1453.19 1237.87 1454.59 1244.06 1456 1250.25C1456.39 1251.99 1456.39 1251.99 1456.79 1253.76C1457.04 1254.87 1457.3 1255.99 1457.56 1257.14C1457.9 1258.65 1457.9 1258.65 1458.25 1260.19C1458.94 1263.02 1458.94 1263.02 1460.11 1265.69C1461.2 1268.52 1460.82 1270.13 1460 1273C1458.06 1273.67 1456.13 1274.34 1454.19 1275C1453.11 1275.37 1452.03 1275.74 1450.92 1276.13C1448 1277 1448 1277 1445 1277C1441.28 1267.32 1438.86 1257.5 1436.69 1247.38C1436.42 1246.14 1436.15 1244.91 1435.88 1243.64C1433.84 1233.88 1433.84 1233.88 1434 1229C1439.71 1228.01 1445.21 1227.92 1451 1228Z" fill="#2F2B2B"/>
<path d="M1577 1400C1581.11 1400.48 1585.19 1401.01 1589.27 1401.72C1600.55 1403.67 1611.55 1404.57 1623 1405C1623 1410.61 1623 1416.22 1623 1422C1606.28 1422.4 1591.13 1420.46 1575 1416C1573.87 1411.9 1574.22 1409.24 1575.44 1405.19C1575.72 1404.21 1576.01 1403.24 1576.31 1402.23C1576.54 1401.49 1576.76 1400.76 1577 1400Z" fill="#302A2A"/>
<path d="M683 1347C683.619 1347.34 684.237 1347.68 684.875 1348.02C689.737 1350.68 694.604 1353.33 699.482 1355.95C702.046 1357.34 704.606 1358.73 707.165 1360.12C708.488 1360.84 709.812 1361.56 711.139 1362.27C713.079 1363.31 715.013 1364.36 716.945 1365.42C718.655 1366.34 718.655 1366.34 720.399 1367.29C723 1369 723 1369 724 1372C722.785 1374.92 722.785 1374.92 721.063 1378.19C720.497 1379.27 719.931 1380.36 719.348 1381.48C718.681 1382.73 718.681 1382.73 718 1384C712.72 1383.1 708.502 1381.02 703.75 1378.62C702.876 1378.19 702.003 1377.75 701.102 1377.29C695.005 1374.16 689.099 1370.8 683.313 1367.12C682.588 1366.67 681.864 1366.22 681.118 1365.76C676.224 1362.56 676.224 1362.56 675.202 1360.02C674.864 1356.64 676.93 1354.84 678.938 1352.25C679.689 1351.27 680.441 1350.28 681.215 1349.27C682.098 1348.14 682.098 1348.14 683 1347Z" fill="#2E2929"/>
<path d="M616 528C619.283 529.491 621.931 531.386 624.75 533.625C625.549 534.257 626.348 534.888 627.172 535.539C627.775 536.021 628.378 536.503 629 537C627.479 540.421 625.466 543.015 623.062 545.875C619.435 550.244 615.876 554.655 612.375 559.125C611.912 559.716 611.449 560.307 610.972 560.916C607.304 565.603 603.646 570.296 600 575C596.437 573.715 593.672 572.202 590.688 569.875C589.99 569.336 589.293 568.797 588.574 568.242C588.055 567.832 587.535 567.422 587 567C587.597 562.999 589.63 560.537 592.062 557.375C592.468 556.846 592.874 556.317 593.292 555.771C594.52 554.175 595.76 552.587 597 551C597.656 550.158 598.312 549.316 598.988 548.449C604.489 541.491 610.246 534.748 616 528Z" fill="#2C2728"/>
<path d="M1968 1038C1971.66 1038.69 1974.52 1040.25 1977.75 1042.06C1978.73 1042.61 1979.72 1043.16 1980.73 1043.72C1981.48 1044.14 1982.23 1044.57 1983 1045C1981.67 1048.53 1980.11 1051.75 1978.24 1055.03C1977.7 1055.98 1977.16 1056.93 1976.61 1057.91C1976.03 1058.91 1975.46 1059.91 1974.88 1060.94C1974.29 1061.96 1973.71 1062.98 1973.11 1064.03C1971.41 1067.02 1969.71 1070.01 1968 1073C1967.12 1074.54 1966.24 1076.08 1965.36 1077.62C1963.58 1080.75 1961.79 1083.88 1960 1087C1955.9 1085.78 1952.64 1084.32 1949.12 1081.88C1948.34 1081.34 1947.56 1080.8 1946.76 1080.24C1946.18 1079.83 1945.6 1079.42 1945 1079C1949.5 1069.61 1954.46 1060.69 1959.9 1051.81C1962.67 1047.25 1965.32 1042.62 1968 1038Z" fill="#2E2828"/>
<path d="M1931 1105C1935.62 1107.31 1940.24 1109.62 1945 1112C1943.52 1116.44 1942.3 1119.51 1939.99 1123.41C1939.39 1124.42 1938.8 1125.43 1938.19 1126.47C1937.57 1127.51 1936.95 1128.55 1936.31 1129.62C1935.71 1130.64 1935.11 1131.66 1934.49 1132.71C1933.28 1134.76 1932.07 1136.81 1930.86 1138.86C1927.88 1143.89 1924.94 1148.95 1922 1154C1918.44 1153.2 1915.86 1151.86 1912.75 1149.94C1911.86 1149.39 1910.97 1148.84 1910.05 1148.28C1909.37 1147.86 1908.7 1147.43 1908 1147C1908.59 1143.14 1909.73 1140.32 1911.66 1136.94C1912.2 1135.98 1912.75 1135.02 1913.31 1134.04C1913.89 1133.04 1914.47 1132.03 1915.06 1131C1915.94 1129.46 1915.94 1129.46 1916.84 1127.89C1928.62 1107.38 1928.62 1107.38 1931 1105Z" fill="#2E2929"/>
<path d="M1892 1171C1895.6 1172.39 1898.62 1173.94 1901.81 1176.12C1902.6 1176.66 1903.39 1177.2 1904.21 1177.76C1904.8 1178.17 1905.39 1178.58 1906 1179C1905.41 1183.18 1903.98 1186.15 1901.87 1189.79C1901.23 1190.9 1900.58 1192 1899.92 1193.14C1899.58 1193.72 1899.25 1194.29 1898.9 1194.88C1897.89 1196.6 1896.9 1198.32 1895.9 1200.04C1891.76 1207.13 1887.47 1214.11 1883 1221C1881.01 1219.93 1879.03 1218.85 1877.06 1217.75C1875.96 1217.15 1874.86 1216.54 1873.72 1215.92C1871 1214 1871 1214 1870.15 1212.25C1869.93 1208.9 1871.29 1207.02 1872.94 1204.12C1873.26 1203.56 1873.57 1202.99 1873.9 1202.41C1874.92 1200.6 1875.96 1198.8 1877 1197C1877.67 1195.82 1878.34 1194.64 1879 1193.46C1883.26 1185.93 1887.63 1178.46 1892 1171Z" fill="#2F2929"/>
<path d="M568 592C573.534 593.198 577.481 596.73 582 600C577.382 608.725 572.342 617.149 567.188 625.562C566.025 627.465 564.863 629.368 563.701 631.271C562.662 632.974 561.62 634.676 560.579 636.377C559.036 638.863 559.036 638.863 558 641C554.43 640.341 551.823 638.838 548.75 636.938C547.858 636.39 546.966 635.842 546.047 635.277C545.371 634.856 544.696 634.434 544 634C544.587 629.876 545.947 627.015 548.098 623.465C548.735 622.407 549.373 621.349 550.029 620.26C551.036 618.615 551.036 618.615 552.062 616.938C553.028 615.334 553.028 615.334 554.014 613.697C558.481 606.326 563.165 599.134 568 592Z" fill="#2D2829"/>
<path d="M2006 971C2009.99 971.56 2012.53 972.757 2015.81 975.062C2016.6 975.61 2017.39 976.158 2018.21 976.723C2018.8 977.144 2019.39 977.566 2020 978C2019.43 983.027 2017.1 986.817 2014.62 991.125C2014.19 991.899 2013.75 992.673 2013.3 993.47C2011.88 995.986 2010.44 998.494 2009 1001C2008.49 1001.89 2007.98 1002.78 2007.45 1003.7C2004.32 1009.14 2001.16 1014.57 1998 1020C1993.38 1017.69 1988.76 1015.38 1984 1013C1984.83 1008.86 1985.38 1006.93 1987.41 1003.48C1987.9 1002.63 1988.39 1001.78 1988.9 1000.9C1989.69 999.559 1989.69 999.559 1990.5 998.188C1991.59 996.313 1992.68 994.438 1993.77 992.562C1994.31 991.631 1994.85 990.699 1995.41 989.738C1997.73 985.742 1999.99 981.718 2002.25 977.688C2002.63 977.006 2003.01 976.325 2003.41 975.624C2004.27 974.083 2005.14 972.542 2006 971Z" fill="#2E2828"/>
<path d="M2038 912C2041.99 912.56 2044.53 913.757 2047.81 916.062C2048.6 916.61 2049.39 917.158 2050.21 917.723C2050.8 918.144 2051.39 918.566 2052 919C2051.43 924.027 2049.1 927.817 2046.62 932.125C2046.19 932.899 2045.75 933.673 2045.3 934.47C2043.88 936.986 2042.44 939.494 2041 942C2040.49 942.889 2039.98 943.779 2039.45 944.695C2036.32 950.14 2033.16 955.573 2030 961C2025.38 958.69 2020.76 956.38 2016 954C2016.83 949.856 2017.38 947.933 2019.41 944.48C2019.9 943.63 2020.39 942.779 2020.9 941.903C2021.69 940.559 2021.69 940.559 2022.5 939.188C2023.59 937.313 2024.68 935.438 2025.77 933.562C2026.31 932.631 2026.85 931.699 2027.41 930.738C2029.73 926.742 2031.99 922.718 2034.25 918.688C2034.63 918.006 2035.01 917.325 2035.41 916.624C2036.27 915.083 2037.14 913.542 2038 912Z" fill="#2E2828"/>
<path d="M1369 525C1371.61 527.337 1373.04 529.7 1374.59 532.824C1375.07 533.771 1375.54 534.718 1376.03 535.693C1376.51 536.681 1377 537.669 1377.5 538.688C1378.23 540.141 1378.23 540.141 1378.97 541.623C1381.64 546.997 1384.01 552.339 1386 558C1383.71 559.172 1381.42 560.337 1379.12 561.5C1378.47 561.834 1377.82 562.168 1377.15 562.512C1372.23 565 1372.23 565 1370 565C1368 561.071 1366 557.138 1364.02 553.202C1363.34 551.863 1362.66 550.526 1361.98 549.189C1361 547.268 1360.03 545.344 1359.06 543.418C1358.48 542.261 1357.89 541.103 1357.29 539.911C1356 537 1356 537 1356 534C1358.08 532.5 1358.08 532.5 1360.81 531C1363.97 529.252 1366.58 527.697 1369 525Z" fill="#2D2729"/>
<path d="M1339 477C1341.61 479.337 1343.04 481.7 1344.59 484.824C1345.07 485.771 1345.54 486.718 1346.03 487.693C1346.51 488.681 1347 489.669 1347.5 490.688C1348.23 492.141 1348.23 492.141 1348.97 493.623C1351.64 498.997 1354.01 504.339 1356 510C1353.71 511.172 1351.42 512.337 1349.12 513.5C1348.47 513.834 1347.82 514.168 1347.15 514.512C1342.23 517 1342.23 517 1340 517C1338 513.071 1336 509.138 1334.02 505.202C1333.34 503.863 1332.66 502.526 1331.98 501.189C1331 499.268 1330.03 497.344 1329.06 495.418C1328.48 494.261 1327.89 493.103 1327.29 491.911C1326 489 1326 489 1326 486C1328.08 484.5 1328.08 484.5 1330.81 483C1333.97 481.252 1336.58 479.697 1339 477Z" fill="#2D2729"/>
<path d="M1298 430C1301.29 431.427 1303.35 433.157 1305.79 435.773C1306.48 436.516 1307.18 437.258 1307.89 438.023C1308.61 438.799 1309.32 439.575 1310.06 440.375C1310.78 441.143 1311.5 441.912 1312.24 442.703C1321 452.101 1321 452.101 1321 455C1318.48 456.98 1318.48 456.98 1315.19 459.188C1314.11 459.924 1313.03 460.66 1311.92 461.418C1310.47 462.201 1310.47 462.201 1309 463C1305.73 461.909 1305.16 461.271 1303.06 458.688C1298.07 452.776 1292.51 447.427 1287 442C1290.51 437.816 1294.08 433.804 1298 430Z" fill="#292426"/>
<path d="M2059 877C2060.99 878.067 2062.97 879.154 2064.94 880.25C2066.04 880.853 2067.14 881.457 2068.28 882.078C2071 884 2071 884 2071.79 885.852C2072.06 888.626 2071.37 889.871 2070.02 892.293C2069.57 893.088 2069.13 893.882 2068.68 894.701C2068.21 895.522 2067.74 896.342 2067.25 897.188C2066.79 898.02 2066.34 898.852 2065.87 899.709C2062.39 905.869 2062.39 905.869 2059 907C2056.34 905.855 2056.34 905.855 2053.38 904.188C2052.39 903.645 2051.41 903.102 2050.4 902.543C2048 901 2048 901 2047 899C2047.99 896.753 2047.99 896.753 2049.53 893.992C2050.07 893.006 2050.62 892.02 2051.18 891.004C2051.76 889.971 2052.34 888.939 2052.94 887.875C2053.51 886.835 2054.09 885.794 2054.69 884.723C2056.12 882.144 2057.56 879.57 2059 877Z" fill="#322C2D"/>
<path d="M1430 530C1435.61 530 1441.22 530 1447 530C1447 546.17 1447 562.34 1447 579C1441.39 579 1435.78 579 1430 579C1430 562.83 1430 546.66 1430 530ZM1432 531C1431.98 537.533 1431.96 544.066 1431.95 550.598C1431.94 552.823 1431.93 555.047 1431.92 557.271C1431.91 560.461 1431.91 563.65 1431.9 566.84C1431.9 567.841 1431.89 568.842 1431.89 569.873C1431.89 570.794 1431.89 571.715 1431.89 572.664C1431.88 573.479 1431.88 574.294 1431.88 575.133C1431.79 577.015 1431.79 577.015 1433 578C1436.96 578 1440.92 578 1445 578C1445 562.49 1445 546.98 1445 531C1440.71 531 1436.42 531 1432 531Z" fill="#322E2F"/>
<path d="M1427 917C1433.27 917.33 1439.54 917.66 1446 918C1446 930.54 1446 943.08 1446 956C1445.67 956 1445.34 956 1445 956C1445 943.79 1445 931.58 1445 919C1430.42 918.14 1430.42 918.14 1427 922C1427 920.35 1427 918.7 1427 917Z" fill="#221E1D"/>
<path d="M671 468C671.33 468.99 671.66 469.98 672 471C669.117 473.971 666.216 476.924 663.312 479.875C662.088 481.138 662.088 481.138 660.838 482.426C659.644 483.634 659.644 483.634 658.426 484.867C657.698 485.611 656.97 486.354 656.22 487.121C653.896 489.088 651.872 490.042 649 491C653.53 485.563 658.343 480.535 663.375 475.562C664.111 474.831 664.847 474.099 665.605 473.346C667.401 471.561 669.2 469.78 671 468Z" fill="#322E2F"/>
<path d="M1421 949C1423.43 952.639 1423.06 953.824 1422.56 958.062C1421.9 962.177 1421.9 962.177 1423 966C1421.68 966 1420.36 966 1419 966C1419.14 964.104 1419.29 962.208 1419.44 960.312C1419.52 959.257 1419.6 958.201 1419.68 957.113C1419.96 954.349 1420.4 951.711 1421 949Z" fill="#353331"/>
<path d="M619 1298C619.99 1298.33 620.98 1298.66 622 1299C618.196 1302.92 614.184 1306.49 610 1310C610 1307 610 1307 611.715 1305.25C612.448 1304.65 613.182 1304.05 613.938 1303.44C616.926 1301.09 616.926 1301.09 619 1298Z" fill="#413D3E"/>
<path d="M1298 430C1299.32 430.66 1300.64 431.32 1302 432C1301.44 432.227 1300.89 432.454 1300.31 432.688C1297.37 434.359 1295.32 436.553 1293 439C1292.01 438.67 1291.02 438.34 1290 438C1292.64 435.36 1295.28 432.72 1298 430Z" fill="#312F30"/>
<path d="M1968 1038C1971.01 1038.64 1973.52 1039.65 1976.25 1041.06C1976.96 1041.42 1977.66 1041.79 1978.39 1042.16C1978.92 1042.44 1979.45 1042.71 1980 1043C1975.82 1044.39 1973.93 1042.75 1970 1041C1969.01 1041 1968.02 1041 1967 1041C1967.33 1040.01 1967.66 1039.02 1968 1038Z" fill="#31302E"/>
<path d="M1071 338C1071.66 338 1072.32 338 1073 338C1073 338.66 1073 339.32 1073 340C1076.3 340.33 1079.6 340.66 1083 341C1083 341.33 1083 341.66 1083 342C1079.04 342 1075.08 342 1071 342C1071 340.68 1071 339.36 1071 338Z" fill="#3E3C3C"/>
<path d="M1414 630C1416.31 632.313 1416.5 633.479 1417.12 636.625C1417.29 637.442 1417.46 638.26 1417.63 639.102C1417.81 640.041 1417.81 640.041 1418 641C1417.01 641 1416.02 641 1415 641C1414.67 637.37 1414.34 633.74 1414 630Z" fill="#3A3738"/>
<path d="M748 1386C748.33 1386 748.66 1386 749 1386C749.089 1389.83 748.879 1393.27 748 1397C747.01 1396.67 746.02 1396.34 745 1396C745.99 1392.7 746.98 1389.4 748 1386Z" fill="#3E3B3A"/>
<path d="M1402 597C1404.69 599.686 1405.06 602.376 1406 606C1405.01 605.67 1404.02 605.34 1403 605C1402.67 602.36 1402.34 599.72 1402 597Z" fill="#383636"/>
<path d="M1591 493C1592.65 493 1594.3 493 1596 493C1596 493.66 1596 494.32 1596 495C1593.03 495.66 1590.06 496.32 1587 497C1588.32 496.34 1589.64 495.68 1591 495C1591 494.34 1591 493.68 1591 493Z" fill="#CEDED7"/>
</g>
<defs>
<clipPath id="clip0_22_277">
<rect width="2184" height="1920" fill="white"/>
</clipPath>
</defs>
</svg>
