<?xml version="1.0" encoding="UTF-8" standalone="no"?><!DOCTYPE svg PUBLIC "-//W3C//DTD SVG 1.1//EN" "http://www.w3.org/Graphics/SVG/1.1/DTD/svg11.dtd"><svg width="100%" height="100%" viewBox="0 0 380 340" version="1.1" xmlns="http://www.w3.org/2000/svg" xmlns:xlink="http://www.w3.org/1999/xlink" xml:space="preserve" style="fill-rule:evenodd;clip-rule:evenodd;stroke-linejoin:round;stroke-miterlimit:1.41421;"><g><g><path id="fill" d="M70.323,134.839c12.903,-24.516 42.58,-40 70.967,-40c31.613,0 62.581,31.613 62.581,68.387c0,45.161 -45.161,87.097 -91.613,80.645c-49.032,-6.452 -70.323,-57.419 -41.935,-109.032Zm133.548,-50.968c-23.226,-20 -42.581,-23.871 -70.968,-23.871c-29.677,0 -65.161,14.194 -87.742,46.452c-20.645,29.677 -23.871,44.516 -23.871,80.645c0,50.968 43.871,92.903 101.936,92.903c41.29,0 58.709,-14.194 83.871,-38.71c9.677,29.033 23.226,38.71 53.548,38.71c22.581,0 45.807,-14.194 59.355,-38.065l38.71,-67.096l-31.613,-18.71l-37.42,65.161c-22.58,32.258 -45.806,29.033 -49.032,1.291l0,-149.033l-36.774,0l0,10.323Z" style="fill-rule:nonzero;"/></g></g></svg>