<?xml version="1.0" encoding="UTF-8" standalone="no"?><!DOCTYPE svg PUBLIC "-//W3C//DTD SVG 1.1//EN" "http://www.w3.org/Graphics/SVG/1.1/DTD/svg11.dtd"><svg width="100%" height="100%" viewBox="0 0 380 340" version="1.1" xmlns="http://www.w3.org/2000/svg" xmlns:xlink="http://www.w3.org/1999/xlink" xml:space="preserve" style="fill-rule:evenodd;clip-rule:evenodd;stroke-linejoin:round;stroke-miterlimit:1.41421;"><g><g><path id="contorno" d="M243.662,222.539l0.077,0.603l0.085,0.593l0.091,0.583l0.098,0.574l0.104,0.564l0.11,0.554l0.116,0.544l0.123,0.534l0.128,0.524l0.134,0.515l0.14,0.504l0.146,0.494l0.229,0.723l0.241,0.699l0.253,0.677l0.264,0.655l0.275,0.631l0.286,0.608l0.296,0.585l0.306,0.562l0.315,0.54l0.325,0.516l0.333,0.494l0.341,0.472l0.349,0.449l0.357,0.426l0.364,0.405l0.371,0.383l0.378,0.361l0.385,0.341l0.391,0.319l0.398,0.299l0.404,0.279l0.411,0.259l0.418,0.24l0.424,0.22l0.431,0.201l0.439,0.182l0.447,0.164l0.454,0.144l0.463,0.126l0.471,0.108l0.48,0.088l0.49,0.069l0.499,0.05l0.51,0.031l0.519,0.01l0.175,-0.001l0.176,-0.003l0.178,-0.006l0.179,-0.007l0.18,-0.011l0.181,-0.012l0.182,-0.015l0.183,-0.017l0.185,-0.02l0.185,-0.022l0.187,-0.024l0.188,-0.027l0.189,-0.029l0.19,-0.031l0.191,-0.035l0.193,-0.036l0.193,-0.039l0.195,-0.042l0.196,-0.044l0.197,-0.047l0.198,-0.049l0.199,-0.052l0.2,-0.054l0.202,-0.057l0.202,-0.06l0.204,-0.062l0.204,-0.065l0.206,-0.067l0.207,-0.071l0.207,-0.073l0.209,-0.075l0.21,-0.078l0.211,-0.081l0.211,-0.084l0.213,-0.087l0.214,-0.089l0.215,-0.092l0.216,-0.095l0.216,-0.097l0.218,-0.101l0.218,-0.103l0.22,-0.106l0.22,-0.109l0.221,-0.111l0.222,-0.115l0.223,-0.117l0.224,-0.121l0.225,-0.123l0.225,-0.126l0.227,-0.129l0.227,-0.132l0.228,-0.134l0.229,-0.138l0.229,-0.141l0.231,-0.143l0.231,-0.147l0.232,-0.149l0.232,-0.153l0.234,-0.155l0.234,-0.158l0.234,-0.162l0.236,-0.164l0.236,-0.167l0.236,-0.17l0.238,-0.174l0.238,-0.176l0.238,-0.179l0.24,-0.183l0.24,-0.185l0.24,-0.189l0.241,-0.191l0.242,-0.195l0.242,-0.197l0.243,-0.201l0.243,-0.204l0.244,-0.206l0.244,-0.21l0.245,-0.213l0.246,-0.216l0.245,-0.219l0.247,-0.223l0.246,-0.225l0.248,-0.228l0.247,-0.232l0.249,-0.235l0.248,-0.238l0.249,-0.241l0.249,-0.244l0.25,-0.247l0.25,-0.25l0.251,-0.254l0.251,-0.256l0.251,-0.26l0.252,-0.263l0.251,-0.266l0.253,-0.269l0.252,-0.273l0.253,-0.275l0.253,-0.279l0.254,-0.282l0.253,-0.285l0.254,-0.289l0.254,-0.291l0.255,-0.295l0.255,-0.298l0.255,-0.301l0.255,-0.305l0.255,-0.307l0.256,-0.311l0.255,-0.314l0.256,-0.318l0.256,-0.32l0.256,-0.324l0.257,-0.327l0.256,-0.33l0.257,-0.334l0.257,-0.336l0.257,-0.34l0.257,-0.344l0.257,-0.346l0.257,-0.35l0.257,-0.353l0.257,-0.356l0.258,-0.36l0.257,-0.363l0.182,-0.259l38.845,-67.644l0.054,-0.014l36.748,21.749l-40.189,69.66l-0.158,0.277l-0.165,0.289l-0.167,0.287l-0.168,0.286l-0.168,0.286l-0.169,0.284l-0.171,0.284l-0.171,0.282l-0.172,0.282l-0.173,0.281l-0.174,0.28l-0.174,0.279l-0.176,0.278l-0.176,0.277l-0.178,0.276l-0.178,0.276l-0.179,0.274l-0.18,0.274l-0.181,0.272l-0.181,0.271l-0.183,0.271l-0.183,0.27l-0.184,0.268l-0.185,0.268l-0.186,0.267l-0.187,0.266l-0.187,0.265l-0.188,0.264l-0.19,0.263l-0.189,0.262l-0.191,0.261l-0.192,0.26l-0.192,0.259l-0.193,0.258l-0.194,0.258l-0.195,0.256l-0.195,0.255l-0.197,0.255l-0.197,0.253l-0.198,0.252l-0.198,0.252l-0.2,0.25l-0.2,0.25l-0.201,0.248l-0.202,0.248l-0.202,0.246l-0.203,0.246l-0.204,0.244l-0.205,0.244l-0.206,0.242l-0.206,0.242l-0.207,0.241l-0.207,0.239l-0.209,0.239l-0.209,0.238l-0.209,0.236l-0.211,0.236l-0.211,0.234l-0.212,0.234l-0.213,0.232l-0.213,0.232l-0.214,0.23l-0.215,0.23l-0.215,0.229l-0.217,0.227l-0.216,0.227l-0.218,0.225l-0.218,0.225l-0.219,0.223l-0.219,0.222l-0.22,0.222l-0.221,0.22l-0.222,0.219l-0.222,0.219l-0.222,0.217l-0.224,0.216l-0.224,0.215l-0.225,0.215l-0.225,0.213l-0.226,0.212l-0.226,0.211l-0.228,0.21l-0.227,0.209l-0.229,0.208l-0.229,0.206l-0.229,0.206l-0.231,0.205l-0.23,0.204l-0.232,0.202l-0.232,0.202l-0.233,0.2l-0.233,0.2l-0.234,0.198l-0.234,0.198l-0.235,0.196l-0.235,0.195l-0.236,0.194l-0.237,0.193l-0.237,0.192l-0.238,0.191l-0.238,0.19l-0.239,0.189l-0.24,0.187l-0.24,0.187l-0.24,0.185l-0.241,0.185l-0.242,0.183l-0.242,0.182l-0.242,0.181l-0.243,0.18l-0.244,0.179l-0.244,0.178l-0.245,0.177l-0.245,0.176l-0.246,0.174l-0.246,0.174l-0.246,0.172l-0.248,0.171l-0.247,0.17l-0.248,0.169l-0.249,0.168l-0.249,0.167l-0.249,0.166l-0.25,0.164l-0.251,0.164l-0.251,0.162l-0.251,0.161l-0.252,0.16l-0.252,0.159l-0.253,0.158l-0.253,0.157l-0.254,0.155l-0.254,0.155l-0.254,0.153l-0.255,0.152l-0.256,0.151l-0.256,0.15l-0.256,0.149l-0.256,0.148l-0.257,0.146l-0.258,0.145l-0.258,0.144l-0.258,0.143l-0.258,0.142l-0.259,0.141l-0.26,0.139l-0.26,0.139l-0.26,0.137l-0.26,0.136l-0.261,0.135l-0.261,0.134l-0.262,0.132l-0.262,0.132l-0.262,0.13l-0.263,0.129l-0.263,0.128l-0.264,0.126l-0.263,0.126l-0.265,0.124l-0.264,0.123l-0.265,0.122l-0.265,0.121l-0.265,0.12l-0.266,0.118l-0.266,0.117l-0.267,0.116l-0.266,0.115l-0.267,0.114l-0.268,0.112l-0.267,0.112l-0.268,0.11l-0.268,0.108l-0.269,0.108l-0.269,0.106l-0.269,0.106l-0.269,0.104l-0.27,0.102l-0.27,0.102l-0.27,0.1l-0.27,0.099l-0.271,0.098l-0.271,0.097l-0.271,0.095l-0.271,0.095l-0.272,0.093l-0.272,0.091l-0.272,0.091l-0.273,0.089l-0.272,0.088l-0.273,0.087l-0.273,0.086l-0.273,0.084l-0.274,0.083l-0.274,0.082l-0.274,0.08l-0.274,0.08l-0.274,0.078l-0.275,0.077l-0.274,0.075l-0.275,0.075l-0.275,0.073l-0.276,0.071l-0.275,0.071l-0.276,0.069l-0.276,0.068l-0.276,0.067l-0.276,0.065l-0.276,0.065l-0.276,0.062l-0.277,0.062l-0.277,0.06l-0.277,0.059l-0.277,0.058l-0.277,0.057l-0.277,0.055l-0.278,0.054l-0.277,0.052l-0.278,0.052l-0.278,0.05l-0.278,0.049l-0.278,0.047l-0.278,0.046l-0.278,0.045l-0.278,0.044l-0.279,0.042l-0.278,0.041l-0.279,0.039l-0.279,0.039l-0.278,0.037l-0.279,0.035l-0.279,0.035l-0.279,0.033l-0.279,0.031l-0.279,0.031l-0.279,0.029l-0.279,0.027l-0.28,0.027l-0.279,0.025l-0.279,0.023l-0.28,0.023l-0.279,0.021l-0.279,0.019l-0.28,0.019l-0.279,0.017l-0.28,0.015l-0.279,0.015l-0.28,0.013l-0.279,0.011l-0.28,0.011l-0.279,0.008l-0.28,0.008l-0.279,0.006l-0.28,0.005l-0.279,0.003l-0.28,0.002l-0.277,0.001l-0.364,0l-0.361,-0.002l-0.359,-0.002l-0.358,-0.003l-0.356,-0.004l-0.355,-0.005l-0.354,-0.006l-0.352,-0.007l-0.351,-0.008l-0.349,-0.009l-0.348,-0.01l-0.346,-0.01l-0.346,-0.012l-0.344,-0.013l-0.342,-0.013l-0.341,-0.015l-0.34,-0.015l-0.338,-0.017l-0.337,-0.017l-0.336,-0.019l-0.335,-0.019l-0.333,-0.02l-0.331,-0.022l-0.331,-0.022l-0.329,-0.024l-0.328,-0.024l-0.326,-0.026l-0.325,-0.026l-0.324,-0.028l-0.323,-0.028l-0.321,-0.03l-0.32,-0.031l-0.319,-0.031l-0.317,-0.033l-0.317,-0.034l-0.315,-0.035l-0.314,-0.036l-0.312,-0.037l-0.311,-0.038l-0.31,-0.039l-0.309,-0.04l-0.308,-0.042l-0.306,-0.042l-0.305,-0.044l-0.304,-0.044l-0.303,-0.046l-0.301,-0.047l-0.3,-0.048l-0.299,-0.049l-0.298,-0.051l-0.297,-0.051l-0.295,-0.052l-0.295,-0.054l-0.293,-0.055l-0.292,-0.056l-0.291,-0.057l-0.289,-0.059l-0.289,-0.059l-0.287,-0.061l-0.286,-0.062l-0.285,-0.063l-0.284,-0.064l-0.283,-0.065l-0.282,-0.067l-0.28,-0.068l-0.279,-0.069l-0.279,-0.07l-0.277,-0.072l-0.276,-0.073l-0.275,-0.074l-0.273,-0.075l-0.273,-0.076l-0.272,-0.078l-0.27,-0.079l-0.269,-0.08l-0.269,-0.082l-0.267,-0.083l-0.266,-0.084l-0.265,-0.085l-0.264,-0.087l-0.262,-0.088l-0.262,-0.089l-0.261,-0.091l-0.259,-0.091l-0.259,-0.093l-0.257,-0.095l-0.256,-0.096l-0.256,-0.097l-0.254,-0.098l-0.253,-0.1l-0.252,-0.101l-0.251,-0.103l-0.25,-0.103l-0.249,-0.105l-0.248,-0.107l-0.247,-0.108l-0.245,-0.109l-0.245,-0.111l-0.243,-0.111l-0.243,-0.114l-0.241,-0.114l-0.241,-0.117l-0.239,-0.117l-0.239,-0.119l-0.237,-0.12l-0.236,-0.122l-0.235,-0.123l-0.235,-0.124l-0.233,-0.126l-0.232,-0.127l-0.231,-0.129l-0.23,-0.13l-0.229,-0.131l-0.228,-0.133l-0.226,-0.134l-0.226,-0.136l-0.225,-0.137l-0.224,-0.139l-0.223,-0.139l-0.221,-0.142l-0.221,-0.143l-0.22,-0.144l-0.218,-0.146l-0.218,-0.147l-0.216,-0.148l-0.216,-0.15l-0.214,-0.152l-0.214,-0.152l-0.212,-0.155l-0.212,-0.155l-0.21,-0.158l-0.209,-0.158l-0.209,-0.16l-0.207,-0.162l-0.206,-0.163l-0.206,-0.164l-0.204,-0.166l-0.203,-0.167l-0.202,-0.169l-0.202,-0.17l-0.2,-0.172l-0.199,-0.173l-0.198,-0.174l-0.198,-0.176l-0.196,-0.178l-0.195,-0.178l-0.194,-0.181l-0.194,-0.181l-0.192,-0.184l-0.191,-0.184l-0.191,-0.186l-0.189,-0.188l-0.189,-0.189l-0.187,-0.19l-0.186,-0.192l-0.186,-0.194l-0.184,-0.194l-0.184,-0.197l-0.182,-0.197l-0.182,-0.199l-0.181,-0.201l-0.18,-0.202l-0.178,-0.203l-0.178,-0.205l-0.177,-0.207l-0.176,-0.207l-0.176,-0.21l-0.174,-0.21l-0.173,-0.213l-0.173,-0.213l-0.171,-0.215l-0.171,-0.217l-0.169,-0.218l-0.169,-0.219l-0.168,-0.221l-0.167,-0.223l-0.166,-0.223l-0.166,-0.226l-0.164,-0.226l-0.164,-0.229l-0.163,-0.229l-0.162,-0.231l-0.161,-0.233l-0.16,-0.234l-0.16,-0.236l-0.158,-0.236l-0.158,-0.239l-0.157,-0.24l-0.156,-0.241l-0.155,-0.243l-0.155,-0.245l-0.154,-0.245l-0.153,-0.248l-0.152,-0.248l-0.152,-0.251l-0.15,-0.252l-0.15,-0.253l-0.15,-0.255l-0.148,-0.256l-0.148,-0.258l-0.147,-0.259l-0.146,-0.26l-0.146,-0.263l-0.145,-0.264l-0.144,-0.265l-0.143,-0.267l-0.143,-0.268l-0.142,-0.27l-0.141,-0.271l-0.141,-0.273l-0.14,-0.274l-0.139,-0.276l-0.139,-0.277l-0.138,-0.279l-0.137,-0.281l-0.137,-0.282l-0.136,-0.284l-0.136,-0.285l-0.135,-0.286l-0.134,-0.289l-0.134,-0.289l-0.133,-0.292l-0.132,-0.293l-0.132,-0.294l-0.131,-0.296l-0.131,-0.298l-0.13,-0.299l-0.129,-0.301l-0.129,-0.302l-0.129,-0.304l-0.128,-0.305l-0.127,-0.307l-0.127,-0.309l-0.126,-0.31l-0.126,-0.312l-0.125,-0.314l-0.125,-0.315l-0.124,-0.317l-0.123,-0.318l-0.124,-0.32l-0.122,-0.322l-0.122,-0.323l-0.09,-0.239l-0.139,0.134l-0.577,0.553l-0.575,0.549l-0.572,0.546l-0.571,0.542l-0.569,0.538l-0.568,0.535l-0.566,0.531l-0.565,0.527l-0.564,0.524l-0.562,0.52l-0.561,0.516l-0.56,0.512l-0.559,0.509l-0.559,0.505l-0.557,0.501l-0.557,0.497l-0.557,0.494l-0.556,0.489l-0.555,0.486l-0.555,0.482l-0.556,0.478l-0.555,0.475l-0.554,0.469l-0.278,0.235l-0.278,0.232l-0.278,0.232l-0.277,0.231l-0.278,0.23l-0.278,0.229l-0.278,0.227l-0.278,0.227l-0.279,0.226l-0.278,0.225l-0.278,0.224l-0.279,0.223l-0.279,0.222l-0.279,0.221l-0.279,0.22l-0.28,0.218l-0.279,0.218l-0.28,0.217l-0.28,0.216l-0.281,0.215l-0.28,0.214l-0.281,0.213l-0.281,0.211l-0.282,0.211l-0.281,0.21l-0.283,0.209l-0.282,0.207l-0.283,0.207l-0.283,0.206l-0.283,0.204l-0.284,0.204l-0.284,0.202l-0.285,0.202l-0.285,0.2l-0.286,0.2l-0.285,0.198l-0.287,0.197l-0.286,0.197l-0.288,0.195l-0.287,0.194l-0.289,0.193l-0.288,0.192l-0.29,0.191l-0.289,0.19l-0.29,0.189l-0.291,0.187l-0.292,0.187l-0.292,0.185l-0.292,0.185l-0.293,0.183l-0.294,0.183l-0.294,0.181l-0.295,0.18l-0.295,0.179l-0.297,0.178l-0.296,0.177l-0.298,0.175l-0.298,0.175l-0.299,0.173l-0.299,0.173l-0.3,0.171l-0.301,0.17l-0.302,0.169l-0.302,0.168l-0.303,0.167l-0.304,0.166l-0.305,0.164l-0.305,0.164l-0.307,0.162l-0.307,0.161l-0.307,0.16l-0.309,0.159l-0.309,0.157l-0.311,0.157l-0.311,0.155l-0.311,0.154l-0.313,0.153l-0.314,0.152l-0.315,0.151l-0.315,0.15l-0.316,0.148l-0.318,0.147l-0.318,0.146l-0.319,0.145l-0.32,0.144l-0.321,0.142l-0.322,0.142l-0.323,0.14l-0.324,0.139l-0.325,0.138l-0.326,0.136l-0.327,0.136l-0.328,0.134l-0.329,0.133l-0.33,0.132l-0.331,0.13l-0.332,0.13l-0.333,0.128l-0.334,0.127l-0.336,0.125l-0.336,0.125l-0.338,0.123l-0.338,0.122l-0.34,0.121l-0.341,0.12l-0.342,0.118l-0.343,0.118l-0.345,0.116l-0.345,0.114l-0.347,0.114l-0.348,0.112l-0.349,0.111l-0.351,0.11l-0.351,0.109l-0.353,0.107l-0.354,0.106l-0.356,0.105l-0.356,0.103l-0.358,0.103l-0.359,0.101l-0.361,0.1l-0.361,0.098l-0.363,0.098l-0.365,0.096l-0.365,0.095l-0.367,0.093l-0.369,0.093l-0.37,0.091l-0.371,0.09l-0.372,0.088l-0.374,0.088l-0.375,0.086l-0.377,0.084l-0.378,0.084l-0.38,0.082l-0.381,0.081l-0.382,0.08l-0.384,0.078l-0.385,0.077l-0.387,0.076l-0.388,0.075l-0.39,0.073l-0.392,0.072l-0.392,0.071l-0.395,0.07l-0.396,0.068l-0.397,0.067l-0.399,0.066l-0.401,0.064l-0.402,0.063l-0.404,0.062l-0.405,0.061l-0.407,0.059l-0.409,0.058l-0.41,0.056l-0.412,0.056l-0.413,0.054l-0.416,0.053l-0.417,0.051l-0.418,0.051l-0.42,0.049l-0.422,0.047l-0.424,0.047l-0.426,0.045l-0.427,0.044l-0.429,0.042l-0.43,0.041l-0.433,0.04l-0.434,0.039l-0.436,0.037l-0.438,0.036l-0.44,0.035l-0.441,0.033l-0.444,0.032l-0.445,0.031l-0.447,0.03l-0.449,0.028l-0.451,0.027l-0.452,0.026l-0.455,0.024l-0.457,0.023l-0.458,0.021l-0.461,0.021l-0.462,0.019l-0.464,0.018l-0.466,0.016l-0.469,0.015l-0.47,0.014l-0.472,0.013l-0.475,0.011l-0.476,0.01l-0.478,0.008l-0.481,0.008l-0.482,0.005l-0.485,0.005l-0.487,0.003l-0.488,0.002l-0.491,0.001l-0.349,0l-0.348,-0.002l-0.348,-0.002l-0.347,-0.004l-0.348,-0.004l-0.346,-0.006l-0.347,-0.006l-0.346,-0.007l-0.346,-0.009l-0.346,-0.009l-0.345,-0.01l-0.345,-0.011l-0.344,-0.013l-0.345,-0.013l-0.344,-0.014l-0.343,-0.015l-0.343,-0.016l-0.343,-0.017l-0.342,-0.018l-0.343,-0.019l-0.342,-0.02l-0.341,-0.02l-0.341,-0.022l-0.341,-0.023l-0.34,-0.024l-0.34,-0.024l-0.34,-0.026l-0.339,-0.026l-0.339,-0.028l-0.339,-0.028l-0.338,-0.029l-0.338,-0.031l-0.337,-0.031l-0.337,-0.032l-0.337,-0.033l-0.336,-0.034l-0.336,-0.035l-0.336,-0.036l-0.335,-0.037l-0.335,-0.038l-0.335,-0.038l-0.334,-0.04l-0.333,-0.04l-0.334,-0.042l-0.333,-0.042l-0.332,-0.043l-0.333,-0.044l-0.331,-0.046l-0.332,-0.046l-0.331,-0.046l-0.33,-0.048l-0.331,-0.049l-0.33,-0.05l-0.329,-0.05l-0.329,-0.052l-0.329,-0.052l-0.328,-0.053l-0.328,-0.054l-0.327,-0.055l-0.327,-0.056l-0.327,-0.057l-0.326,-0.058l-0.326,-0.059l-0.325,-0.059l-0.325,-0.061l-0.325,-0.061l-0.324,-0.062l-0.324,-0.063l-0.323,-0.064l-0.323,-0.065l-0.322,-0.066l-0.322,-0.066l-0.322,-0.068l-0.321,-0.068l-0.321,-0.07l-0.321,-0.07l-0.319,-0.071l-0.32,-0.072l-0.319,-0.072l-0.319,-0.074l-0.318,-0.074l-0.318,-0.076l-0.317,-0.076l-0.317,-0.077l-0.316,-0.078l-0.316,-0.079l-0.316,-0.079l-0.315,-0.081l-0.315,-0.081l-0.314,-0.082l-0.314,-0.083l-0.313,-0.084l-0.313,-0.085l-0.312,-0.086l-0.312,-0.086l-0.312,-0.087l-0.311,-0.089l-0.31,-0.089l-0.31,-0.089l-0.31,-0.091l-0.309,-0.092l-0.309,-0.092l-0.308,-0.093l-0.308,-0.094l-0.307,-0.095l-0.307,-0.096l-0.307,-0.096l-0.306,-0.097l-0.305,-0.099l-0.305,-0.098l-0.304,-0.1l-0.304,-0.101l-0.304,-0.101l-0.303,-0.103l-0.303,-0.103l-0.302,-0.104l-0.301,-0.104l-0.301,-0.106l-0.301,-0.106l-0.3,-0.107l-0.3,-0.108l-0.299,-0.109l-0.299,-0.109l-0.298,-0.111l-0.298,-0.111l-0.297,-0.112l-0.296,-0.113l-0.297,-0.113l-0.295,-0.114l-0.295,-0.116l-0.295,-0.116l-0.294,-0.116l-0.294,-0.118l-0.293,-0.118l-0.293,-0.119l-0.292,-0.12l-0.291,-0.121l-0.291,-0.121l-0.291,-0.122l-0.29,-0.123l-0.29,-0.124l-0.289,-0.125l-0.288,-0.125l-0.288,-0.126l-0.288,-0.127l-0.286,-0.128l-0.287,-0.128l-0.286,-0.129l-0.285,-0.13l-0.285,-0.131l-0.284,-0.131l-0.284,-0.133l-0.283,-0.133l-0.283,-0.133l-0.282,-0.135l-0.281,-0.135l-0.281,-0.136l-0.281,-0.137l-0.28,-0.138l-0.279,-0.138l-0.279,-0.139l-0.279,-0.14l-0.277,-0.14l-0.278,-0.141l-0.276,-0.142l-0.276,-0.143l-0.276,-0.144l-0.275,-0.144l-0.274,-0.145l-0.274,-0.146l-0.274,-0.146l-0.272,-0.147l-0.272,-0.148l-0.272,-0.149l-0.271,-0.149l-0.271,-0.15l-0.27,-0.151l-0.269,-0.152l-0.269,-0.152l-0.268,-0.153l-0.268,-0.153l-0.267,-0.155l-0.266,-0.155l-0.266,-0.156l-0.265,-0.156l-0.265,-0.158l-0.264,-0.158l-0.264,-0.158l-0.263,-0.16l-0.262,-0.16l-0.262,-0.161l-0.261,-0.161l-0.261,-0.162l-0.26,-0.163l-0.259,-0.164l-0.259,-0.164l-0.258,-0.165l-0.258,-0.166l-0.257,-0.166l-0.257,-0.167l-0.255,-0.168l-0.256,-0.168l-0.254,-0.169l-0.254,-0.17l-0.254,-0.171l-0.253,-0.171l-0.252,-0.172l-0.251,-0.172l-0.251,-0.174l-0.251,-0.173l-0.249,-0.175l-0.25,-0.175l-0.248,-0.176l-0.248,-0.177l-0.247,-0.177l-0.247,-0.178l-0.246,-0.178l-0.245,-0.18l-0.245,-0.18l-0.244,-0.18l-0.244,-0.181l-0.243,-0.182l-0.242,-0.183l-0.242,-0.183l-0.241,-0.184l-0.24,-0.184l-0.24,-0.185l-0.239,-0.186l-0.238,-0.187l-0.238,-0.187l-0.237,-0.188l-0.236,-0.188l-0.236,-0.189l-0.236,-0.19l-0.234,-0.19l-0.234,-0.191l-0.233,-0.191l-0.233,-0.193l-0.232,-0.192l-0.231,-0.194l-0.231,-0.194l-0.23,-0.195l-0.229,-0.195l-0.229,-0.196l-0.228,-0.197l-0.227,-0.197l-0.226,-0.198l-0.226,-0.198l-0.226,-0.199l-0.224,-0.2l-0.224,-0.2l-0.224,-0.201l-0.222,-0.202l-0.222,-0.202l-0.221,-0.203l-0.221,-0.203l-0.22,-0.204l-0.219,-0.205l-0.219,-0.205l-0.218,-0.206l-0.217,-0.206l-0.216,-0.207l-0.216,-0.208l-0.215,-0.208l-0.214,-0.209l-0.214,-0.209l-0.213,-0.21l-0.213,-0.21l-0.211,-0.212l-0.211,-0.211l-0.21,-0.213l-0.21,-0.213l-0.209,-0.213l-0.208,-0.214l-0.207,-0.215l-0.207,-0.215l-0.206,-0.216l-0.205,-0.216l-0.205,-0.217l-0.204,-0.217l-0.203,-0.219l-0.202,-0.218l-0.202,-0.219l-0.201,-0.22l-0.2,-0.221l-0.2,-0.22l-0.199,-0.222l-0.198,-0.222l-0.197,-0.223l-0.197,-0.223l-0.196,-0.223l-0.195,-0.225l-0.194,-0.224l-0.194,-0.226l-0.193,-0.226l-0.193,-0.226l-0.191,-0.227l-0.191,-0.228l-0.19,-0.228l-0.189,-0.228l-0.189,-0.23l-0.188,-0.229l-0.187,-0.231l-0.186,-0.23l-0.186,-0.232l-0.185,-0.231l-0.184,-0.233l-0.183,-0.233l-0.183,-0.233l-0.182,-0.234l-0.181,-0.235l-0.18,-0.235l-0.18,-0.235l-0.178,-0.236l-0.178,-0.237l-0.178,-0.237l-0.176,-0.238l-0.176,-0.238l-0.175,-0.238l-0.174,-0.239l-0.174,-0.24l-0.172,-0.24l-0.172,-0.241l-0.171,-0.241l-0.171,-0.242l-0.169,-0.242l-0.169,-0.243l-0.168,-0.243l-0.167,-0.244l-0.167,-0.244l-0.166,-0.245l-0.164,-0.245l-0.164,-0.245l-0.164,-0.246l-0.162,-0.247l-0.162,-0.247l-0.161,-0.248l-0.16,-0.248l-0.159,-0.249l-0.159,-0.249l-0.158,-0.249l-0.157,-0.25l-0.156,-0.251l-0.155,-0.251l-0.155,-0.251l-0.154,-0.252l-0.153,-0.253l-0.152,-0.252l-0.151,-0.254l-0.15,-0.254l-0.15,-0.254l-0.149,-0.255l-0.148,-0.255l-0.147,-0.255l-0.147,-0.257l-0.145,-0.256l-0.145,-0.257l-0.144,-0.258l-0.143,-0.258l-0.143,-0.258l-0.141,-0.259l-0.141,-0.259l-0.14,-0.26l-0.139,-0.26l-0.138,-0.261l-0.137,-0.261l-0.137,-0.261l-0.135,-0.262l-0.135,-0.263l-0.134,-0.262l-0.133,-0.264l-0.133,-0.263l-0.131,-0.264l-0.131,-0.265l-0.129,-0.265l-0.129,-0.265l-0.128,-0.266l-0.128,-0.266l-0.126,-0.267l-0.125,-0.267l-0.125,-0.268l-0.124,-0.268l-0.123,-0.268l-0.122,-0.269l-0.121,-0.269l-0.121,-0.269l-0.119,-0.27l-0.119,-0.271l-0.117,-0.271l-0.117,-0.271l-0.116,-0.272l-0.116,-0.272l-0.114,-0.272l-0.113,-0.273l-0.113,-0.273l-0.111,-0.274l-0.111,-0.274l-0.11,-0.274l-0.109,-0.275l-0.108,-0.275l-0.108,-0.275l-0.106,-0.276l-0.105,-0.277l-0.105,-0.276l-0.104,-0.278l-0.103,-0.277l-0.102,-0.278l-0.101,-0.278l-0.1,-0.279l-0.099,-0.279l-0.098,-0.279l-0.098,-0.28l-0.096,-0.28l-0.096,-0.28l-0.095,-0.281l-0.094,-0.281l-0.093,-0.282l-0.092,-0.282l-0.091,-0.282l-0.09,-0.283l-0.089,-0.283l-0.089,-0.283l-0.087,-0.284l-0.087,-0.284l-0.085,-0.284l-0.085,-0.285l-0.084,-0.285l-0.083,-0.285l-0.082,-0.286l-0.081,-0.286l-0.08,-0.287l-0.079,-0.287l-0.078,-0.287l-0.077,-0.287l-0.077,-0.288l-0.075,-0.288l-0.075,-0.289l-0.073,-0.288l-0.073,-0.29l-0.072,-0.289l-0.07,-0.29l-0.07,-0.29l-0.069,-0.29l-0.068,-0.291l-0.067,-0.291l-0.066,-0.291l-0.065,-0.292l-0.064,-0.292l-0.064,-0.292l-0.062,-0.293l-0.061,-0.293l-0.06,-0.293l-0.06,-0.294l-0.058,-0.294l-0.058,-0.294l-0.056,-0.294l-0.056,-0.295l-0.054,-0.295l-0.054,-0.295l-0.053,-0.296l-0.051,-0.296l-0.051,-0.296l-0.05,-0.297l-0.048,-0.296l-0.048,-0.297l-0.047,-0.298l-0.046,-0.297l-0.045,-0.298l-0.044,-0.299l-0.043,-0.298l-0.042,-0.299l-0.04,-0.299l-0.04,-0.299l-0.039,-0.3l-0.038,-0.299l-0.037,-0.301l-0.036,-0.3l-0.035,-0.301l-0.034,-0.3l-0.033,-0.302l-0.033,-0.301l-0.031,-0.302l-0.03,-0.302l-0.029,-0.302l-0.028,-0.302l-0.027,-0.303l-0.026,-0.303l-0.025,-0.303l-0.024,-0.303l-0.023,-0.304l-0.022,-0.304l-0.021,-0.304l-0.02,-0.305l-0.019,-0.304l-0.018,-0.305l-0.017,-0.305l-0.016,-0.305l-0.015,-0.306l-0.013,-0.306l-0.013,-0.306l-0.012,-0.306l-0.011,-0.307l-0.01,-0.306l-0.009,-0.307l-0.007,-0.307l-0.007,-0.308l-0.006,-0.307l-0.004,-0.308l-0.004,-0.308l-0.003,-0.308l-0.001,-0.309l-0.001,-0.307l0.001,-0.848l0.002,-0.84l0.003,-0.833l0.004,-0.825l0.006,-0.818l0.007,-0.811l0.009,-0.804l0.01,-0.797l0.011,-0.79l0.014,-0.784l0.014,-0.777l0.017,-0.771l0.018,-0.765l0.02,-0.759l0.021,-0.752l0.024,-0.747l0.025,-0.74l0.027,-0.735l0.03,-0.729l0.031,-0.724l0.033,-0.718l0.035,-0.713l0.038,-0.708l0.039,-0.703l0.042,-0.697l0.044,-0.693l0.046,-0.688l0.049,-0.683l0.051,-0.679l0.054,-0.674l0.056,-0.669l0.058,-0.666l0.061,-0.661l0.064,-0.656l0.033,-0.328l0.033,-0.327l0.034,-0.325l0.035,-0.324l0.036,-0.323l0.036,-0.322l0.037,-0.322l0.038,-0.32l0.038,-0.32l0.039,-0.319l0.04,-0.318l0.04,-0.317l0.041,-0.316l0.042,-0.315l0.043,-0.314l0.044,-0.314l0.044,-0.313l0.045,-0.312l0.046,-0.311l0.046,-0.311l0.047,-0.31l0.048,-0.309l0.049,-0.308l0.05,-0.308l0.05,-0.307l0.052,-0.306l0.052,-0.306l0.053,-0.305l0.053,-0.304l0.055,-0.304l0.055,-0.303l0.056,-0.302l0.057,-0.302l0.058,-0.301l0.059,-0.301l0.059,-0.3l0.061,-0.299l0.061,-0.299l0.062,-0.298l0.063,-0.298l0.064,-0.297l0.065,-0.297l0.066,-0.297l0.067,-0.295l0.067,-0.296l0.069,-0.295l0.069,-0.294l0.07,-0.294l0.071,-0.294l0.072,-0.293l0.073,-0.293l0.074,-0.292l0.075,-0.293l0.076,-0.291l0.077,-0.292l0.078,-0.29l0.079,-0.291l0.079,-0.29l0.081,-0.29l0.082,-0.29l0.082,-0.29l0.084,-0.289l0.085,-0.289l0.085,-0.288l0.087,-0.289l0.088,-0.288l0.088,-0.288l0.09,-0.287l0.091,-0.288l0.091,-0.287l0.093,-0.287l0.094,-0.287l0.095,-0.287l0.096,-0.287l0.097,-0.286l0.098,-0.287l0.099,-0.286l0.1,-0.286l0.101,-0.286l0.102,-0.286l0.103,-0.286l0.105,-0.286l0.105,-0.286l0.107,-0.286l0.107,-0.286l0.109,-0.286l0.11,-0.285l0.111,-0.286l0.112,-0.286l0.113,-0.286l0.114,-0.286l0.115,-0.286l0.117,-0.286l0.118,-0.286l0.118,-0.286l0.12,-0.287l0.121,-0.286l0.122,-0.287l0.124,-0.287l0.124,-0.287l0.126,-0.287l0.127,-0.287l0.128,-0.287l0.129,-0.288l0.13,-0.288l0.132,-0.288l0.132,-0.288l0.134,-0.289l0.135,-0.289l0.136,-0.289l0.138,-0.289l0.138,-0.29l0.14,-0.29l0.141,-0.29l0.143,-0.291l0.143,-0.291l0.145,-0.292l0.146,-0.291l0.147,-0.292l0.148,-0.293l0.15,-0.293l0.151,-0.293l0.152,-0.294l0.153,-0.294l0.155,-0.295l0.156,-0.295l0.157,-0.296l0.159,-0.296l0.159,-0.297l0.161,-0.297l0.163,-0.298l0.163,-0.298l0.165,-0.299l0.166,-0.3l0.168,-0.3l0.169,-0.3l0.17,-0.302l0.171,-0.302l0.173,-0.302l0.174,-0.303l0.175,-0.304l0.177,-0.305l0.178,-0.305l0.18,-0.306l0.18,-0.307l0.183,-0.307l0.183,-0.308l0.185,-0.309l0.186,-0.31l0.188,-0.312l0.379,-0.622l0.385,-0.626l0.39,-0.63l0.396,-0.634l0.402,-0.637l0.407,-0.641l0.413,-0.645l0.419,-0.649l0.425,-0.652l0.43,-0.657l0.437,-0.662l0.442,-0.665l0.449,-0.67l0.454,-0.675l0.46,-0.679l0.467,-0.684l0.473,-0.689l0.478,-0.694l0.489,-0.704l0.274,-0.39l0.274,-0.386l0.274,-0.384l0.276,-0.382l0.278,-0.381l0.278,-0.379l0.279,-0.377l0.281,-0.376l0.282,-0.374l0.283,-0.372l0.284,-0.37l0.286,-0.369l0.286,-0.368l0.288,-0.365l0.288,-0.364l0.29,-0.362l0.291,-0.361l0.292,-0.359l0.293,-0.357l0.295,-0.355l0.295,-0.354l0.296,-0.352l0.298,-0.351l0.298,-0.349l0.3,-0.347l0.301,-0.346l0.301,-0.344l0.303,-0.342l0.304,-0.34l0.304,-0.339l0.306,-0.338l0.307,-0.335l0.308,-0.334l0.308,-0.333l0.31,-0.33l0.311,-0.329l0.312,-0.328l0.312,-0.326l0.314,-0.324l0.314,-0.322l0.316,-0.321l0.316,-0.319l0.318,-0.318l0.318,-0.316l0.319,-0.314l0.32,-0.312l0.321,-0.311l0.322,-0.31l0.323,-0.308l0.323,-0.306l0.325,-0.304l0.325,-0.303l0.326,-0.301l0.327,-0.3l0.328,-0.298l0.329,-0.296l0.33,-0.295l0.33,-0.293l0.331,-0.292l0.332,-0.289l0.333,-0.289l0.334,-0.286l0.334,-0.285l0.335,-0.284l0.336,-0.282l0.337,-0.28l0.337,-0.279l0.339,-0.277l0.338,-0.275l0.34,-0.274l0.341,-0.272l0.341,-0.271l0.342,-0.269l0.342,-0.267l0.344,-0.266l0.344,-0.264l0.344,-0.263l0.346,-0.261l0.346,-0.259l0.346,-0.258l0.348,-0.256l0.348,-0.255l0.348,-0.253l0.35,-0.251l0.35,-0.25l0.35,-0.249l0.351,-0.246l0.352,-0.246l0.352,-0.243l0.353,-0.242l0.354,-0.241l0.354,-0.239l0.355,-0.237l0.355,-0.236l0.356,-0.234l0.357,-0.232l0.357,-0.231l0.357,-0.23l0.358,-0.228l0.359,-0.226l0.359,-0.225l0.36,-0.223l0.36,-0.222l0.36,-0.22l0.362,-0.219l0.361,-0.217l0.362,-0.215l0.363,-0.214l0.363,-0.212l0.364,-0.211l0.364,-0.21l0.364,-0.207l0.365,-0.207l0.365,-0.204l0.366,-0.203l0.366,-0.202l0.367,-0.2l0.367,-0.198l0.367,-0.197l0.368,-0.196l0.368,-0.194l0.368,-0.192l0.369,-0.191l0.37,-0.189l0.369,-0.188l0.37,-0.187l0.371,-0.184l0.37,-0.184l0.371,-0.181l0.372,-0.181l0.371,-0.178l0.372,-0.178l0.372,-0.175l0.373,-0.174l0.373,-0.173l0.373,-0.171l0.373,-0.17l0.374,-0.168l0.374,-0.167l0.374,-0.165l0.375,-0.164l0.374,-0.162l0.375,-0.16l0.376,-0.159l0.375,-0.158l0.376,-0.156l0.375,-0.155l0.376,-0.153l0.377,-0.152l0.376,-0.15l0.377,-0.149l0.376,-0.147l0.377,-0.146l0.377,-0.144l0.378,-0.143l0.377,-0.141l0.378,-0.14l0.377,-0.139l0.378,-0.136l0.378,-0.136l0.378,-0.134l0.378,-0.132l0.379,-0.131l0.378,-0.13l0.379,-0.128l0.378,-0.127l0.379,-0.125l0.378,-0.124l0.379,-0.122l0.379,-0.121l0.379,-0.119l0.379,-0.118l0.379,-0.116l0.379,-0.115l0.379,-0.114l0.379,-0.112l0.379,-0.111l0.379,-0.109l0.379,-0.108l0.379,-0.106l0.379,-0.105l0.379,-0.103l0.379,-0.102l0.379,-0.101l0.379,-0.099l0.379,-0.097l0.378,-0.097l0.379,-0.095l0.379,-0.093l0.378,-0.092l0.379,-0.09l0.378,-0.09l0.379,-0.087l0.378,-0.087l0.378,-0.084l0.378,-0.084l0.378,-0.082l0.378,-0.08l0.377,-0.08l0.378,-0.077l0.377,-0.077l0.377,-0.075l0.377,-0.073l0.377,-0.072l0.377,-0.071l0.376,-0.069l0.376,-0.068l0.377,-0.067l0.375,-0.065l0.376,-0.063l0.376,-0.063l0.375,-0.061l0.375,-0.059l0.375,-0.058l0.374,-0.057l0.375,-0.055l0.374,-0.054l0.374,-0.053l0.373,-0.051l0.373,-0.05l0.374,-0.048l0.372,-0.047l0.373,-0.046l0.372,-0.044l0.372,-0.043l0.371,-0.041l0.371,-0.04l0.371,-0.039l0.371,-0.037l0.37,-0.036l0.37,-0.035l0.37,-0.033l0.369,-0.032l0.369,-0.03l0.368,-0.029l0.368,-0.028l0.368,-0.027l0.367,-0.025l0.367,-0.023l0.367,-0.023l0.366,-0.02l0.365,-0.02l0.366,-0.018l0.365,-0.017l0.364,-0.016l0.364,-0.014l0.363,-0.013l0.364,-0.011l0.362,-0.01l0.362,-0.009l0.362,-0.007l0.361,-0.006l0.361,-0.005l0.36,-0.003l0.36,-0.002l0.358,-0.001l1.339,0.003l1.325,0.009l1.313,0.015l1.303,0.022l1.291,0.029l1.28,0.036l1.27,0.043l1.259,0.051l1.25,0.06l1.24,0.067l1.231,0.077l1.222,0.085l1.213,0.095l0.603,0.051l0.602,0.053l0.599,0.056l0.597,0.059l0.596,0.061l0.593,0.063l0.592,0.066l0.589,0.069l0.588,0.072l0.586,0.074l0.585,0.077l1.163,0.163l1.157,0.174l1.151,0.187l1.145,0.198l1.139,0.211l1.133,0.224l1.128,0.237l1.123,0.25l0.839,0.197l0.836,0.205l0.834,0.212l0.832,0.221l0.829,0.229l0.827,0.237l0.825,0.246l0.823,0.254l0.821,0.263l0.819,0.272l0.817,0.281l0.816,0.289l0.814,0.299l0.813,0.308l0.812,0.318l0.81,0.327l0.809,0.337l0.808,0.346l0.807,0.356l0.806,0.366l0.806,0.376l0.805,0.386l0.804,0.397l0.804,0.406l0.803,0.417l0.803,0.428l0.803,0.438l0.803,0.449l0.804,0.46l0.803,0.471l0.804,0.482l0.804,0.493l0.804,0.504l0.805,0.516l0.806,0.527l0.807,0.538l0.808,0.55l0.809,0.562l0.81,0.574l0.812,0.586l0.813,0.598l0.814,0.609l0.817,0.623l0.816,0.633l0,-6.975l42.774,0l0,151.854l0.017,0.137Zm-111.096,-159.538l-0.337,0.002l-0.338,0.003l-0.338,0.004l-0.339,0.006l-0.34,0.007l-0.34,0.008l-0.34,0.009l-0.342,0.011l-0.341,0.012l-0.342,0.013l-0.343,0.015l-0.342,0.016l-0.344,0.017l-0.344,0.018l-0.344,0.02l-0.345,0.021l-0.345,0.022l-0.346,0.024l-0.346,0.025l-0.346,0.026l-0.347,0.027l-0.347,0.029l-0.348,0.03l-0.348,0.031l-0.349,0.033l-0.348,0.034l-0.35,0.035l-0.349,0.036l-0.35,0.038l-0.35,0.039l-0.351,0.041l-0.351,0.041l-0.351,0.043l-0.351,0.045l-0.352,0.045l-0.352,0.047l-0.353,0.048l-0.353,0.05l-0.353,0.051l-0.353,0.052l-0.354,0.054l-0.353,0.054l-0.355,0.057l-0.354,0.057l-0.354,0.059l-0.355,0.06l-0.355,0.062l-0.356,0.062l-0.355,0.065l-0.356,0.065l-0.356,0.067l-0.356,0.068l-0.356,0.069l-0.357,0.071l-0.356,0.072l-0.357,0.074l-0.357,0.075l-0.357,0.076l-0.357,0.077l-0.358,0.079l-0.357,0.081l-0.358,0.081l-0.358,0.083l-0.358,0.084l-0.358,0.086l-0.358,0.087l-0.358,0.088l-0.358,0.09l-0.358,0.091l-0.359,0.093l-0.358,0.093l-0.359,0.095l-0.359,0.097l-0.358,0.098l-0.359,0.099l-0.359,0.101l-0.358,0.102l-0.359,0.103l-0.359,0.105l-0.359,0.106l-0.358,0.107l-0.359,0.109l-0.359,0.11l-0.359,0.112l-0.358,0.113l-0.359,0.114l-0.358,0.116l-0.359,0.117l-0.358,0.119l-0.359,0.12l-0.358,0.121l-0.359,0.123l-0.358,0.124l-0.358,0.125l-0.358,0.127l-0.358,0.128l-0.358,0.13l-0.357,0.131l-0.358,0.132l-0.357,0.134l-0.357,0.135l-0.358,0.137l-0.357,0.138l-0.356,0.14l-0.357,0.14l-0.357,0.143l-0.356,0.143l-0.356,0.145l-0.356,0.147l-0.356,0.148l-0.355,0.149l-0.355,0.151l-0.356,0.152l-0.354,0.154l-0.355,0.155l-0.354,0.156l-0.355,0.158l-0.354,0.159l-0.353,0.161l-0.354,0.162l-0.353,0.163l-0.353,0.165l-0.352,0.167l-0.352,0.168l-0.352,0.169l-0.352,0.171l-0.351,0.172l-0.351,0.173l-0.351,0.175l-0.35,0.177l-0.35,0.178l-0.35,0.179l-0.35,0.181l-0.348,0.182l-0.349,0.183l-0.348,0.186l-0.348,0.186l-0.348,0.188l-0.347,0.189l-0.347,0.191l-0.346,0.193l-0.346,0.194l-0.345,0.195l-0.345,0.196l-0.345,0.199l-0.344,0.199l-0.344,0.201l-0.343,0.203l-0.343,0.204l-0.342,0.205l-0.342,0.207l-0.342,0.209l-0.341,0.21l-0.34,0.211l-0.34,0.213l-0.34,0.214l-0.338,0.216l-0.339,0.217l-0.338,0.219l-0.337,0.22l-0.337,0.221l-0.336,0.224l-0.336,0.224l-0.335,0.226l-0.335,0.228l-0.334,0.229l-0.334,0.23l-0.333,0.233l-0.332,0.233l-0.332,0.235l-0.331,0.237l-0.33,0.238l-0.33,0.239l-0.33,0.241l-0.328,0.243l-0.329,0.244l-0.327,0.245l-0.327,0.247l-0.326,0.249l-0.325,0.25l-0.325,0.251l-0.324,0.253l-0.324,0.255l-0.323,0.256l-0.322,0.257l-0.321,0.259l-0.321,0.261l-0.32,0.262l-0.319,0.263l-0.319,0.266l-0.318,0.266l-0.317,0.268l-0.316,0.27l-0.316,0.271l-0.315,0.273l-0.314,0.274l-0.313,0.276l-0.313,0.277l-0.311,0.279l-0.311,0.281l-0.311,0.281l-0.309,0.284l-0.309,0.285l-0.307,0.286l-0.307,0.288l-0.307,0.29l-0.305,0.291l-0.304,0.293l-0.304,0.294l-0.303,0.296l-0.302,0.297l-0.301,0.299l-0.3,0.301l-0.3,0.302l-0.298,0.303l-0.298,0.305l-0.296,0.307l-0.296,0.308l-0.295,0.31l-0.294,0.311l-0.293,0.313l-0.292,0.314l-0.291,0.316l-0.291,0.318l-0.289,0.319l-0.288,0.321l-0.288,0.322l-0.286,0.324l-0.286,0.326l-0.284,0.327l-0.284,0.328l-0.282,0.33l-0.282,0.332l-0.28,0.334l-0.28,0.335l-0.278,0.336l-0.278,0.338l-0.276,0.34l-0.276,0.341l-0.274,0.343l-0.273,0.345l-0.273,0.346l-0.271,0.347l-0.27,0.35l-0.269,0.351l-0.268,0.352l-0.267,0.354l-0.266,0.356l-0.265,0.357l-0.264,0.359l-0.262,0.361l-0.261,0.362l-0.261,0.364l-0.259,0.365l-0.256,0.364l-0.473,0.682l-0.47,0.681l-0.464,0.676l-0.457,0.67l-0.45,0.665l-0.445,0.66l-0.438,0.655l-0.432,0.65l-0.426,0.645l-0.419,0.64l-0.414,0.636l-0.407,0.631l-0.402,0.626l-0.395,0.623l-0.39,0.618l-0.384,0.614l-0.378,0.61l-0.372,0.606l-0.367,0.603l-0.18,0.298l-0.18,0.299l-0.178,0.298l-0.177,0.297l-0.175,0.296l-0.174,0.295l-0.173,0.294l-0.171,0.294l-0.17,0.292l-0.168,0.292l-0.167,0.291l-0.166,0.29l-0.164,0.29l-0.163,0.288l-0.162,0.288l-0.16,0.287l-0.159,0.287l-0.157,0.285l-0.157,0.285l-0.155,0.284l-0.153,0.284l-0.153,0.283l-0.151,0.282l-0.149,0.282l-0.149,0.281l-0.147,0.28l-0.146,0.28l-0.144,0.279l-0.144,0.279l-0.142,0.278l-0.14,0.278l-0.14,0.277l-0.138,0.276l-0.137,0.276l-0.136,0.275l-0.135,0.275l-0.133,0.275l-0.132,0.274l-0.131,0.274l-0.13,0.273l-0.128,0.273l-0.128,0.272l-0.126,0.272l-0.125,0.272l-0.124,0.271l-0.122,0.271l-0.122,0.27l-0.12,0.271l-0.119,0.269l-0.118,0.27l-0.117,0.27l-0.116,0.269l-0.115,0.269l-0.113,0.268l-0.112,0.269l-0.112,0.268l-0.11,0.268l-0.109,0.268l-0.108,0.267l-0.107,0.268l-0.106,0.267l-0.104,0.268l-0.104,0.267l-0.103,0.267l-0.101,0.267l-0.101,0.267l-0.099,0.267l-0.099,0.267l-0.097,0.266l-0.096,0.267l-0.096,0.267l-0.094,0.267l-0.093,0.267l-0.093,0.267l-0.091,0.267l-0.09,0.267l-0.09,0.267l-0.088,0.267l-0.087,0.268l-0.087,0.267l-0.085,0.268l-0.085,0.268l-0.083,0.268l-0.083,0.268l-0.082,0.269l-0.08,0.268l-0.08,0.269l-0.079,0.27l-0.078,0.269l-0.077,0.27l-0.076,0.27l-0.075,0.27l-0.075,0.271l-0.073,0.271l-0.073,0.271l-0.072,0.272l-0.07,0.272l-0.07,0.273l-0.069,0.273l-0.069,0.273l-0.067,0.274l-0.066,0.275l-0.066,0.275l-0.065,0.275l-0.064,0.276l-0.063,0.276l-0.062,0.277l-0.062,0.277l-0.061,0.278l-0.06,0.279l-0.059,0.279l-0.058,0.28l-0.058,0.28l-0.056,0.281l-0.056,0.282l-0.055,0.282l-0.055,0.283l-0.053,0.284l-0.053,0.284l-0.052,0.286l-0.052,0.286l-0.05,0.286l-0.05,0.288l-0.049,0.288l-0.048,0.289l-0.048,0.289l-0.047,0.291l-0.046,0.292l-0.046,0.292l-0.044,0.293l-0.044,0.294l-0.044,0.295l-0.042,0.296l-0.042,0.296l-0.042,0.298l-0.04,0.299l-0.04,0.299l-0.039,0.301l-0.039,0.301l-0.038,0.303l-0.037,0.303l-0.036,0.305l-0.036,0.306l-0.035,0.306l-0.035,0.308l-0.034,0.309l-0.033,0.31l-0.033,0.311l-0.032,0.312l-0.031,0.311l-0.062,0.632l-0.058,0.635l-0.056,0.639l-0.054,0.645l-0.052,0.649l-0.049,0.654l-0.047,0.66l-0.045,0.665l-0.042,0.671l-0.041,0.676l-0.038,0.681l-0.037,0.687l-0.034,0.694l-0.032,0.699l-0.031,0.705l-0.028,0.711l-0.027,0.717l-0.024,0.724l-0.023,0.73l-0.021,0.737l-0.02,0.743l-0.018,0.751l-0.016,0.756l-0.014,0.764l-0.013,0.771l-0.012,0.778l-0.01,0.785l-0.008,0.793l-0.007,0.8l-0.006,0.808l-0.004,0.815l-0.003,0.823l-0.002,0.83l-0.001,0.837l0.005,0.866l0.013,0.863l0.021,0.861l0.031,0.859l0.039,0.857l0.047,0.855l0.056,0.853l0.065,0.85l0.073,0.849l0.081,0.846l0.09,0.844l0.098,0.842l0.106,0.84l0.115,0.837l0.123,0.835l0.131,0.833l0.139,0.83l0.147,0.828l0.156,0.825l0.22,1.096l0.234,1.092l0.248,1.087l0.263,1.082l0.276,1.077l0.29,1.073l0.305,1.067l0.318,1.063l0.331,1.057l0.346,1.052l0.358,1.047l0.373,1.041l0.385,1.036l0.399,1.03l0.413,1.024l0.425,1.018l0.438,1.013l0.452,1.007l0.464,1l0.477,0.995l0.49,0.988l0.503,0.982l0.515,0.975l0.528,0.969l0.54,0.963l0.552,0.955l0.565,0.949l0.577,0.942l0.589,0.935l0.601,0.928l0.613,0.921l0.625,0.914l0.637,0.906l0.648,0.899l0.66,0.892l0.672,0.883l0.683,0.877l0.695,0.868l0.705,0.86l0.717,0.853l0.729,0.844l0.739,0.836l0.75,0.828l0.762,0.82l0.772,0.811l0.783,0.803l0.793,0.794l0.804,0.786l0.815,0.776l0.825,0.768l0.835,0.759l0.846,0.749l0.856,0.741l0.866,0.731l0.876,0.721l0.886,0.713l0.896,0.703l0.906,0.693l0.915,0.683l0.925,0.674l0.935,0.663l0.944,0.654l0.954,0.643l0.962,0.634l0.972,0.623l0.982,0.612l0.99,0.602l0.999,0.592l1.008,0.581l1.017,0.57l1.026,0.559l1.034,0.549l1.043,0.537l1.052,0.526l1.059,0.515l1.069,0.504l1.076,0.492l1.085,0.48l1.092,0.469l1.101,0.458l0.831,0.335l0.835,0.329l0.84,0.321l0.844,0.316l0.848,0.308l0.852,0.301l0.857,0.295l0.861,0.288l0.866,0.281l0.869,0.273l0.873,0.267l0.878,0.26l0.882,0.252l0.886,0.246l0.889,0.238l0.894,0.231l0.897,0.224l0.902,0.216l0.905,0.21l0.909,0.201l0.913,0.195l0.917,0.187l0.92,0.179l0.925,0.172l0.927,0.164l0.932,0.157l0.935,0.149l0.938,0.141l0.942,0.133l0.946,0.126l0.949,0.118l0.952,0.11l0.956,0.102l0.959,0.094l0.962,0.087l0.966,0.078l0.969,0.07l0.972,0.062l0.976,0.054l0.978,0.046l0.982,0.037l0.984,0.029l0.988,0.021l0.991,0.013l0.994,0.004l0.474,-0.001l0.473,-0.002l0.47,-0.003l0.468,-0.004l0.466,-0.006l0.464,-0.007l0.461,-0.008l0.459,-0.01l0.457,-0.011l0.455,-0.012l0.453,-0.013l0.451,-0.014l0.448,-0.016l0.447,-0.017l0.444,-0.019l0.443,-0.019l0.44,-0.021l0.438,-0.022l0.436,-0.023l0.434,-0.025l0.432,-0.026l0.43,-0.027l0.428,-0.028l0.426,-0.03l0.424,-0.03l0.423,-0.032l0.42,-0.033l0.418,-0.035l0.416,-0.035l0.415,-0.037l0.412,-0.038l0.411,-0.04l0.408,-0.04l0.407,-0.042l0.405,-0.043l0.403,-0.044l0.402,-0.045l0.399,-0.047l0.398,-0.048l0.395,-0.048l0.394,-0.051l0.393,-0.051l0.39,-0.052l0.389,-0.054l0.387,-0.055l0.385,-0.056l0.384,-0.058l0.382,-0.058l0.38,-0.06l0.378,-0.061l0.377,-0.062l0.375,-0.063l0.374,-0.064l0.372,-0.066l0.37,-0.066l0.369,-0.068l0.367,-0.069l0.365,-0.071l0.364,-0.071l0.362,-0.073l0.361,-0.073l0.36,-0.075l0.357,-0.076l0.356,-0.077l0.355,-0.079l0.354,-0.079l0.351,-0.081l0.351,-0.082l0.349,-0.083l0.347,-0.084l0.346,-0.085l0.345,-0.087l0.343,-0.087l0.342,-0.089l0.34,-0.09l0.339,-0.091l0.338,-0.092l0.337,-0.093l0.335,-0.094l0.334,-0.096l0.332,-0.096l0.332,-0.098l0.33,-0.099l0.328,-0.1l0.328,-0.101l0.326,-0.102l0.325,-0.104l0.324,-0.104l0.323,-0.106l0.321,-0.107l0.321,-0.108l0.319,-0.109l0.318,-0.11l0.317,-0.111l0.316,-0.112l0.315,-0.114l0.313,-0.114l0.313,-0.116l0.311,-0.117l0.311,-0.118l0.309,-0.119l0.309,-0.12l0.307,-0.121l0.307,-0.123l0.305,-0.123l0.305,-0.125l0.303,-0.125l0.303,-0.127l0.301,-0.128l0.301,-0.129l0.3,-0.13l0.299,-0.132l0.298,-0.132l0.297,-0.133l0.297,-0.135l0.295,-0.136l0.295,-0.136l0.294,-0.138l0.293,-0.139l0.292,-0.14l0.292,-0.141l0.29,-0.143l0.29,-0.143l0.29,-0.145l0.288,-0.145l0.288,-0.147l0.287,-0.148l0.287,-0.148l0.286,-0.15l0.285,-0.152l0.284,-0.152l0.284,-0.153l0.283,-0.154l0.283,-0.156l0.282,-0.157l0.281,-0.157l0.281,-0.159l0.281,-0.16l0.279,-0.161l0.28,-0.162l0.278,-0.163l0.278,-0.165l0.278,-0.165l0.277,-0.167l0.277,-0.167l0.276,-0.169l0.276,-0.17l0.275,-0.171l0.275,-0.172l0.275,-0.173l0.274,-0.174l0.273,-0.175l0.274,-0.177l0.273,-0.177l0.272,-0.179l0.272,-0.18l0.272,-0.18l0.272,-0.182l0.271,-0.183l0.271,-0.185l0.271,-0.185l0.27,-0.186l0.27,-0.188l0.27,-0.188l0.27,-0.19l0.269,-0.19l0.269,-0.192l0.269,-0.193l0.269,-0.194l0.269,-0.195l0.268,-0.196l0.268,-0.198l0.269,-0.198l0.267,-0.2l0.268,-0.2l0.268,-0.202l0.268,-0.203l0.267,-0.203l0.268,-0.205l0.267,-0.206l0.267,-0.207l0.267,-0.209l0.268,-0.209l0.267,-0.21l0.267,-0.212l0.267,-0.212l0.267,-0.214l0.267,-0.215l0.267,-0.216l0.268,-0.217l0.267,-0.218l0.267,-0.219l0.268,-0.22l0.267,-0.221l0.268,-0.222l0.267,-0.224l0.268,-0.224l0.267,-0.225l0.537,-0.455l0.537,-0.459l0.537,-0.463l0.539,-0.467l0.539,-0.471l0.54,-0.476l0.541,-0.48l0.543,-0.484l0.543,-0.489l0.545,-0.493l0.546,-0.497l0.548,-0.501l0.55,-0.505l0.551,-0.509l0.552,-0.514l0.555,-0.518l0.557,-0.522l0.558,-0.526l0.561,-0.53l0.563,-0.535l0.565,-0.538l0.567,-0.542l0.57,-0.547l0.572,-0.551l0.575,-0.554l0.578,-0.559l0.581,-0.563l0.583,-0.567l2.827,-2.752l1.706,0.414l1.104,3.3l0.335,0.985l0.339,0.969l0.341,0.953l0.345,0.935l0.347,0.92l0.351,0.903l0.354,0.888l0.358,0.871l0.361,0.855l0.365,0.839l0.369,0.823l0.372,0.808l0.377,0.792l0.38,0.776l0.385,0.762l0.388,0.745l0.393,0.731l0.397,0.715l0.402,0.701l0.406,0.686l0.41,0.671l0.416,0.656l0.42,0.642l0.425,0.628l0.43,0.613l0.435,0.6l0.44,0.586l0.445,0.571l0.451,0.559l0.456,0.545l0.462,0.532l0.467,0.519l0.474,0.506l0.48,0.494l0.485,0.481l0.492,0.469l0.499,0.456l0.505,0.445l0.513,0.434l0.519,0.421l0.527,0.41l0.534,0.399l0.542,0.389l0.55,0.377l0.558,0.366l0.566,0.356l0.575,0.345l0.584,0.336l0.593,0.325l0.602,0.314l0.612,0.305l0.621,0.295l0.631,0.286l0.642,0.275l0.652,0.266l0.662,0.257l0.673,0.247l0.685,0.238l0.695,0.228l0.707,0.219l0.718,0.21l0.73,0.201l0.742,0.191l0.754,0.183l0.766,0.173l0.778,0.164l0.791,0.156l0.804,0.146l0.816,0.138l0.829,0.129l0.842,0.12l0.855,0.112l0.869,0.103l0.882,0.094l0.895,0.086l0.909,0.077l0.923,0.069l0.936,0.061l0.951,0.052l0.964,0.044l0.979,0.036l0.993,0.028l1.007,0.019l1.022,0.012l1.034,0.004l0.252,-0.001l0.25,-0.001l0.25,-0.004l0.25,-0.004l0.251,-0.005l0.25,-0.007l0.25,-0.008l0.251,-0.009l0.25,-0.011l0.251,-0.011l0.25,-0.013l0.251,-0.014l0.251,-0.015l0.25,-0.017l0.251,-0.017l0.251,-0.019l0.251,-0.02l0.25,-0.022l0.251,-0.022l0.251,-0.024l0.251,-0.025l0.251,-0.026l0.251,-0.027l0.251,-0.029l0.251,-0.029l0.251,-0.031l0.251,-0.032l0.251,-0.034l0.251,-0.034l0.251,-0.036l0.25,-0.037l0.251,-0.038l0.251,-0.039l0.251,-0.04l0.251,-0.042l0.251,-0.043l0.25,-0.044l0.251,-0.045l0.251,-0.046l0.25,-0.048l0.251,-0.048l0.25,-0.05l0.251,-0.051l0.25,-0.052l0.25,-0.054l0.25,-0.054l0.251,-0.056l0.25,-0.057l0.25,-0.058l0.249,-0.059l0.25,-0.061l0.25,-0.061l0.25,-0.063l0.249,-0.064l0.25,-0.065l0.249,-0.066l0.249,-0.067l0.249,-0.069l0.249,-0.07l0.249,-0.07l0.249,-0.072l0.248,-0.074l0.249,-0.074l0.248,-0.075l0.248,-0.077l0.248,-0.078l0.248,-0.078l0.248,-0.081l0.248,-0.081l0.247,-0.082l0.247,-0.083l0.247,-0.085l0.247,-0.086l0.247,-0.087l0.247,-0.088l0.246,-0.089l0.246,-0.09l0.247,-0.091l0.245,-0.093l0.246,-0.093l0.246,-0.095l0.245,-0.096l0.245,-0.097l0.245,-0.098l0.244,-0.1l0.245,-0.1l0.244,-0.101l0.244,-0.103l0.244,-0.104l0.243,-0.105l0.244,-0.105l0.243,-0.108l0.242,-0.108l0.243,-0.109l0.242,-0.11l0.242,-0.112l0.242,-0.113l0.242,-0.113l0.241,-0.115l0.241,-0.116l0.241,-0.117l0.24,-0.118l0.24,-0.119l0.24,-0.121l0.24,-0.121l0.239,-0.123l0.239,-0.123l0.239,-0.125l0.239,-0.126l0.238,-0.126l0.237,-0.128l0.238,-0.129l0.237,-0.13l0.237,-0.132l0.237,-0.132l0.236,-0.133l0.236,-0.135l0.235,-0.135l0.235,-0.137l0.235,-0.137l0.235,-0.139l0.234,-0.14l0.234,-0.141l0.233,-0.141l0.233,-0.143l0.233,-0.144l0.232,-0.146l0.233,-0.146l0.231,-0.147l0.231,-0.148l0.231,-0.15l0.231,-0.15l0.23,-0.151l0.229,-0.153l0.23,-0.153l0.229,-0.155l0.228,-0.156l0.228,-0.156l0.228,-0.158l0.227,-0.159l0.227,-0.16l0.226,-0.16l0.226,-0.162l0.226,-0.163l0.225,-0.164l0.224,-0.165l0.224,-0.166l0.224,-0.167l0.223,-0.168l0.223,-0.17l0.223,-0.17l0.222,-0.171l0.221,-0.172l0.221,-0.173l0.221,-0.175l0.22,-0.175l0.219,-0.176l0.219,-0.177l0.219,-0.179l0.218,-0.179l0.218,-0.18l0.217,-0.182l0.216,-0.182l0.216,-0.183l0.216,-0.185l0.215,-0.185l0.214,-0.187l0.214,-0.187l0.214,-0.188l0.213,-0.19l0.212,-0.19l0.212,-0.191l0.212,-0.193l0.21,-0.193l0.211,-0.194l0.209,-0.196l0.209,-0.196l0.209,-0.197l0.208,-0.199l0.207,-0.199l0.207,-0.2l0.207,-0.201l0.205,-0.203l0.206,-0.203l0.204,-0.204l0.204,-0.205l0.203,-0.206l0.203,-0.207l0.202,-0.208l0.202,-0.209l0.201,-0.21l0.2,-0.211l0.2,-0.212l0.199,-0.213l0.199,-0.214l0.198,-0.215l0.197,-0.215l0.197,-0.217l0.196,-0.218l0.195,-0.218l0.195,-0.22l0.194,-0.22l0.193,-0.222l0.193,-0.222l0.192,-0.224l0.191,-0.224l0.191,-0.225l0.19,-0.226l0.19,-0.228l0.188,-0.228l0.188,-0.229l0.188,-0.229l0.186,-0.231l0.186,-0.232l0.186,-0.233l0.184,-0.233l0.184,-0.235l0.183,-0.235l0.183,-0.237l0.182,-0.237l0.181,-0.238l0.18,-0.24l0.18,-0.24l0.178,-0.241l0.179,-0.242l0.177,-0.243l0.177,-0.243l0.176,-0.245l0.175,-0.245l0.174,-0.247l0.174,-0.247l0.173,-0.249l0.172,-0.249l0.171,-0.25l0.171,-0.251l0.17,-0.252l0.169,-0.252l0.168,-0.254l0.168,-0.255l0.166,-0.255l0.166,-0.256l0.166,-0.258l0.164,-0.258l0.163,-0.259l0.163,-0.26l0.162,-0.26l0.161,-0.262l0.16,-0.263l0.16,-0.263l0.159,-0.264l0.157,-0.265l0.157,-0.266l0.156,-0.267l0.156,-0.268l0.154,-0.269l0.161,-0.281l37.231,-64.534l-26.444,-15.65l-35.974,62.644l-0.348,0.494l-0.272,0.384l-0.272,0.38l-0.272,0.377l-0.272,0.374l-0.273,0.37l-0.272,0.368l-0.273,0.364l-0.273,0.361l-0.273,0.358l-0.273,0.355l-0.273,0.351l-0.273,0.349l-0.273,0.345l-0.274,0.342l-0.273,0.339l-0.274,0.336l-0.273,0.333l-0.274,0.329l-0.273,0.327l-0.274,0.323l-0.274,0.32l-0.273,0.317l-0.274,0.314l-0.274,0.311l-0.274,0.308l-0.273,0.305l-0.274,0.301l-0.274,0.299l-0.274,0.295l-0.273,0.292l-0.274,0.289l-0.274,0.286l-0.273,0.283l-0.274,0.28l-0.274,0.277l-0.273,0.274l-0.274,0.271l-0.273,0.267l-0.274,0.265l-0.273,0.261l-0.273,0.259l-0.273,0.255l-0.274,0.253l-0.273,0.249l-0.273,0.246l-0.273,0.244l-0.273,0.24l-0.272,0.237l-0.273,0.234l-0.272,0.231l-0.273,0.229l-0.272,0.225l-0.272,0.222l-0.272,0.219l-0.272,0.216l-0.272,0.213l-0.272,0.21l-0.272,0.207l-0.271,0.204l-0.271,0.201l-0.272,0.198l-0.271,0.195l-0.271,0.192l-0.27,0.189l-0.271,0.186l-0.27,0.183l-0.271,0.18l-0.27,0.177l-0.27,0.174l-0.269,0.171l-0.27,0.168l-0.269,0.165l-0.27,0.162l-0.269,0.159l-0.269,0.156l-0.268,0.153l-0.269,0.15l-0.268,0.147l-0.268,0.144l-0.268,0.141l-0.268,0.138l-0.267,0.135l-0.268,0.132l-0.267,0.129l-0.266,0.126l-0.267,0.123l-0.266,0.12l-0.267,0.117l-0.266,0.114l-0.265,0.111l-0.266,0.108l-0.265,0.105l-0.265,0.102l-0.264,0.098l-0.265,0.096l-0.264,0.093l-0.264,0.089l-0.264,0.087l-0.263,0.084l-0.263,0.08l-0.263,0.077l-0.262,0.075l-0.262,0.071l-0.262,0.068l-0.261,0.065l-0.261,0.062l-0.261,0.059l-0.261,0.055l-0.26,0.053l-0.259,0.049l-0.26,0.046l-0.259,0.043l-0.258,0.04l-0.258,0.037l-0.258,0.034l-0.257,0.03l-0.257,0.027l-0.256,0.024l-0.256,0.021l-0.255,0.018l-0.255,0.014l-0.254,0.011l-0.253,0.008l-0.254,0.005l-0.252,0.001l-0.252,-0.001l-0.251,-0.006l-0.251,-0.008l-0.25,-0.012l-0.249,-0.014l-0.248,-0.019l-0.248,-0.021l-0.247,-0.025l-0.246,-0.028l-0.246,-0.031l-0.244,-0.035l-0.244,-0.038l-0.243,-0.041l-0.242,-0.045l-0.241,-0.047l-0.24,-0.051l-0.239,-0.055l-0.238,-0.058l-0.237,-0.06l-0.235,-0.065l-0.235,-0.067l-0.234,-0.071l-0.232,-0.074l-0.232,-0.077l-0.23,-0.081l-0.229,-0.084l-0.227,-0.087l-0.226,-0.09l-0.225,-0.093l-0.224,-0.097l-0.222,-0.1l-0.221,-0.103l-0.22,-0.106l-0.218,-0.109l-0.216,-0.112l-0.215,-0.116l-0.214,-0.118l-0.212,-0.122l-0.21,-0.125l-0.209,-0.127l-0.208,-0.131l-0.205,-0.134l-0.204,-0.136l-0.203,-0.14l-0.2,-0.142l-0.199,-0.146l-0.198,-0.148l-0.195,-0.151l-0.194,-0.155l-0.192,-0.156l-0.191,-0.16l-0.188,-0.163l-0.187,-0.165l-0.185,-0.168l-0.183,-0.171l-0.182,-0.173l-0.179,-0.176l-0.178,-0.179l-0.176,-0.182l-0.174,-0.184l-0.173,-0.187l-0.17,-0.189l-0.169,-0.192l-0.166,-0.195l-0.165,-0.197l-0.163,-0.2l-0.161,-0.202l-0.16,-0.204l-0.157,-0.208l-0.155,-0.209l-0.154,-0.212l-0.152,-0.215l-0.15,-0.217l-0.148,-0.219l-0.146,-0.222l-0.144,-0.224l-0.142,-0.227l-0.14,-0.229l-0.139,-0.231l-0.137,-0.234l-0.134,-0.236l-0.133,-0.239l-0.131,-0.24l-0.129,-0.243l-0.127,-0.245l-0.125,-0.248l-0.124,-0.25l-0.121,-0.252l-0.12,-0.255l-0.118,-0.256l-0.115,-0.259l-0.114,-0.261l-0.112,-0.264l-0.11,-0.265l-0.109,-0.268l-0.106,-0.27l-0.104,-0.273l-0.103,-0.274l-0.101,-0.277l-0.098,-0.279l-0.097,-0.281l-0.095,-0.283l-0.093,-0.286l-0.091,-0.287l-0.09,-0.29l-0.087,-0.292l-0.085,-0.294l-0.084,-0.297l-0.081,-0.298l-0.08,-0.301l-0.078,-0.302l-0.076,-0.305l-0.074,-0.307l-0.072,-0.31l-0.07,-0.311l-0.068,-0.313l-0.067,-0.316l-0.064,-0.318l-0.062,-0.32l-0.061,-0.321l-0.058,-0.325l-0.057,-0.326l-0.055,-0.328l-0.052,-0.33l-0.051,-0.333l-0.049,-0.334l-0.047,-0.337l-0.045,-0.339l-0.043,-0.341l-0.061,-0.511l0,-146.211l-30.774,0l0,10.614l-2.458,1.129l-2.766,-2.375l-0.266,-0.228l-0.265,-0.226l-0.266,-0.224l-0.264,-0.223l-0.265,-0.221l-0.264,-0.22l-0.264,-0.219l-0.263,-0.217l-0.263,-0.215l-0.262,-0.214l-0.263,-0.213l-0.261,-0.211l-0.262,-0.21l-0.261,-0.208l-0.261,-0.207l-0.261,-0.206l-0.26,-0.204l-0.26,-0.203l-0.259,-0.201l-0.259,-0.2l-0.259,-0.198l-0.259,-0.197l-0.258,-0.196l-0.258,-0.194l-0.258,-0.193l-0.257,-0.192l-0.258,-0.19l-0.256,-0.189l-0.257,-0.188l-0.256,-0.186l-0.257,-0.185l-0.255,-0.183l-0.256,-0.182l-0.255,-0.181l-0.255,-0.18l-0.255,-0.178l-0.255,-0.177l-0.254,-0.175l-0.254,-0.174l-0.254,-0.173l-0.254,-0.172l-0.253,-0.17l-0.254,-0.169l-0.253,-0.168l-0.253,-0.167l-0.253,-0.165l-0.252,-0.164l-0.252,-0.163l-0.253,-0.161l-0.252,-0.16l-0.251,-0.159l-0.252,-0.158l-0.252,-0.157l-0.251,-0.155l-0.251,-0.154l-0.251,-0.153l-0.251,-0.151l-0.251,-0.151l-0.251,-0.149l-0.25,-0.148l-0.251,-0.146l-0.25,-0.146l-0.25,-0.144l-0.25,-0.144l-0.25,-0.142l-0.25,-0.141l-0.25,-0.139l-0.25,-0.139l-0.25,-0.137l-0.249,-0.136l-0.25,-0.136l-0.249,-0.133l-0.25,-0.133l-0.249,-0.132l-0.25,-0.131l-0.249,-0.129l-0.249,-0.128l-0.249,-0.127l-0.25,-0.127l-0.249,-0.125l-0.249,-0.123l-0.249,-0.123l-0.25,-0.122l-0.249,-0.121l-0.249,-0.119l-0.249,-0.119l-0.249,-0.117l-0.25,-0.117l-0.249,-0.115l-0.249,-0.114l-0.25,-0.113l-0.249,-0.113l-0.25,-0.111l-0.249,-0.11l-0.25,-0.109l-0.25,-0.108l-0.249,-0.107l-0.25,-0.106l-0.25,-0.105l-0.25,-0.104l-0.25,-0.103l-0.251,-0.102l-0.25,-0.101l-0.25,-0.1l-0.251,-0.099l-0.251,-0.098l-0.251,-0.098l-0.251,-0.096l-0.251,-0.095l-0.251,-0.094l-0.251,-0.093l-0.252,-0.093l-0.252,-0.091l-0.252,-0.091l-0.252,-0.089l-0.252,-0.089l-0.253,-0.088l-0.252,-0.086l-0.253,-0.086l-0.253,-0.085l-0.254,-0.084l-0.253,-0.083l-0.254,-0.083l-0.254,-0.081l-0.254,-0.08l-0.255,-0.08l-0.254,-0.079l-0.255,-0.078l-0.255,-0.077l-0.256,-0.076l-0.256,-0.075l-0.256,-0.074l-0.256,-0.074l-0.257,-0.072l-0.256,-0.072l-0.258,-0.071l-0.257,-0.07l-0.258,-0.07l-0.258,-0.068l-0.258,-0.068l-0.259,-0.067l-0.259,-0.066l-0.26,-0.065l-0.259,-0.065l-0.261,-0.063l-0.26,-0.063l-0.261,-0.062l-0.261,-0.061l-0.262,-0.061l-0.261,-0.06l-0.263,-0.058l-0.263,-0.059l-0.263,-0.057l-0.263,-0.057l-0.264,-0.055l-0.264,-0.056l-0.265,-0.054l-0.265,-0.054l-0.266,-0.052l-0.266,-0.052l-0.266,-0.052l-0.267,-0.051l-0.267,-0.049l-0.268,-0.05l-0.268,-0.048l-0.269,-0.048l-0.269,-0.047l-0.269,-0.046l-0.271,-0.046l-0.27,-0.045l-0.271,-0.044l-0.272,-0.044l-0.272,-0.043l-0.272,-0.042l-0.273,-0.041l-0.274,-0.041l-0.274,-0.04l-0.274,-0.04l-0.274,-0.038l-0.553,-0.076l-0.554,-0.073l-0.557,-0.071l-0.558,-0.068l-0.561,-0.065l-0.563,-0.063l-0.565,-0.061l-0.568,-0.058l-0.57,-0.056l-0.573,-0.053l-0.576,-0.051l-0.577,-0.049l-0.581,-0.047l-0.583,-0.044l-0.586,-0.042l-0.588,-0.04l-0.591,-0.038l-0.594,-0.036l-0.597,-0.033l-0.6,-0.032l-0.602,-0.03l-0.606,-0.028l-0.608,-0.025l-0.612,-0.024l-0.614,-0.022l-0.618,-0.02l-0.62,-0.019l-0.624,-0.016l-0.627,-0.015l-0.63,-0.013l-0.634,-0.012l-0.636,-0.01l-0.641,-0.008l-0.643,-0.006l-0.647,-0.006l-0.65,-0.003l-0.654,-0.002l-0.656,-0.001l-0.338,0.001Zm9.118,28.839l0.787,0.012l0.787,0.025l0.786,0.036l0.785,0.049l0.784,0.06l0.782,0.073l0.782,0.084l0.781,0.095l0.779,0.107l0.777,0.119l0.776,0.13l0.775,0.141l0.772,0.153l0.771,0.163l0.769,0.175l0.767,0.185l0.765,0.196l0.762,0.207l0.76,0.218l0.758,0.228l0.756,0.239l0.753,0.249l0.75,0.259l0.747,0.269l0.745,0.28l0.742,0.29l0.739,0.299l0.736,0.309l0.732,0.32l0.73,0.329l0.726,0.338l0.723,0.348l0.719,0.357l0.716,0.367l0.712,0.376l0.708,0.385l0.704,0.395l0.701,0.403l0.697,0.412l0.692,0.421l0.689,0.43l0.684,0.439l0.68,0.447l0.676,0.456l0.671,0.464l0.666,0.472l0.662,0.481l0.658,0.489l0.652,0.497l0.648,0.506l0.642,0.513l0.638,0.521l0.632,0.529l0.628,0.537l0.622,0.544l0.616,0.552l0.611,0.56l0.606,0.567l0.6,0.574l0.594,0.581l0.589,0.589l0.583,0.596l0.576,0.603l0.571,0.61l0.564,0.617l0.559,0.624l0.552,0.631l0.546,0.637l0.539,0.644l0.532,0.65l0.527,0.657l0.519,0.663l0.512,0.67l0.506,0.676l0.499,0.682l0.491,0.688l0.485,0.694l0.477,0.7l0.47,0.706l0.462,0.712l0.455,0.718l0.448,0.723l0.44,0.729l0.432,0.734l0.424,0.74l0.416,0.745l0.408,0.75l0.4,0.756l0.392,0.761l0.384,0.766l0.375,0.771l0.366,0.775l0.358,0.781l0.35,0.785l0.341,0.79l0.331,0.795l0.323,0.799l0.314,0.804l0.305,0.808l0.296,0.813l0.286,0.816l0.277,0.821l0.267,0.825l0.258,0.829l0.248,0.833l0.239,0.837l0.228,0.84l0.219,0.844l0.208,0.848l0.199,0.852l0.188,0.855l0.178,0.858l0.167,0.861l0.157,0.865l0.147,0.868l0.135,0.871l0.125,0.874l0.114,0.877l0.103,0.88l0.092,0.882l0.081,0.886l0.069,0.887l0.058,0.89l0.047,0.893l0.035,0.895l0.024,0.897l0.012,0.899l0.001,0.449l-0.001,0.278l-0.001,0.276l-0.003,0.276l-0.004,0.276l-0.004,0.276l-0.006,0.276l-0.007,0.276l-0.008,0.275l-0.009,0.276l-0.011,0.275l-0.011,0.276l-0.012,0.275l-0.013,0.275l-0.015,0.275l-0.015,0.275l-0.017,0.274l-0.017,0.275l-0.019,0.274l-0.019,0.274l-0.021,0.275l-0.022,0.274l-0.022,0.273l-0.024,0.274l-0.025,0.274l-0.026,0.273l-0.027,0.274l-0.027,0.273l-0.029,0.273l-0.03,0.273l-0.031,0.272l-0.032,0.273l-0.033,0.272l-0.034,0.273l-0.035,0.272l-0.036,0.272l-0.037,0.271l-0.038,0.272l-0.039,0.271l-0.04,0.272l-0.041,0.271l-0.041,0.27l-0.043,0.271l-0.044,0.27l-0.045,0.271l-0.046,0.27l-0.047,0.27l-0.048,0.27l-0.049,0.269l-0.049,0.27l-0.051,0.269l-0.052,0.269l-0.053,0.269l-0.053,0.268l-0.055,0.268l-0.056,0.269l-0.056,0.268l-0.058,0.267l-0.058,0.268l-0.06,0.267l-0.06,0.267l-0.061,0.267l-0.063,0.267l-0.063,0.266l-0.064,0.266l-0.065,0.266l-0.066,0.266l-0.067,0.265l-0.068,0.266l-0.069,0.265l-0.07,0.264l-0.071,0.265l-0.071,0.264l-0.073,0.264l-0.073,0.264l-0.075,0.263l-0.075,0.264l-0.076,0.263l-0.077,0.263l-0.078,0.262l-0.079,0.262l-0.08,0.262l-0.081,0.262l-0.082,0.262l-0.082,0.261l-0.084,0.261l-0.084,0.26l-0.085,0.261l-0.086,0.26l-0.087,0.26l-0.088,0.259l-0.089,0.26l-0.09,0.259l-0.09,0.258l-0.092,0.259l-0.092,0.258l-0.093,0.258l-0.094,0.257l-0.095,0.257l-0.096,0.257l-0.097,0.257l-0.097,0.256l-0.099,0.256l-0.099,0.256l-0.1,0.255l-0.101,0.256l-0.102,0.255l-0.103,0.254l-0.103,0.254l-0.104,0.254l-0.106,0.253l-0.106,0.254l-0.107,0.253l-0.107,0.252l-0.109,0.252l-0.109,0.252l-0.11,0.252l-0.111,0.251l-0.112,0.251l-0.113,0.251l-0.114,0.25l-0.114,0.25l-0.115,0.249l-0.116,0.249l-0.117,0.249l-0.118,0.249l-0.118,0.248l-0.119,0.248l-0.12,0.247l-0.121,0.247l-0.122,0.247l-0.122,0.246l-0.123,0.246l-0.125,0.246l-0.124,0.245l-0.126,0.245l-0.126,0.244l-0.128,0.245l-0.128,0.243l-0.128,0.244l-0.13,0.243l-0.13,0.242l-0.131,0.243l-0.132,0.242l-0.133,0.241l-0.133,0.241l-0.135,0.241l-0.135,0.24l-0.135,0.24l-0.137,0.24l-0.137,0.239l-0.138,0.238l-0.139,0.239l-0.139,0.238l-0.141,0.237l-0.141,0.237l-0.142,0.237l-0.142,0.236l-0.143,0.236l-0.144,0.236l-0.145,0.235l-0.146,0.234l-0.146,0.234l-0.147,0.234l-0.148,0.233l-0.148,0.233l-0.149,0.233l-0.15,0.232l-0.151,0.231l-0.151,0.232l-0.152,0.23l-0.153,0.231l-0.153,0.23l-0.155,0.229l-0.155,0.229l-0.155,0.228l-0.157,0.228l-0.157,0.228l-0.157,0.227l-0.159,0.227l-0.159,0.226l-0.16,0.226l-0.16,0.225l-0.162,0.225l-0.162,0.225l-0.162,0.224l-0.164,0.223l-0.164,0.223l-0.164,0.223l-0.166,0.222l-0.166,0.221l-0.166,0.221l-0.168,0.221l-0.168,0.22l-0.169,0.22l-0.169,0.219l-0.17,0.219l-0.171,0.218l-0.171,0.217l-0.173,0.218l-0.172,0.216l-0.174,0.216l-0.174,0.216l-0.175,0.215l-0.175,0.215l-0.176,0.214l-0.177,0.214l-0.177,0.213l-0.178,0.213l-0.179,0.212l-0.179,0.212l-0.18,0.211l-0.18,0.21l-0.181,0.21l-0.182,0.21l-0.183,0.209l-0.183,0.209l-0.184,0.207l-0.184,0.208l-0.185,0.207l-0.185,0.206l-0.187,0.206l-0.186,0.205l-0.188,0.205l-0.188,0.204l-0.189,0.204l-0.189,0.203l-0.19,0.203l-0.19,0.202l-0.191,0.201l-0.192,0.201l-0.192,0.2l-0.193,0.2l-0.194,0.199l-0.194,0.199l-0.194,0.198l-0.196,0.198l-0.195,0.197l-0.197,0.196l-0.197,0.196l-0.197,0.195l-0.199,0.195l-0.198,0.194l-0.2,0.193l-0.2,0.193l-0.2,0.193l-0.201,0.191l-0.202,0.192l-0.202,0.19l-0.203,0.19l-0.203,0.19l-0.204,0.188l-0.205,0.189l-0.204,0.187l-0.206,0.187l-0.206,0.187l-0.207,0.185l-0.207,0.185l-0.208,0.185l-0.208,0.184l-0.209,0.183l-0.209,0.183l-0.21,0.182l-0.211,0.182l-0.211,0.18l-0.212,0.181l-0.212,0.179l-0.212,0.179l-0.213,0.179l-0.214,0.177l-0.214,0.177l-0.215,0.177l-0.215,0.176l-0.216,0.175l-0.216,0.174l-0.217,0.174l-0.217,0.173l-0.218,0.173l-0.219,0.172l-0.219,0.171l-0.219,0.171l-0.22,0.17l-0.22,0.169l-0.221,0.169l-0.221,0.168l-0.222,0.167l-0.223,0.167l-0.222,0.166l-0.224,0.165l-0.224,0.164l-0.224,0.164l-0.225,0.164l-0.225,0.162l-0.226,0.162l-0.226,0.161l-0.227,0.161l-0.227,0.16l-0.228,0.159l-0.228,0.158l-0.229,0.158l-0.229,0.157l-0.229,0.157l-0.23,0.155l-0.231,0.155l-0.231,0.155l-0.231,0.153l-0.232,0.153l-0.232,0.152l-0.233,0.152l-0.233,0.15l-0.234,0.15l-0.234,0.15l-0.235,0.148l-0.235,0.148l-0.235,0.147l-0.236,0.147l-0.236,0.145l-0.237,0.145l-0.237,0.144l-0.238,0.144l-0.238,0.143l-0.239,0.142l-0.239,0.141l-0.239,0.14l-0.24,0.14l-0.24,0.139l-0.24,0.138l-0.242,0.138l-0.241,0.137l-0.242,0.136l-0.242,0.135l-0.243,0.134l-0.243,0.134l-0.243,0.133l-0.244,0.132l-0.245,0.132l-0.244,0.13l-0.245,0.13l-0.246,0.129l-0.246,0.129l-0.246,0.127l-0.247,0.127l-0.247,0.126l-0.247,0.125l-0.248,0.125l-0.248,0.123l-0.249,0.123l-0.249,0.122l-0.249,0.121l-0.25,0.121l-0.25,0.119l-0.251,0.119l-0.251,0.118l-0.251,0.117l-0.251,0.117l-0.252,0.115l-0.253,0.115l-0.252,0.114l-0.253,0.113l-0.254,0.113l-0.253,0.111l-0.255,0.111l-0.254,0.11l-0.255,0.109l-0.255,0.108l-0.255,0.107l-0.256,0.107l-0.256,0.106l-0.257,0.105l-0.257,0.104l-0.257,0.103l-0.257,0.102l-0.258,0.102l-0.259,0.1l-0.258,0.1l-0.259,0.099l-0.259,0.098l-0.259,0.097l-0.26,0.097l-0.26,0.095l-0.261,0.095l-0.261,0.093l-0.261,0.093l-0.261,0.092l-0.262,0.091l-0.262,0.091l-0.262,0.089l-0.262,0.089l-0.263,0.087l-0.263,0.087l-0.264,0.086l-0.264,0.085l-0.264,0.084l-0.264,0.083l-0.265,0.082l-0.265,0.082l-0.265,0.08l-0.265,0.08l-0.266,0.079l-0.266,0.077l-0.266,0.077l-0.267,0.076l-0.267,0.075l-0.267,0.074l-0.268,0.073l-0.267,0.073l-0.268,0.071l-0.268,0.071l-0.269,0.069l-0.269,0.069l-0.269,0.067l-0.269,0.067l-0.269,0.066l-0.27,0.065l-0.27,0.064l-0.27,0.063l-0.271,0.062l-0.27,0.061l-0.271,0.06l-0.272,0.059l-0.271,0.058l-0.272,0.058l-0.272,0.056l-0.272,0.055l-0.272,0.055l-0.273,0.053l-0.272,0.053l-0.274,0.051l-0.273,0.051l-0.273,0.049l-0.274,0.049l-0.274,0.047l-0.274,0.047l-0.274,0.046l-0.275,0.044l-0.274,0.044l-0.275,0.043l-0.276,0.041l-0.275,0.041l-0.275,0.04l-0.276,0.038l-0.276,0.038l-0.276,0.037l-0.276,0.035l-0.277,0.035l-0.276,0.034l-0.277,0.033l-0.277,0.031l-0.277,0.031l-0.278,0.029l-0.278,0.029l-0.277,0.028l-0.278,0.026l-0.278,0.026l-0.278,0.024l-0.279,0.024l-0.278,0.022l-0.279,0.022l-0.279,0.02l-0.279,0.019l-0.279,0.019l-0.279,0.017l-0.28,0.016l-0.279,0.015l-0.28,0.014l-0.28,0.013l-0.28,0.012l-0.28,0.011l-0.281,0.01l-0.28,0.009l-0.281,0.008l-0.28,0.006l-0.281,0.006l-0.281,0.005l-0.281,0.003l-0.281,0.003l-0.281,0.001l-0.282,0l-0.281,-0.001l-0.282,-0.002l-0.282,-0.003l-0.282,-0.004l-0.282,-0.005l-0.282,-0.006l-0.282,-0.007l-0.282,-0.009l-0.282,-0.01l-0.283,-0.01l-0.282,-0.012l-0.283,-0.013l-0.283,-0.014l-0.282,-0.015l-0.283,-0.016l-0.283,-0.017l-0.283,-0.019l-0.283,-0.019l-0.283,-0.021l-0.284,-0.022l-0.283,-0.023l-0.283,-0.024l-0.284,-0.025l-0.283,-0.026l-0.284,-0.028l-0.283,-0.028l-0.284,-0.03l-0.284,-0.031l-0.283,-0.032l-0.284,-0.033l-0.284,-0.034l-0.284,-0.035l-0.284,-0.037l-0.284,-0.038l-0.273,-0.037l-0.287,-0.038l-0.298,-0.041l-0.297,-0.042l-0.296,-0.043l-0.296,-0.044l-0.295,-0.045l-0.295,-0.047l-0.294,-0.047l-0.293,-0.048l-0.292,-0.049l-0.292,-0.051l-0.291,-0.051l-0.291,-0.053l-0.29,-0.053l-0.29,-0.055l-0.288,-0.055l-0.288,-0.057l-0.288,-0.057l-0.287,-0.059l-0.286,-0.06l-0.285,-0.06l-0.285,-0.062l-0.284,-0.063l-0.284,-0.064l-0.283,-0.064l-0.282,-0.066l-0.282,-0.067l-0.281,-0.068l-0.28,-0.069l-0.28,-0.07l-0.279,-0.071l-0.278,-0.072l-0.278,-0.072l-0.277,-0.074l-0.276,-0.075l-0.276,-0.076l-0.275,-0.077l-0.274,-0.078l-0.274,-0.079l-0.273,-0.08l-0.272,-0.081l-0.272,-0.082l-0.271,-0.082l-0.27,-0.084l-0.27,-0.085l-0.269,-0.086l-0.268,-0.087l-0.268,-0.087l-0.266,-0.089l-0.267,-0.09l-0.265,-0.091l-0.265,-0.091l-0.264,-0.093l-0.264,-0.094l-0.262,-0.094l-0.263,-0.096l-0.261,-0.096l-0.261,-0.098l-0.26,-0.098l-0.259,-0.099l-0.258,-0.101l-0.258,-0.101l-0.258,-0.102l-0.256,-0.103l-0.256,-0.105l-0.255,-0.105l-0.254,-0.106l-0.254,-0.107l-0.253,-0.107l-0.252,-0.109l-0.252,-0.11l-0.25,-0.111l-0.251,-0.111l-0.249,-0.113l-0.249,-0.113l-0.248,-0.115l-0.247,-0.115l-0.246,-0.116l-0.246,-0.117l-0.245,-0.118l-0.244,-0.119l-0.244,-0.12l-0.243,-0.121l-0.242,-0.122l-0.241,-0.122l-0.241,-0.124l-0.24,-0.124l-0.239,-0.126l-0.239,-0.126l-0.237,-0.127l-0.237,-0.128l-0.236,-0.129l-0.236,-0.13l-0.235,-0.13l-0.234,-0.132l-0.233,-0.132l-0.232,-0.134l-0.232,-0.134l-0.231,-0.135l-0.23,-0.136l-0.23,-0.137l-0.229,-0.137l-0.228,-0.139l-0.227,-0.139l-0.226,-0.141l-0.226,-0.141l-0.225,-0.142l-0.224,-0.143l-0.223,-0.143l-0.223,-0.145l-0.222,-0.145l-0.221,-0.147l-0.22,-0.147l-0.22,-0.148l-0.219,-0.149l-0.218,-0.149l-0.217,-0.151l-0.216,-0.151l-0.216,-0.152l-0.215,-0.153l-0.214,-0.154l-0.213,-0.155l-0.213,-0.155l-0.212,-0.157l-0.211,-0.157l-0.21,-0.158l-0.209,-0.159l-0.209,-0.159l-0.208,-0.161l-0.207,-0.161l-0.206,-0.162l-0.205,-0.163l-0.205,-0.163l-0.204,-0.165l-0.203,-0.165l-0.202,-0.166l-0.201,-0.167l-0.201,-0.168l-0.2,-0.168l-0.199,-0.169l-0.198,-0.17l-0.197,-0.171l-0.197,-0.172l-0.196,-0.172l-0.195,-0.173l-0.194,-0.174l-0.193,-0.175l-0.193,-0.175l-0.191,-0.176l-0.191,-0.177l-0.19,-0.178l-0.19,-0.179l-0.188,-0.179l-0.188,-0.18l-0.186,-0.181l-0.186,-0.181l-0.185,-0.182l-0.185,-0.183l-0.183,-0.184l-0.183,-0.185l-0.181,-0.185l-0.181,-0.186l-0.18,-0.187l-0.18,-0.187l-0.178,-0.188l-0.178,-0.189l-0.176,-0.19l-0.176,-0.19l-0.175,-0.192l-0.175,-0.191l-0.173,-0.193l-0.173,-0.193l-0.171,-0.194l-0.171,-0.195l-0.17,-0.195l-0.169,-0.197l-0.169,-0.196l-0.167,-0.198l-0.167,-0.198l-0.165,-0.199l-0.165,-0.2l-0.164,-0.2l-0.163,-0.201l-0.163,-0.202l-0.161,-0.202l-0.16,-0.203l-0.16,-0.204l-0.159,-0.204l-0.158,-0.206l-0.157,-0.205l-0.156,-0.207l-0.156,-0.207l-0.154,-0.208l-0.154,-0.208l-0.152,-0.209l-0.152,-0.21l-0.151,-0.211l-0.15,-0.211l-0.15,-0.211l-0.148,-0.213l-0.148,-0.213l-0.146,-0.214l-0.146,-0.214l-0.145,-0.215l-0.144,-0.216l-0.143,-0.216l-0.142,-0.217l-0.141,-0.218l-0.141,-0.218l-0.139,-0.219l-0.139,-0.219l-0.137,-0.22l-0.137,-0.221l-0.136,-0.221l-0.135,-0.222l-0.134,-0.223l-0.134,-0.223l-0.132,-0.224l-0.132,-0.224l-0.13,-0.225l-0.13,-0.226l-0.129,-0.226l-0.127,-0.227l-0.127,-0.227l-0.126,-0.228l-0.126,-0.229l-0.124,-0.229l-0.123,-0.23l-0.123,-0.23l-0.121,-0.231l-0.121,-0.231l-0.119,-0.233l-0.119,-0.232l-0.118,-0.234l-0.117,-0.233l-0.116,-0.235l-0.115,-0.235l-0.114,-0.235l-0.114,-0.236l-0.112,-0.237l-0.111,-0.237l-0.111,-0.238l-0.11,-0.238l-0.108,-0.239l-0.108,-0.24l-0.107,-0.24l-0.106,-0.24l-0.105,-0.241l-0.104,-0.242l-0.103,-0.242l-0.102,-0.243l-0.101,-0.243l-0.101,-0.244l-0.099,-0.244l-0.098,-0.245l-0.098,-0.245l-0.097,-0.246l-0.095,-0.246l-0.095,-0.247l-0.094,-0.248l-0.093,-0.248l-0.091,-0.248l-0.091,-0.249l-0.09,-0.25l-0.089,-0.249l-0.089,-0.251l-0.087,-0.251l-0.086,-0.251l-0.085,-0.252l-0.085,-0.253l-0.083,-0.253l-0.082,-0.253l-0.082,-0.254l-0.08,-0.254l-0.08,-0.255l-0.079,-0.256l-0.077,-0.256l-0.077,-0.256l-0.076,-0.257l-0.075,-0.257l-0.073,-0.258l-0.073,-0.258l-0.072,-0.259l-0.071,-0.259l-0.07,-0.259l-0.069,-0.26l-0.068,-0.261l-0.068,-0.261l-0.066,-0.261l-0.065,-0.262l-0.064,-0.263l-0.063,-0.262l-0.063,-0.263l-0.061,-0.264l-0.06,-0.264l-0.06,-0.265l-0.058,-0.265l-0.058,-0.265l-0.056,-0.266l-0.056,-0.266l-0.054,-0.267l-0.054,-0.267l-0.052,-0.267l-0.052,-0.268l-0.05,-0.269l-0.05,-0.268l-0.049,-0.27l-0.047,-0.269l-0.047,-0.27l-0.046,-0.271l-0.044,-0.27l-0.044,-0.272l-0.043,-0.271l-0.042,-0.272l-0.04,-0.273l-0.04,-0.272l-0.039,-0.274l-0.038,-0.273l-0.037,-0.274l-0.035,-0.275l-0.035,-0.274l-0.034,-0.275l-0.033,-0.276l-0.032,-0.276l-0.031,-0.276l-0.03,-0.277l-0.028,-0.277l-0.028,-0.277l-0.027,-0.278l-0.026,-0.278l-0.025,-0.278l-0.024,-0.279l-0.023,-0.279l-0.022,-0.28l-0.02,-0.279l-0.02,-0.281l-0.019,-0.28l-0.018,-0.281l-0.017,-0.281l-0.016,-0.282l-0.014,-0.282l-0.014,-0.282l-0.013,-0.283l-0.012,-0.283l-0.011,-0.283l-0.009,-0.283l-0.009,-0.284l-0.008,-0.285l-0.007,-0.284l-0.005,-0.285l-0.005,-0.285l-0.004,-0.286l-0.002,-0.286l-0.002,-0.286l-0.001,-0.286l0.001,-0.287l0.001,-0.287l0.003,-0.288l0.003,-0.287l0.005,-0.288l0.005,-0.289l0.007,-0.288l0.007,-0.289l0.009,-0.289l0.01,-0.29l0.01,-0.289l0.012,-0.29l0.013,-0.291l0.014,-0.29l0.014,-0.291l0.016,-0.291l0.017,-0.292l0.018,-0.291l0.019,-0.292l0.02,-0.293l0.021,-0.292l0.022,-0.293l0.023,-0.293l0.024,-0.293l0.025,-0.294l0.026,-0.294l0.028,-0.294l0.028,-0.294l0.029,-0.294l0.031,-0.295l0.031,-0.295l0.033,-0.296l0.033,-0.295l0.035,-0.296l0.035,-0.296l0.037,-0.296l0.038,-0.297l0.038,-0.296l0.04,-0.297l0.041,-0.298l0.042,-0.297l0.043,-0.298l0.044,-0.298l0.045,-0.298l0.046,-0.298l0.048,-0.298l0.048,-0.299l0.049,-0.299l0.051,-0.299l0.051,-0.3l0.053,-0.299l0.053,-0.3l0.055,-0.3l0.056,-0.3l0.056,-0.3l0.058,-0.301l0.059,-0.301l0.06,-0.301l0.061,-0.301l0.062,-0.301l0.063,-0.301l0.065,-0.302l0.065,-0.302l0.066,-0.302l0.068,-0.302l0.069,-0.303l0.069,-0.302l0.071,-0.303l0.072,-0.303l0.073,-0.303l0.073,-0.303l0.076,-0.304l0.076,-0.303l0.077,-0.304l0.078,-0.304l0.079,-0.304l0.081,-0.304l0.081,-0.304l0.083,-0.305l0.084,-0.304l0.084,-0.305l0.086,-0.305l0.087,-0.305l0.088,-0.305l0.089,-0.306l0.091,-0.305l0.091,-0.306l0.092,-0.305l0.094,-0.306l0.095,-0.306l0.095,-0.306l0.097,-0.307l0.098,-0.306l0.099,-0.307l0.1,-0.306l0.101,-0.307l0.103,-0.307l0.103,-0.307l0.104,-0.307l0.106,-0.307l0.107,-0.307l0.108,-0.307l0.109,-0.308l0.11,-0.307l0.111,-0.308l0.112,-0.308l0.113,-0.308l0.115,-0.308l0.115,-0.308l0.117,-0.308l0.118,-0.308l0.119,-0.308l0.12,-0.308l0.121,-0.309l0.122,-0.308l0.124,-0.309l0.124,-0.309l0.126,-0.308l0.126,-0.309l0.128,-0.309l0.129,-0.309l0.13,-0.309l0.131,-0.309l0.133,-0.309l0.133,-0.309l0.135,-0.31l0.136,-0.309l0.136,-0.309l0.138,-0.309l0.139,-0.31l0.141,-0.309l0.141,-0.31l0.143,-0.309l0.143,-0.31l0.145,-0.31l0.146,-0.309l0.147,-0.31l0.148,-0.31l0.149,-0.31l0.151,-0.309l0.151,-0.31l0.153,-0.31l0.154,-0.31l0.155,-0.31l0.156,-0.31l0.157,-0.31l0.159,-0.309l0.159,-0.31l0.161,-0.31l0.162,-0.31l0.163,-0.31l0.164,-0.31l0.165,-0.31l0.167,-0.31l0.167,-0.31l0.169,-0.31l0.158,-0.288l0.145,-0.275l0.161,-0.3l0.163,-0.299l0.164,-0.299l0.166,-0.297l0.168,-0.297l0.168,-0.295l0.171,-0.295l0.172,-0.294l0.173,-0.293l0.175,-0.291l0.177,-0.291l0.178,-0.291l0.18,-0.289l0.181,-0.288l0.182,-0.287l0.184,-0.286l0.186,-0.286l0.187,-0.284l0.188,-0.284l0.19,-0.282l0.191,-0.282l0.193,-0.28l0.194,-0.28l0.195,-0.279l0.197,-0.277l0.199,-0.277l0.2,-0.276l0.201,-0.275l0.202,-0.274l0.204,-0.272l0.206,-0.272l0.206,-0.271l0.208,-0.27l0.209,-0.269l0.211,-0.268l0.212,-0.267l0.214,-0.266l0.214,-0.265l0.216,-0.264l0.217,-0.263l0.219,-0.262l0.22,-0.261l0.221,-0.26l0.222,-0.259l0.224,-0.258l0.225,-0.257l0.226,-0.256l0.228,-0.255l0.229,-0.254l0.229,-0.253l0.232,-0.252l0.232,-0.251l0.234,-0.25l0.234,-0.249l0.236,-0.248l0.238,-0.246l0.238,-0.246l0.24,-0.245l0.24,-0.244l0.242,-0.242l0.243,-0.242l0.245,-0.241l0.245,-0.239l0.246,-0.239l0.248,-0.237l0.249,-0.237l0.25,-0.235l0.251,-0.234l0.252,-0.234l0.253,-0.232l0.254,-0.231l0.256,-0.23l0.256,-0.229l0.258,-0.228l0.258,-0.227l0.26,-0.226l0.26,-0.225l0.262,-0.224l0.263,-0.222l0.264,-0.222l0.265,-0.22l0.265,-0.22l0.267,-0.218l0.268,-0.217l0.269,-0.216l0.27,-0.215l0.271,-0.214l0.271,-0.213l0.273,-0.212l0.274,-0.211l0.275,-0.209l0.275,-0.209l0.277,-0.207l0.278,-0.207l0.278,-0.205l0.279,-0.204l0.281,-0.203l0.281,-0.202l0.282,-0.201l0.283,-0.199l0.284,-0.199l0.285,-0.197l0.285,-0.197l0.287,-0.195l0.287,-0.194l0.289,-0.193l0.289,-0.192l0.29,-0.19l0.291,-0.19l0.291,-0.188l0.293,-0.188l0.293,-0.186l0.294,-0.185l0.295,-0.184l0.296,-0.182l0.296,-0.182l0.298,-0.18l0.298,-0.18l0.299,-0.178l0.299,-0.177l0.301,-0.176l0.301,-0.174l0.302,-0.174l0.302,-0.172l0.304,-0.171l0.304,-0.17l0.305,-0.169l0.305,-0.168l0.306,-0.166l0.307,-0.166l0.308,-0.164l0.308,-0.163l0.31,-0.161l0.309,-0.161l0.311,-0.159l0.311,-0.159l0.311,-0.157l0.313,-0.156l0.313,-0.154l0.314,-0.154l0.314,-0.152l0.315,-0.151l0.315,-0.15l0.317,-0.148l0.316,-0.148l0.318,-0.146l0.318,-0.145l0.318,-0.144l0.319,-0.143l0.32,-0.141l0.32,-0.14l0.321,-0.139l0.322,-0.138l0.322,-0.136l0.322,-0.136l0.323,-0.134l0.324,-0.132l0.324,-0.132l0.325,-0.13l0.325,-0.13l0.326,-0.127l0.326,-0.127l0.326,-0.125l0.328,-0.124l0.327,-0.123l0.328,-0.122l0.329,-0.12l0.329,-0.119l0.33,-0.118l0.33,-0.117l0.33,-0.115l0.331,-0.114l0.331,-0.113l0.332,-0.112l0.332,-0.11l0.332,-0.109l0.333,-0.108l0.334,-0.106l0.334,-0.105l0.334,-0.104l0.334,-0.103l0.335,-0.101l0.335,-0.1l0.336,-0.099l0.336,-0.097l0.336,-0.096l0.337,-0.095l0.337,-0.093l0.338,-0.093l0.337,-0.091l0.338,-0.089l0.339,-0.088l0.338,-0.087l0.339,-0.086l0.339,-0.084l0.34,-0.083l0.34,-0.082l0.34,-0.081l0.34,-0.079l0.341,-0.077l0.341,-0.077l0.341,-0.075l0.341,-0.073l0.342,-0.073l0.342,-0.071l0.342,-0.07l0.342,-0.068l0.343,-0.067l0.342,-0.065l0.343,-0.065l0.343,-0.063l0.344,-0.061l0.343,-0.06l0.344,-0.059l0.344,-0.058l0.344,-0.056l0.344,-0.055l0.344,-0.053l0.344,-0.052l0.345,-0.051l0.345,-0.049l0.345,-0.048l0.345,-0.046l0.345,-0.045l0.345,-0.044l0.345,-0.042l0.346,-0.041l0.345,-0.039l0.346,-0.039l0.345,-0.036l0.346,-0.035l0.346,-0.034l0.345,-0.033l0.346,-0.031l0.346,-0.029l0.346,-0.029l0.346,-0.026l0.346,-0.026l0.346,-0.024l0.346,-0.022l0.346,-0.021l0.346,-0.02l0.346,-0.018l0.347,-0.017l0.346,-0.015l0.346,-0.014l0.345,-0.012l0.346,-0.011l0.346,-0.01l0.346,-0.008l0.346,-0.007l0.346,-0.005l0.345,-0.003l0.346,-0.003l0.348,0l0.391,0.001Zm-0.714,5.999l-0.32,0.002l-0.32,0.004l-0.32,0.005l-0.321,0.006l-0.32,0.007l-0.321,0.009l-0.321,0.01l-0.321,0.012l-0.321,0.013l-0.321,0.014l-0.321,0.015l-0.321,0.017l-0.321,0.018l-0.322,0.02l-0.321,0.021l-0.322,0.022l-0.321,0.024l-0.322,0.025l-0.321,0.026l-0.322,0.027l-0.321,0.029l-0.322,0.03l-0.321,0.032l-0.322,0.033l-0.321,0.034l-0.322,0.035l-0.321,0.037l-0.322,0.038l-0.321,0.039l-0.321,0.041l-0.322,0.042l-0.321,0.043l-0.321,0.045l-0.321,0.046l-0.321,0.047l-0.321,0.048l-0.321,0.05l-0.32,0.051l-0.321,0.052l-0.32,0.054l-0.321,0.055l-0.32,0.056l-0.32,0.057l-0.32,0.059l-0.32,0.06l-0.319,0.061l-0.32,0.062l-0.319,0.064l-0.319,0.065l-0.319,0.066l-0.319,0.068l-0.318,0.069l-0.319,0.07l-0.318,0.071l-0.318,0.073l-0.318,0.073l-0.317,0.075l-0.317,0.077l-0.317,0.077l-0.317,0.079l-0.316,0.08l-0.317,0.081l-0.316,0.082l-0.315,0.084l-0.316,0.085l-0.315,0.086l-0.315,0.088l-0.314,0.088l-0.314,0.09l-0.314,0.091l-0.314,0.092l-0.313,0.093l-0.313,0.095l-0.312,0.096l-0.312,0.097l-0.312,0.098l-0.312,0.1l-0.311,0.1l-0.311,0.102l-0.31,0.103l-0.31,0.104l-0.309,0.106l-0.31,0.106l-0.308,0.108l-0.309,0.109l-0.308,0.11l-0.307,0.111l-0.307,0.113l-0.307,0.114l-0.306,0.114l-0.305,0.116l-0.306,0.118l-0.304,0.118l-0.305,0.119l-0.304,0.121l-0.303,0.122l-0.303,0.123l-0.302,0.124l-0.302,0.125l-0.301,0.126l-0.301,0.128l-0.3,0.128l-0.3,0.13l-0.299,0.131l-0.298,0.132l-0.299,0.133l-0.297,0.135l-0.297,0.135l-0.296,0.137l-0.296,0.137l-0.295,0.139l-0.295,0.14l-0.294,0.141l-0.293,0.142l-0.293,0.143l-0.292,0.145l-0.292,0.145l-0.29,0.147l-0.291,0.147l-0.289,0.149l-0.289,0.15l-0.288,0.151l-0.288,0.152l-0.287,0.153l-0.286,0.154l-0.286,0.155l-0.285,0.156l-0.284,0.158l-0.283,0.158l-0.283,0.16l-0.282,0.16l-0.281,0.162l-0.281,0.163l-0.28,0.164l-0.279,0.164l-0.278,0.166l-0.278,0.167l-0.277,0.168l-0.276,0.169l-0.275,0.17l-0.274,0.171l-0.274,0.173l-0.273,0.173l-0.272,0.174l-0.271,0.175l-0.271,0.176l-0.269,0.178l-0.269,0.178l-0.268,0.179l-0.267,0.181l-0.267,0.181l-0.265,0.183l-0.265,0.183l-0.263,0.184l-0.263,0.186l-0.262,0.186l-0.261,0.188l-0.26,0.188l-0.26,0.19l-0.258,0.19l-0.257,0.191l-0.257,0.193l-0.255,0.193l-0.255,0.194l-0.254,0.196l-0.253,0.196l-0.252,0.197l-0.25,0.198l-0.25,0.2l-0.249,0.2l-0.248,0.201l-0.247,0.202l-0.246,0.203l-0.245,0.204l-0.244,0.205l-0.243,0.206l-0.242,0.207l-0.241,0.207l-0.24,0.209l-0.239,0.21l-0.238,0.21l-0.237,0.212l-0.235,0.212l-0.235,0.214l-0.234,0.214l-0.232,0.215l-0.232,0.216l-0.23,0.218l-0.23,0.218l-0.228,0.218l-0.227,0.22l-0.226,0.221l-0.225,0.222l-0.224,0.222l-0.223,0.223l-0.221,0.225l-0.221,0.225l-0.219,0.226l-0.218,0.227l-0.217,0.228l-0.216,0.229l-0.214,0.229l-0.214,0.231l-0.212,0.231l-0.211,0.232l-0.21,0.233l-0.209,0.234l-0.207,0.235l-0.207,0.236l-0.205,0.236l-0.204,0.238l-0.202,0.238l-0.202,0.239l-0.2,0.24l-0.199,0.241l-0.198,0.242l-0.196,0.242l-0.195,0.244l-0.194,0.244l-0.193,0.245l-0.191,0.246l-0.19,0.246l-0.189,0.248l-0.187,0.248l-0.187,0.249l-0.184,0.25l-0.184,0.251l-0.182,0.251l-0.181,0.253l-0.18,0.253l-0.178,0.254l-0.177,0.255l-0.175,0.255l-0.175,0.257l-0.172,0.257l-0.172,0.258l-0.17,0.259l-0.169,0.259l-0.167,0.261l-0.166,0.261l-0.164,0.262l-0.164,0.263l-0.161,0.263l-0.161,0.264l-0.159,0.265l-0.157,0.266l-0.156,0.267l-0.155,0.267l-0.153,0.268l-0.152,0.269l-0.15,0.27l-0.149,0.27l-0.147,0.271l-0.146,0.272l-0.158,0.299l-0.174,0.317l-0.161,0.295l-0.159,0.295l-0.159,0.295l-0.157,0.294l-0.156,0.295l-0.155,0.295l-0.153,0.294l-0.153,0.295l-0.152,0.294l-0.15,0.295l-0.15,0.294l-0.148,0.294l-0.147,0.294l-0.146,0.294l-0.145,0.295l-0.144,0.294l-0.143,0.293l-0.141,0.294l-0.141,0.294l-0.139,0.294l-0.138,0.293l-0.138,0.294l-0.136,0.293l-0.135,0.294l-0.134,0.293l-0.133,0.293l-0.131,0.293l-0.131,0.293l-0.13,0.293l-0.128,0.293l-0.128,0.293l-0.126,0.293l-0.125,0.292l-0.124,0.293l-0.123,0.292l-0.122,0.292l-0.121,0.292l-0.12,0.292l-0.119,0.292l-0.118,0.292l-0.116,0.292l-0.116,0.291l-0.114,0.291l-0.114,0.292l-0.112,0.291l-0.111,0.291l-0.11,0.291l-0.109,0.291l-0.108,0.29l-0.107,0.291l-0.106,0.29l-0.105,0.29l-0.104,0.291l-0.103,0.289l-0.101,0.29l-0.101,0.29l-0.1,0.289l-0.098,0.29l-0.097,0.289l-0.097,0.289l-0.095,0.289l-0.094,0.289l-0.094,0.288l-0.092,0.289l-0.091,0.288l-0.09,0.288l-0.089,0.288l-0.088,0.288l-0.087,0.287l-0.086,0.288l-0.085,0.287l-0.083,0.287l-0.083,0.287l-0.082,0.287l-0.081,0.286l-0.079,0.286l-0.079,0.287l-0.077,0.285l-0.077,0.286l-0.076,0.286l-0.074,0.285l-0.073,0.285l-0.073,0.285l-0.071,0.285l-0.071,0.285l-0.069,0.284l-0.068,0.284l-0.068,0.284l-0.066,0.284l-0.065,0.283l-0.064,0.284l-0.064,0.283l-0.062,0.283l-0.061,0.283l-0.06,0.282l-0.059,0.282l-0.058,0.282l-0.058,0.282l-0.056,0.282l-0.055,0.281l-0.054,0.281l-0.053,0.281l-0.052,0.28l-0.051,0.281l-0.05,0.28l-0.049,0.28l-0.048,0.279l-0.047,0.28l-0.047,0.279l-0.045,0.279l-0.044,0.279l-0.043,0.278l-0.042,0.278l-0.041,0.278l-0.04,0.278l-0.039,0.277l-0.038,0.277l-0.037,0.277l-0.037,0.277l-0.035,0.276l-0.034,0.276l-0.033,0.276l-0.032,0.275l-0.031,0.275l-0.031,0.275l-0.029,0.275l-0.028,0.274l-0.028,0.274l-0.026,0.274l-0.025,0.274l-0.025,0.273l-0.023,0.273l-0.022,0.273l-0.022,0.272l-0.02,0.272l-0.02,0.272l-0.018,0.271l-0.018,0.271l-0.017,0.271l-0.015,0.271l-0.015,0.27l-0.014,0.27l-0.012,0.27l-0.012,0.269l-0.011,0.269l-0.01,0.269l-0.009,0.268l-0.008,0.268l-0.007,0.268l-0.006,0.267l-0.005,0.267l-0.004,0.267l-0.004,0.266l-0.002,0.266l-0.001,0.266l-0.001,0.266l0.008,1.058l0.023,1.053l0.038,1.047l0.053,1.041l0.068,1.036l0.082,1.029l0.097,1.024l0.112,1.017l0.126,1.011l0.141,1.004l0.155,0.998l0.17,0.991l0.183,0.985l0.198,0.978l0.212,0.97l0.226,0.964l0.241,0.956l0.253,0.949l0.268,0.942l0.282,0.934l0.295,0.926l0.309,0.919l0.322,0.91l0.336,0.903l0.35,0.895l0.362,0.886l0.376,0.878l0.39,0.87l0.402,0.861l0.416,0.853l0.428,0.844l0.442,0.835l0.454,0.826l0.468,0.817l0.48,0.808l0.493,0.798l0.505,0.79l0.518,0.779l0.531,0.771l0.543,0.76l0.556,0.751l0.568,0.741l0.581,0.731l0.592,0.721l0.605,0.71l0.617,0.701l0.63,0.69l0.641,0.679l0.654,0.669l0.665,0.658l0.678,0.648l0.689,0.636l0.701,0.625l0.713,0.615l0.725,0.603l0.736,0.591l0.748,0.58l0.76,0.569l0.772,0.557l0.783,0.545l0.794,0.533l0.806,0.521l0.818,0.508l0.829,0.497l0.84,0.484l0.852,0.472l0.862,0.459l0.875,0.446l0.885,0.434l0.897,0.42l0.907,0.408l0.919,0.394l0.697,0.287l0.702,0.279l0.709,0.271l0.715,0.264l0.721,0.257l0.727,0.248l0.734,0.241l0.739,0.232l0.746,0.225l0.752,0.217l0.758,0.209l0.763,0.2l0.77,0.193l0.776,0.184l0.782,0.176l0.788,0.167l0.794,0.159l0.8,0.151l0.805,0.142l0.812,0.134l0.817,0.125l0.824,0.116l1.078,0.143l0.78,0.094l0.781,0.085l0.78,0.076l0.779,0.066l0.779,0.057l0.779,0.047l0.778,0.039l1.036,0.037l1.036,0.021l0.775,0.005l0.259,0l0.258,-0.001l0.258,-0.003l0.258,-0.003l0.258,-0.004l0.258,-0.005l0.258,-0.006l0.258,-0.007l0.257,-0.008l0.258,-0.01l0.257,-0.01l0.258,-0.011l0.257,-0.012l0.257,-0.013l0.257,-0.014l0.257,-0.014l0.257,-0.016l0.256,-0.017l0.257,-0.018l0.257,-0.019l0.256,-0.019l0.256,-0.021l0.256,-0.022l0.256,-0.022l0.256,-0.024l0.256,-0.024l0.255,-0.025l0.256,-0.027l0.255,-0.027l0.255,-0.028l0.255,-0.029l0.255,-0.031l0.255,-0.031l0.255,-0.031l0.254,-0.033l0.254,-0.034l0.255,-0.035l0.254,-0.036l0.254,-0.036l0.253,-0.038l0.254,-0.038l0.253,-0.039l0.254,-0.041l0.253,-0.041l0.253,-0.042l0.252,-0.043l0.253,-0.044l0.253,-0.045l0.252,-0.045l0.252,-0.047l0.252,-0.048l0.252,-0.048l0.251,-0.049l0.252,-0.05l0.251,-0.052l0.251,-0.052l0.251,-0.052l0.25,-0.054l0.251,-0.055l0.25,-0.055l0.25,-0.057l0.25,-0.057l0.25,-0.058l0.25,-0.059l0.249,-0.06l0.249,-0.061l0.249,-0.062l0.249,-0.062l0.248,-0.064l0.248,-0.064l0.249,-0.065l0.247,-0.066l0.248,-0.067l0.247,-0.068l0.248,-0.069l0.247,-0.069l0.246,-0.07l0.247,-0.072l0.246,-0.072l0.247,-0.072l0.245,-0.074l0.246,-0.075l0.245,-0.075l0.246,-0.076l0.245,-0.077l0.244,-0.078l0.245,-0.079l0.244,-0.08l0.244,-0.08l0.244,-0.081l0.243,-0.082l0.243,-0.083l0.243,-0.084l0.243,-0.085l0.242,-0.085l0.243,-0.086l0.242,-0.087l0.241,-0.088l0.242,-0.088l0.241,-0.09l0.241,-0.09l0.24,-0.091l0.241,-0.092l0.24,-0.093l0.239,-0.093l0.24,-0.094l0.239,-0.096l0.239,-0.095l0.239,-0.097l0.238,-0.097l0.238,-0.099l0.238,-0.099l0.237,-0.1l0.238,-0.1l0.236,-0.101l0.237,-0.103l0.236,-0.103l0.236,-0.103l0.236,-0.105l0.235,-0.105l0.236,-0.106l0.234,-0.107l0.235,-0.107l0.234,-0.109l0.234,-0.109l0.233,-0.11l0.233,-0.11l0.233,-0.112l0.233,-0.112l0.232,-0.113l0.232,-0.113l0.231,-0.115l0.232,-0.115l0.23,-0.116l0.231,-0.117l0.23,-0.117l0.23,-0.118l0.23,-0.119l0.229,-0.12l0.229,-0.12l0.228,-0.121l0.228,-0.122l0.228,-0.122l0.227,-0.123l0.227,-0.124l0.227,-0.125l0.227,-0.126l0.225,-0.126l0.226,-0.127l0.225,-0.127l0.225,-0.128l0.225,-0.129l0.224,-0.13l0.224,-0.131l0.223,-0.131l0.223,-0.132l0.223,-0.132l0.222,-0.133l0.222,-0.134l0.221,-0.135l0.221,-0.135l0.221,-0.136l0.22,-0.137l0.22,-0.137l0.22,-0.138l0.219,-0.139l0.218,-0.14l0.219,-0.14l0.218,-0.141l0.217,-0.141l0.217,-0.142l0.217,-0.143l0.216,-0.144l0.216,-0.144l0.215,-0.145l0.215,-0.145l0.215,-0.146l0.214,-0.147l0.214,-0.148l0.213,-0.148l0.213,-0.149l0.212,-0.149l0.212,-0.15l0.212,-0.151l0.211,-0.151l0.211,-0.152l0.21,-0.153l0.21,-0.153l0.209,-0.154l0.209,-0.155l0.208,-0.155l0.208,-0.156l0.208,-0.157l0.207,-0.157l0.207,-0.157l0.206,-0.159l0.206,-0.159l0.205,-0.159l0.205,-0.161l0.204,-0.161l0.204,-0.161l0.203,-0.162l0.203,-0.163l0.202,-0.163l0.202,-0.164l0.202,-0.165l0.201,-0.165l0.2,-0.166l0.2,-0.166l0.2,-0.167l0.199,-0.167l0.198,-0.168l0.198,-0.169l0.198,-0.169l0.197,-0.17l0.197,-0.171l0.196,-0.171l0.195,-0.171l0.195,-0.173l0.195,-0.173l0.194,-0.173l0.193,-0.174l0.193,-0.174l0.193,-0.175l0.192,-0.176l0.191,-0.176l0.191,-0.177l0.19,-0.177l0.19,-0.178l0.189,-0.179l0.189,-0.179l0.188,-0.179l0.188,-0.18l0.187,-0.181l0.187,-0.181l0.186,-0.182l0.186,-0.182l0.185,-0.183l0.184,-0.183l0.184,-0.184l0.184,-0.185l0.182,-0.184l0.183,-0.186l0.181,-0.186l0.182,-0.187l0.18,-0.187l0.18,-0.187l0.18,-0.188l0.178,-0.189l0.179,-0.189l0.178,-0.19l0.177,-0.19l0.176,-0.191l0.176,-0.191l0.176,-0.191l0.175,-0.193l0.174,-0.192l0.174,-0.193l0.173,-0.194l0.172,-0.194l0.172,-0.195l0.172,-0.195l0.171,-0.196l0.17,-0.196l0.169,-0.196l0.169,-0.198l0.169,-0.197l0.167,-0.198l0.167,-0.199l0.167,-0.199l0.166,-0.199l0.165,-0.2l0.165,-0.201l0.164,-0.2l0.164,-0.202l0.162,-0.202l0.163,-0.202l0.161,-0.203l0.161,-0.203l0.161,-0.203l0.159,-0.205l0.16,-0.204l0.158,-0.205l0.158,-0.205l0.157,-0.206l0.157,-0.207l0.155,-0.206l0.156,-0.208l0.154,-0.207l0.154,-0.208l0.154,-0.209l0.152,-0.209l0.152,-0.209l0.152,-0.21l0.15,-0.21l0.15,-0.21l0.15,-0.211l0.149,-0.212l0.148,-0.212l0.147,-0.212l0.147,-0.213l0.146,-0.213l0.145,-0.213l0.145,-0.214l0.144,-0.214l0.143,-0.215l0.143,-0.215l0.142,-0.215l0.141,-0.216l0.141,-0.217l0.14,-0.216l0.139,-0.217l0.139,-0.218l0.138,-0.217l0.137,-0.219l0.136,-0.218l0.136,-0.219l0.135,-0.219l0.135,-0.22l0.133,-0.22l0.133,-0.221l0.132,-0.22l0.132,-0.221l0.131,-0.222l0.13,-0.222l0.129,-0.222l0.129,-0.223l0.128,-0.222l0.127,-0.224l0.127,-0.223l0.126,-0.224l0.125,-0.225l0.124,-0.224l0.124,-0.225l0.122,-0.226l0.123,-0.225l0.121,-0.226l0.121,-0.227l0.12,-0.226l0.119,-0.227l0.118,-0.227l0.118,-0.228l0.117,-0.228l0.116,-0.228l0.115,-0.229l0.115,-0.229l0.114,-0.229l0.113,-0.23l0.113,-0.23l0.111,-0.23l0.111,-0.23l0.11,-0.231l0.11,-0.231l0.108,-0.231l0.108,-0.232l0.107,-0.232l0.106,-0.232l0.106,-0.233l0.105,-0.233l0.104,-0.233l0.103,-0.233l0.102,-0.234l0.102,-0.234l0.101,-0.234l0.1,-0.234l0.099,-0.235l0.098,-0.235l0.098,-0.236l0.097,-0.235l0.096,-0.236l0.095,-0.236l0.095,-0.237l0.093,-0.236l0.093,-0.237l0.092,-0.237l0.091,-0.238l0.091,-0.237l0.089,-0.238l0.089,-0.238l0.088,-0.239l0.087,-0.238l0.087,-0.239l0.085,-0.239l0.085,-0.24l0.084,-0.239l0.083,-0.24l0.082,-0.24l0.082,-0.241l0.08,-0.24l0.08,-0.241l0.079,-0.241l0.078,-0.241l0.077,-0.241l0.076,-0.242l0.076,-0.242l0.075,-0.242l0.073,-0.242l0.073,-0.243l0.073,-0.242l0.071,-0.243l0.07,-0.243l0.07,-0.244l0.069,-0.243l0.068,-0.244l0.067,-0.244l0.066,-0.244l0.065,-0.244l0.064,-0.244l0.064,-0.245l0.063,-0.245l0.062,-0.245l0.06,-0.245l0.061,-0.245l0.059,-0.246l0.058,-0.246l0.057,-0.245l0.057,-0.247l0.056,-0.246l0.054,-0.246l0.054,-0.247l0.053,-0.247l0.053,-0.246l0.051,-0.247l0.05,-0.248l0.05,-0.247l0.048,-0.247l0.048,-0.248l0.046,-0.248l0.046,-0.248l0.045,-0.248l0.044,-0.248l0.043,-0.249l0.043,-0.248l0.041,-0.249l0.04,-0.249l0.04,-0.249l0.038,-0.249l0.038,-0.249l0.037,-0.249l0.036,-0.25l0.035,-0.249l0.033,-0.25l0.034,-0.25l0.032,-0.25l0.031,-0.25l0.03,-0.25l0.029,-0.25l0.029,-0.251l0.027,-0.25l0.027,-0.251l0.025,-0.251l0.025,-0.251l0.024,-0.25l0.022,-0.251l0.022,-0.252l0.021,-0.251l0.02,-0.251l0.019,-0.252l0.018,-0.251l0.017,-0.252l0.016,-0.251l0.015,-0.252l0.014,-0.252l0.013,-0.252l0.012,-0.252l0.012,-0.252l0.01,-0.252l0.009,-0.253l0.009,-0.252l0.007,-0.252l0.006,-0.253l0.006,-0.252l0.004,-0.253l0.004,-0.253l0.002,-0.252l0.001,-0.253l0.001,-0.251l-0.001,-0.413l-0.004,-0.411l-0.007,-0.41l-0.01,-0.409l-0.012,-0.41l-0.014,-0.408l-0.018,-0.408l-0.02,-0.408l-0.022,-0.407l-0.026,-0.407l-0.027,-0.406l-0.031,-0.406l-0.033,-0.405l-0.036,-0.404l-0.038,-0.404l-0.04,-0.404l-0.044,-0.402l-0.045,-0.403l-0.049,-0.401l-0.051,-0.401l-0.053,-0.401l-0.056,-0.4l-0.058,-0.399l-0.061,-0.398l-0.063,-0.398l-0.066,-0.398l-0.068,-0.396l-0.071,-0.396l-0.073,-0.395l-0.075,-0.395l-0.078,-0.394l-0.08,-0.393l-0.083,-0.393l-0.085,-0.391l-0.087,-0.391l-0.09,-0.391l-0.092,-0.389l-0.094,-0.389l-0.097,-0.388l-0.099,-0.387l-0.101,-0.387l-0.104,-0.385l-0.106,-0.385l-0.108,-0.384l-0.11,-0.383l-0.113,-0.383l-0.115,-0.381l-0.117,-0.381l-0.119,-0.38l-0.122,-0.379l-0.124,-0.378l-0.126,-0.377l-0.128,-0.376l-0.13,-0.376l-0.133,-0.374l-0.134,-0.374l-0.137,-0.372l-0.139,-0.372l-0.141,-0.371l-0.143,-0.369l-0.146,-0.369l-0.147,-0.368l-0.149,-0.367l-0.152,-0.366l-0.154,-0.365l-0.155,-0.363l-0.158,-0.363l-0.16,-0.362l-0.161,-0.361l-0.164,-0.359l-0.166,-0.359l-0.168,-0.357l-0.169,-0.357l-0.172,-0.355l-0.174,-0.354l-0.175,-0.353l-0.178,-0.352l-0.179,-0.351l-0.181,-0.349l-0.184,-0.349l-0.185,-0.347l-0.187,-0.346l-0.189,-0.346l-0.19,-0.343l-0.193,-0.343l-0.195,-0.341l-0.196,-0.34l-0.198,-0.339l-0.2,-0.338l-0.202,-0.337l-0.203,-0.335l-0.205,-0.334l-0.207,-0.332l-0.209,-0.332l-0.211,-0.33l-0.212,-0.328l-0.214,-0.328l-0.216,-0.326l-0.217,-0.325l-0.219,-0.323l-0.221,-0.322l-0.223,-0.321l-0.224,-0.319l-0.226,-0.318l-0.227,-0.316l-0.229,-0.315l-0.231,-0.314l-0.232,-0.312l-0.234,-0.311l-0.236,-0.31l-0.237,-0.308l-0.238,-0.306l-0.24,-0.305l-0.242,-0.304l-0.243,-0.302l-0.245,-0.3l-0.246,-0.299l-0.248,-0.298l-0.249,-0.296l-0.251,-0.294l-0.252,-0.293l-0.254,-0.291l-0.255,-0.29l-0.256,-0.288l-0.258,-0.287l-0.26,-0.285l-0.26,-0.283l-0.262,-0.282l-0.264,-0.28l-0.265,-0.278l-0.266,-0.277l-0.267,-0.275l-0.269,-0.274l-0.27,-0.271l-0.272,-0.271l-0.273,-0.268l-0.274,-0.267l-0.275,-0.265l-0.277,-0.263l-0.278,-0.262l-0.279,-0.259l-0.28,-0.259l-0.282,-0.256l-0.282,-0.254l-0.284,-0.253l-0.285,-0.251l-0.287,-0.249l-0.287,-0.248l-0.289,-0.245l-0.29,-0.244l-0.291,-0.242l-0.292,-0.24l-0.293,-0.238l-0.294,-0.236l-0.295,-0.235l-0.296,-0.232l-0.298,-0.231l-0.298,-0.229l-0.3,-0.227l-0.3,-0.225l-0.302,-0.223l-0.302,-0.221l-0.304,-0.219l-0.304,-0.217l-0.306,-0.215l-0.306,-0.214l-0.308,-0.211l-0.308,-0.209l-0.309,-0.207l-0.31,-0.206l-0.311,-0.203l-0.312,-0.201l-0.313,-0.199l-0.314,-0.197l-0.314,-0.196l-0.315,-0.193l-0.317,-0.19l-0.317,-0.189l-0.317,-0.187l-0.319,-0.185l-0.319,-0.182l-0.321,-0.181l-0.321,-0.178l-0.321,-0.176l-0.323,-0.174l-0.323,-0.172l-0.324,-0.17l-0.324,-0.168l-0.325,-0.165l-0.326,-0.163l-0.327,-0.161l-0.327,-0.159l-0.328,-0.157l-0.329,-0.154l-0.329,-0.152l-0.33,-0.15l-0.33,-0.148l-0.331,-0.145l-0.332,-0.144l-0.332,-0.141l-0.332,-0.138l-0.334,-0.137l-0.333,-0.134l-0.335,-0.131l-0.334,-0.13l-0.336,-0.127l-0.335,-0.125l-0.337,-0.122l-0.336,-0.12l-0.338,-0.118l-0.337,-0.116l-0.338,-0.113l-0.339,-0.11l-0.339,-0.109l-0.339,-0.106l-0.34,-0.103l-0.34,-0.101l-0.34,-0.099l-0.341,-0.096l-0.341,-0.094l-0.342,-0.092l-0.342,-0.089l-0.342,-0.086l-0.342,-0.084l-0.343,-0.082l-0.343,-0.079l-0.343,-0.076l-0.344,-0.075l-0.344,-0.071l-0.344,-0.069l-0.344,-0.067l-0.345,-0.064l-0.345,-0.062l-0.345,-0.059l-0.345,-0.056l-0.345,-0.054l-0.345,-0.052l-0.346,-0.049l-0.346,-0.046l-0.346,-0.044l-0.346,-0.041l-0.346,-0.038l-0.347,-0.036l-0.346,-0.033l-0.347,-0.031l-0.346,-0.028l-0.347,-0.025l-0.347,-0.023l-0.347,-0.02l-0.347,-0.018l-0.347,-0.015l-0.347,-0.012l-0.347,-0.009l-0.347,-0.007l-0.347,-0.004l-0.349,-0.001l-0.318,0Z"/></g></g></svg>