<?xml version="1.0" encoding="UTF-8" standalone="no"?><!DOCTYPE svg PUBLIC "-//W3C//DTD SVG 1.1//EN" "http://www.w3.org/Graphics/SVG/1.1/DTD/svg11.dtd"><svg width="100%" height="100%" viewBox="0 0 380 340" version="1.1" xmlns="http://www.w3.org/2000/svg" xmlns:xlink="http://www.w3.org/1999/xlink" xml:space="preserve" style="fill-rule:evenodd;clip-rule:evenodd;stroke-linejoin:round;stroke-miterlimit:1.41421;"><g><g><g id="path"><path id="path2" d="M250.557,260.527l0.009,0.002l0.19,0.036l0.191,0.035l0.19,0.034l0.19,0.032l0.19,0.032l0.19,0.031l0.19,0.03l0.189,0.029l0.19,0.028l0.189,0.027l0.189,0.026l0.189,0.025l0.189,0.024l0.189,0.023l0.188,0.022l0.188,0.021l0.188,0.021l0.188,0.019l0.188,0.019l0.187,0.018l0.187,0.017l0.187,0.016l0.186,0.015l0.187,0.014l0.186,0.014l0.185,0.012l0.186,0.012l0.185,0.011l0.185,0.01l0.184,0.009l0.184,0.009l0.184,0.008l0.183,0.007l0.183,0.006l0.183,0.005l0.182,0.005l0.182,0.004l0.181,0.003l0.181,0.002l0.179,0.002l0.109,0l0.367,0.036l0.355,0.102l0.33,0.165l0.293,0.224l0.248,0.273l0.193,0.315l0.133,0.344l0.066,0.363l-0.001,0.369l-0.069,0.363l-0.135,0.344l-0.195,0.313l-0.249,0.272l-0.296,0.221l-0.331,0.164l-0.355,0.099l-0.368,0.033l-0.12,0l-0.199,-0.002l-0.197,-0.003l-0.197,-0.003l-0.199,-0.004l-0.198,-0.005l-0.199,-0.006l-0.2,-0.007l-0.2,-0.008l-0.201,-0.008l-0.201,-0.009l-0.201,-0.011l-0.202,-0.011l-0.202,-0.012l-0.203,-0.012l-0.203,-0.014l-0.204,-0.015l-0.203,-0.016l-0.205,-0.016l-0.204,-0.018l-0.205,-0.018l-0.206,-0.02l-0.206,-0.02l-0.206,-0.022l-0.206,-0.022l-0.207,-0.023l-0.207,-0.025l-0.207,-0.025l-0.208,-0.027l-0.208,-0.027l-0.208,-0.029l-0.208,-0.03l-0.209,-0.03l-0.209,-0.032l-0.209,-0.033l-0.21,-0.034l-0.21,-0.035l-0.209,-0.036l-0.211,-0.038l-0.21,-0.038l-0.21,-0.04l-0.019,-0.004l-0.355,-0.103l-0.329,-0.167l-0.293,-0.224l-0.247,-0.274l-0.192,-0.315l-0.131,-0.345l-0.066,-0.364l0.003,-0.369l0.07,-0.362l0.135,-0.343l0.197,-0.313l0.25,-0.271l0.296,-0.22l0.331,-0.163l0.356,-0.099l0.368,-0.031l0.367,0.036Zm25.424,-2.564l0.359,0.085l0.337,0.15l0.304,0.209l0.261,0.262l0.207,0.305l0.149,0.338l0.083,0.359l0.016,0.369l-0.051,0.365l-0.119,0.35l-0.18,0.322l-0.236,0.283l-0.285,0.236l-0.323,0.178l-0.251,0.11l-0.304,0.13l-0.155,0.066l-0.154,0.063l-0.153,0.063l-0.154,0.062l-0.154,0.06l-0.154,0.061l-0.154,0.059l-0.154,0.059l-0.154,0.057l-0.155,0.057l-0.154,0.056l-0.155,0.055l-0.155,0.055l-0.155,0.053l-0.155,0.053l-0.155,0.052l-0.156,0.05l-0.156,0.051l-0.216,0.068l-0.222,0.069l-0.228,0.068l-0.232,0.068l-0.237,0.069l-0.242,0.068l-0.247,0.067l-0.252,0.068l-0.257,0.067l-0.261,0.066l-0.266,0.066l-0.27,0.065l-0.275,0.065l-0.28,0.064l-0.283,0.063l-0.288,0.062l-0.293,0.062l-0.296,0.06l-0.067,0.013l-0.367,0.038l-0.368,-0.031l-0.356,-0.097l-0.332,-0.161l-0.297,-0.22l-0.251,-0.27l-0.197,-0.312l-0.137,-0.343l-0.071,-0.362l-0.004,-0.369l0.064,-0.363l0.13,-0.346l0.191,-0.316l0.246,-0.275l0.292,-0.225l0.329,-0.168l0.354,-0.104l0.055,-0.011l0.273,-0.056l0.268,-0.056l0.265,-0.057l0.26,-0.058l0.256,-0.059l0.251,-0.059l0.247,-0.059l0.243,-0.061l0.237,-0.06l0.233,-0.061l0.228,-0.061l0.224,-0.061l0.218,-0.061l0.213,-0.061l0.208,-0.062l0.202,-0.061l0.198,-0.06l0.192,-0.061l0.135,-0.044l0.135,-0.044l0.136,-0.045l0.135,-0.046l0.136,-0.047l0.136,-0.048l0.135,-0.048l0.136,-0.049l0.135,-0.05l0.136,-0.051l0.136,-0.051l0.135,-0.053l0.136,-0.053l0.136,-0.053l0.135,-0.055l0.136,-0.055l0.136,-0.056l0.133,-0.056l0.274,-0.117l0.233,-0.103l0.351,-0.116l0.365,-0.05l0.369,0.018Zm-41.554,-5.071l0.358,0.093l0.334,0.157l0.299,0.215l0.045,0.04l0.17,0.145l0.17,0.144l0.171,0.143l0.172,0.14l0.172,0.139l0.172,0.138l0.173,0.136l0.173,0.134l0.174,0.132l0.175,0.131l0.175,0.129l0.175,0.128l0.176,0.126l0.176,0.125l0.177,0.123l0.178,0.121l0.177,0.12l0.178,0.119l0.179,0.117l0.179,0.115l0.179,0.114l0.18,0.112l0.18,0.111l0.181,0.109l0.181,0.108l0.181,0.107l0.182,0.105l0.182,0.103l0.182,0.102l0.183,0.101l0.183,0.099l0.184,0.098l0.183,0.096l0.184,0.095l0.134,0.068l0.313,0.197l0.271,0.251l0.22,0.296l0.162,0.332l0.098,0.355l0.031,0.368l-0.037,0.367l-0.103,0.355l-0.167,0.329l-0.225,0.293l-0.275,0.246l-0.315,0.192l-0.345,0.131l-0.364,0.065l-0.369,-0.003l-0.362,-0.071l-0.343,-0.136l-0.146,-0.074l-0.208,-0.107l-0.207,-0.109l-0.208,-0.111l-0.207,-0.112l-0.206,-0.113l-0.206,-0.116l-0.206,-0.117l-0.206,-0.119l-0.205,-0.12l-0.205,-0.122l-0.204,-0.124l-0.204,-0.125l-0.203,-0.127l-0.203,-0.129l-0.203,-0.131l-0.202,-0.132l-0.202,-0.134l-0.201,-0.136l-0.201,-0.138l-0.2,-0.139l-0.2,-0.141l-0.199,-0.143l-0.198,-0.144l-0.198,-0.147l-0.198,-0.148l-0.197,-0.15l-0.196,-0.152l-0.196,-0.154l-0.195,-0.155l-0.195,-0.158l-0.194,-0.159l-0.193,-0.161l-0.193,-0.163l-0.192,-0.164l-0.056,-0.049l-0.255,-0.267l-0.201,-0.31l-0.141,-0.341l-0.076,-0.361l-0.009,-0.369l0.06,-0.364l0.125,-0.347l0.188,-0.318l0.242,-0.279l0.289,-0.229l0.327,-0.172l0.353,-0.109l0.366,-0.042l0.368,0.026Zm56.165,-5.315l0.358,0.09l0.335,0.154l0.301,0.213l0.257,0.265l0.204,0.308l0.144,0.339l0.079,0.361l0.012,0.369l-0.057,0.365l-0.122,0.348l-0.185,0.319l-0.24,0.281l-0.133,0.129l-0.284,0.272l-0.283,0.27l-0.285,0.268l-0.284,0.265l-0.285,0.263l-0.285,0.261l-0.286,0.258l-0.286,0.256l-0.286,0.254l-0.287,0.251l-0.287,0.248l-0.288,0.247l-0.288,0.244l-0.289,0.241l-0.289,0.239l-0.289,0.236l-0.29,0.234l-0.29,0.232l-0.29,0.228l-0.291,0.227l-0.292,0.223l-0.061,0.047l-0.314,0.195l-0.344,0.133l-0.363,0.069l-0.369,0l-0.363,-0.067l-0.344,-0.133l-0.314,-0.194l-0.273,-0.248l-0.223,-0.294l-0.165,-0.33l-0.101,-0.355l-0.035,-0.368l0.034,-0.367l0.1,-0.355l0.164,-0.331l0.222,-0.295l0.273,-0.249l0.051,-0.039l0.272,-0.208l0.271,-0.211l0.271,-0.214l0.271,-0.216l0.271,-0.219l0.271,-0.221l0.271,-0.224l0.271,-0.227l0.271,-0.229l0.271,-0.232l0.27,-0.234l0.271,-0.237l0.27,-0.239l0.27,-0.242l0.27,-0.244l0.27,-0.247l0.27,-0.249l0.27,-0.252l0.27,-0.254l0.269,-0.256l0.27,-0.259l0.126,-0.123l0.287,-0.231l0.326,-0.175l0.351,-0.112l0.367,-0.045l0.368,0.023Zm-66.252,-9.444l0.362,0.073l0.342,0.139l0.311,0.199l0.268,0.253l0.218,0.298l0.159,0.333l0.031,0.083l0.116,0.308l0.118,0.306l0.12,0.305l0.121,0.302l0.124,0.3l0.125,0.298l0.127,0.296l0.129,0.294l0.131,0.291l0.132,0.289l0.135,0.286l0.136,0.284l0.138,0.282l0.141,0.281l0.07,0.136l0.071,0.138l0.071,0.137l0.072,0.136l0.073,0.136l0.073,0.135l0.073,0.135l0.074,0.134l0.075,0.132l0.075,0.133l0.075,0.131l0.076,0.131l0.076,0.13l0.077,0.13l0.077,0.128l0.078,0.128l0.078,0.128l0.078,0.126l0.079,0.126l0.055,0.086l0.169,0.328l0.106,0.354l0.038,0.367l-0.029,0.368l-0.097,0.356l-0.16,0.332l-0.219,0.298l-0.269,0.252l-0.311,0.198l-0.343,0.138l-0.362,0.072l-0.369,0.005l-0.363,-0.063l-0.346,-0.129l-0.316,-0.19l-0.276,-0.246l-0.226,-0.291l-0.061,-0.096l-0.091,-0.144l-0.09,-0.144l-0.089,-0.146l-0.089,-0.146l-0.088,-0.146l-0.087,-0.147l-0.087,-0.148l-0.086,-0.149l-0.085,-0.149l-0.085,-0.149l-0.084,-0.151l-0.083,-0.151l-0.083,-0.151l-0.082,-0.152l-0.081,-0.153l-0.081,-0.153l-0.08,-0.153l-0.08,-0.155l-0.08,-0.156l-0.155,-0.31l-0.154,-0.313l-0.151,-0.315l-0.149,-0.318l-0.147,-0.319l-0.144,-0.321l-0.142,-0.324l-0.139,-0.325l-0.138,-0.326l-0.135,-0.329l-0.133,-0.33l-0.13,-0.332l-0.129,-0.333l-0.126,-0.335l-0.035,-0.095l-0.095,-0.357l-0.029,-0.368l0.04,-0.367l0.107,-0.353l0.17,-0.328l0.227,-0.291l0.277,-0.244l0.316,-0.189l0.347,-0.128l0.363,-0.062l0.369,0.006Zm78.064,-4.153l0.355,0.1l0.331,0.163l0.295,0.222l0.249,0.272l0.195,0.313l0.135,0.344l0.069,0.363l0.001,0.369l-0.067,0.363l-0.132,0.344l-0.194,0.315l-0.256,0.341l-0.268,0.355l-0.269,0.353l-0.268,0.352l-0.269,0.35l-0.27,0.349l-0.27,0.347l-0.27,0.345l-0.27,0.343l-0.271,0.342l-0.271,0.34l-0.271,0.338l-0.272,0.337l-0.272,0.335l-0.273,0.333l-0.273,0.331l-0.273,0.329l-0.273,0.328l-0.176,0.209l-0.262,0.259l-0.306,0.207l-0.339,0.147l-0.359,0.082l-0.369,0.015l-0.365,-0.054l-0.35,-0.119l-0.321,-0.182l-0.282,-0.237l-0.235,-0.286l-0.177,-0.323l-0.115,-0.351l-0.049,-0.366l0.019,-0.368l0.087,-0.359l0.151,-0.337l0.211,-0.303l0.171,-0.203l0.265,-0.317l0.264,-0.32l0.265,-0.321l0.264,-0.322l0.264,-0.325l0.264,-0.327l0.263,-0.328l0.264,-0.331l0.263,-0.332l0.263,-0.334l0.263,-0.336l0.262,-0.337l0.262,-0.339l0.262,-0.341l0.262,-0.343l0.262,-0.345l0.261,-0.346l0.253,-0.337l0.248,-0.273l0.294,-0.224l0.33,-0.165l0.355,-0.102l0.367,-0.035l0.368,0.033Zm-81.84,-13.363l0.357,0.093l0.333,0.158l0.299,0.217l0.254,0.267l0.201,0.31l0.14,0.342l0.075,0.361l0.007,0.062l0.04,0.339l0.04,0.339l0.042,0.34l0.043,0.34l0.044,0.341l0.046,0.342l0.046,0.341l0.048,0.343l0.05,0.342l0.05,0.343l0.052,0.344l0.054,0.343l0.054,0.344l0.056,0.343l0.057,0.344l0.059,0.343l0.06,0.344l0.062,0.343l0.063,0.344l0.064,0.343l0.066,0.342l0.067,0.343l0.029,0.142l0.039,0.367l-0.029,0.368l-0.097,0.356l-0.16,0.333l-0.218,0.297l-0.27,0.252l-0.311,0.199l-0.342,0.138l-0.362,0.073l-0.369,0.005l-0.364,-0.063l-0.345,-0.129l-0.317,-0.19l-0.276,-0.245l-0.226,-0.292l-0.169,-0.328l-0.106,-0.353l-0.03,-0.15l-0.071,-0.36l-0.069,-0.359l-0.067,-0.36l-0.066,-0.359l-0.065,-0.36l-0.062,-0.359l-0.062,-0.359l-0.06,-0.359l-0.058,-0.359l-0.057,-0.359l-0.056,-0.358l-0.054,-0.357l-0.052,-0.358l-0.052,-0.357l-0.05,-0.356l-0.048,-0.356l-0.048,-0.355l-0.046,-0.354l-0.044,-0.354l-0.044,-0.353l-0.042,-0.352l-0.041,-0.351l-0.007,-0.069l-0.008,-0.369l0.061,-0.364l0.126,-0.347l0.188,-0.317l0.243,-0.278l0.29,-0.228l0.327,-0.172l0.353,-0.108l0.367,-0.041l0.368,0.027Zm91.783,-1.545l0.362,0.069l0.344,0.135l0.313,0.195l0.272,0.25l0.221,0.295l0.163,0.331l0.1,0.355l0.033,0.368l-0.036,0.367l-0.102,0.355l-0.166,0.33l-0.021,0.034l-0.255,0.406l-0.255,0.406l-0.255,0.404l-0.255,0.403l-0.256,0.402l-0.257,0.401l-0.256,0.401l-0.257,0.399l-0.257,0.398l-0.258,0.397l-0.258,0.395l-0.258,0.395l-0.259,0.393l-0.259,0.393l-0.259,0.391l-0.26,0.39l-0.242,0.363l-0.233,0.286l-0.281,0.239l-0.32,0.183l-0.349,0.121l-0.365,0.055l-0.369,-0.013l-0.36,-0.08l-0.339,-0.145l-0.307,-0.206l-0.264,-0.258l-0.212,-0.302l-0.153,-0.336l-0.088,-0.358l-0.021,-0.369l0.047,-0.366l0.113,-0.351l0.176,-0.324l0.24,-0.359l0.255,-0.383l0.255,-0.385l0.255,-0.386l0.254,-0.387l0.254,-0.388l0.254,-0.389l0.253,-0.391l0.254,-0.392l0.253,-0.393l0.252,-0.394l0.253,-0.395l0.252,-0.396l0.252,-0.398l0.251,-0.398l0.252,-0.4l0.251,-0.4l0.019,-0.031l0.224,-0.294l0.273,-0.248l0.315,-0.193l0.344,-0.132l0.363,-0.066l0.37,0.001Zm-92.597,-16.442l0.362,0.075l0.341,0.139l0.311,0.2l0.268,0.253l0.217,0.298l0.159,0.333l0.095,0.357l0.028,0.368l-0.042,2.409l-0.007,0.468l-0.005,0.479l-0.003,0.493l0,0.504l0.001,0.517l0.004,0.529l0.006,0.54l0.009,0.55l0.012,0.561l0.015,0.571l0.008,0.283l-0.023,0.368l-0.09,0.358l-0.154,0.336l-0.214,0.301l-0.265,0.256l-0.308,0.204l-0.34,0.144l-0.36,0.078l-0.369,0.011l-0.365,-0.056l-0.348,-0.123l-0.32,-0.185l-0.28,-0.24l-0.231,-0.288l-0.174,-0.325l-0.112,-0.352l-0.045,-0.366l-0.009,-0.293l-0.015,-0.59l-0.012,-0.579l-0.009,-0.568l-0.007,-0.558l-0.004,-0.546l-0.001,-0.534l0,-0.523l0.003,-0.509l0.005,-0.498l0.007,-0.482l0.042,-2.414l0.041,-0.367l0.107,-0.353l0.17,-0.328l0.228,-0.291l0.277,-0.243l0.317,-0.189l0.346,-0.128l0.364,-0.061l0.369,0.006Zm102,0.979l0.35,0.117l0.322,0.18l0.283,0.236l0.236,0.285l0.179,0.322l0.117,0.35l0.051,0.366l-0.018,0.369l-0.085,0.359l-0.149,0.337l-0.027,0.049l-0.484,0.862l-0.486,0.861l-0.487,0.86l-0.488,0.857l-0.49,0.855l-0.491,0.853l-0.492,0.851l-0.494,0.848l-0.05,0.086l-0.215,0.3l-0.266,0.255l-0.309,0.202l-0.341,0.142l-0.361,0.076l-0.369,0.01l-0.364,-0.059l-0.348,-0.125l-0.318,-0.186l-0.279,-0.242l-0.23,-0.289l-0.172,-0.326l-0.11,-0.353l-0.043,-0.366l0.025,-0.369l0.092,-0.357l0.156,-0.334l0.048,-0.082l0.489,-0.839l0.487,-0.843l0.486,-0.844l0.486,-0.848l0.483,-0.849l0.483,-0.852l0.481,-0.854l0.48,-0.855l0.026,-0.045l0.208,-0.304l0.262,-0.261l0.304,-0.208l0.338,-0.149l0.36,-0.084l0.368,-0.017l0.366,0.052Zm8.503,-15.848l0.353,0.108l0.327,0.172l0.29,0.228l0.243,0.278l0.187,0.318l0.126,0.347l0.06,0.364l-0.008,0.369l-0.075,0.361l-0.141,0.342l-0.138,0.263l-0.458,0.871l-0.46,0.872l-0.461,0.872l-0.462,0.872l-0.464,0.873l-0.466,0.873l-0.467,0.872l-0.383,0.715l-0.204,0.307l-0.257,0.265l-0.301,0.214l-0.335,0.154l-0.358,0.09l-0.368,0.023l-0.367,-0.045l-0.351,-0.112l-0.326,-0.175l-0.287,-0.231l-0.24,-0.28l-0.185,-0.32l-0.123,-0.348l-0.056,-0.365l0.011,-0.369l0.079,-0.36l0.144,-0.34l0.382,-0.712l0.464,-0.868l0.463,-0.868l0.462,-0.869l0.46,-0.868l0.459,-0.868l0.458,-0.868l0.456,-0.867l0.137,-0.262l0.201,-0.31l0.255,-0.267l0.299,-0.216l0.334,-0.157l0.357,-0.094l0.368,-0.026l0.366,0.042Zm-110.19,-3.128l0.362,0.074l0.341,0.14l0.311,0.199l0.268,0.254l0.217,0.298l0.159,0.333l0.095,0.357l0.028,0.368l-0.139,7.999l-0.041,0.366l-0.107,0.354l-0.17,0.327l-0.228,0.291l-0.277,0.244l-0.317,0.188l-0.346,0.128l-0.364,0.061l-0.369,-0.006l-0.362,-0.074l-0.342,-0.14l-0.31,-0.199l-0.268,-0.254l-0.218,-0.298l-0.158,-0.333l-0.095,-0.357l-0.028,-0.368l0.139,-7.999l0.041,-0.367l0.107,-0.353l0.17,-0.327l0.228,-0.291l0.277,-0.244l0.317,-0.188l0.346,-0.128l0.364,-0.061l0.369,0.006Zm118.445,-12.863l0.353,0.106l0.329,0.168l0.291,0.226l0.246,0.276l0.19,0.317l0.129,0.345l0.063,0.364l-0.005,0.369l-0.072,0.362l-0.138,0.342l-1.725,3.359l-0.873,1.696l-0.878,1.706l-0.184,0.357l-0.199,0.311l-0.253,0.269l-0.298,0.218l-0.332,0.16l-0.357,0.095l-0.368,0.029l-0.367,-0.039l-0.353,-0.106l-0.328,-0.17l-0.291,-0.226l-0.245,-0.277l-0.19,-0.316l-0.128,-0.346l-0.063,-0.364l0.006,-0.369l0.073,-0.362l0.138,-0.342l0.183,-0.355l0.878,-1.703l0.871,-1.694l1.726,-3.359l0.198,-0.311l0.252,-0.27l0.297,-0.218l0.333,-0.161l0.356,-0.096l0.368,-0.03l0.367,0.039Zm-118.132,-5.134l0.362,0.074l0.341,0.139l0.311,0.2l0.268,0.253l0.217,0.299l0.159,0.333l0.095,0.357l0.028,0.368l-0.139,7.998l-0.041,0.367l-0.107,0.353l-0.17,0.328l-0.228,0.29l-0.277,0.244l-0.317,0.189l-0.346,0.127l-0.364,0.062l-0.369,-0.006l-0.362,-0.075l-0.342,-0.139l-0.31,-0.2l-0.268,-0.253l-0.218,-0.298l-0.158,-0.333l-0.095,-0.357l-0.028,-0.368l0.139,-7.999l0.041,-0.367l0.107,-0.353l0.17,-0.327l0.228,-0.291l0.277,-0.244l0.317,-0.189l0.346,-0.127l0.364,-0.062l0.369,0.007Zm0.313,-17.997l0.362,0.074l0.341,0.139l0.311,0.2l0.268,0.253l0.217,0.298l0.159,0.334l0.095,0.356l0.028,0.368l-0.139,7.999l-0.041,0.367l-0.107,0.353l-0.17,0.328l-0.228,0.29l-0.277,0.244l-0.317,0.189l-0.346,0.127l-0.364,0.062l-0.369,-0.007l-0.362,-0.074l-0.342,-0.139l-0.31,-0.2l-0.268,-0.253l-0.218,-0.299l-0.158,-0.333l-0.095,-0.356l-0.028,-0.368l0.139,-7.999l0.041,-0.367l0.107,-0.353l0.17,-0.328l0.228,-0.29l0.277,-0.244l0.317,-0.189l0.346,-0.127l0.364,-0.062l0.369,0.007Zm0.313,-17.998l0.362,0.074l0.341,0.14l0.311,0.199l0.268,0.254l0.217,0.298l0.159,0.333l0.095,0.357l0.028,0.368l-0.139,7.999l-0.041,0.367l-0.107,0.353l-0.17,0.327l-0.228,0.291l-0.277,0.244l-0.317,0.189l-0.346,0.127l-0.364,0.061l-0.369,-0.006l-0.362,-0.074l-0.342,-0.139l-0.31,-0.2l-0.268,-0.253l-0.218,-0.299l-0.158,-0.333l-0.095,-0.357l-0.028,-0.368l0.139,-7.999l0.041,-0.366l0.107,-0.354l0.17,-0.327l0.228,-0.291l0.277,-0.244l0.317,-0.188l0.346,-0.128l0.364,-0.061l0.369,0.006Zm0.313,-17.997l0.362,0.074l0.341,0.139l0.311,0.2l0.268,0.253l0.217,0.299l0.159,0.333l0.095,0.357l0.028,0.368l-0.139,7.999l-0.041,0.366l-0.107,0.354l-0.17,0.327l-0.228,0.291l-0.277,0.244l-0.317,0.188l-0.346,0.128l-0.364,0.061l-0.369,-0.006l-0.362,-0.074l-0.342,-0.14l-0.31,-0.199l-0.268,-0.254l-0.218,-0.298l-0.158,-0.333l-0.095,-0.357l-0.028,-0.368l0.139,-7.999l0.041,-0.367l0.107,-0.353l0.17,-0.327l0.228,-0.291l0.277,-0.244l0.317,-0.189l0.346,-0.127l0.364,-0.061l0.369,0.006Zm0.313,-17.997l0.362,0.074l0.341,0.139l0.311,0.2l0.268,0.253l0.217,0.299l0.159,0.333l0.095,0.356l0.028,0.368l-0.139,7.999l-0.041,0.367l-0.107,0.353l-0.17,0.328l-0.228,0.29l-0.277,0.244l-0.317,0.189l-0.346,0.127l-0.364,0.062l-0.369,-0.007l-0.362,-0.074l-0.342,-0.139l-0.31,-0.2l-0.268,-0.253l-0.218,-0.298l-0.158,-0.334l-0.095,-0.356l-0.028,-0.368l0.139,-7.999l0.041,-0.367l0.107,-0.353l0.17,-0.328l0.228,-0.29l0.277,-0.244l0.317,-0.189l0.346,-0.127l0.364,-0.062l0.369,0.007Z" style="fill:#cecece;"/><path id="path21" d="M130.462,260.739l0.345,0.132l0.314,0.193l0.274,0.248l0.223,0.294l0.165,0.33l0.102,0.355l0.035,0.367l-0.033,0.368l-0.1,0.355l-0.163,0.331l-0.222,0.295l-0.272,0.25l-0.313,0.195l-0.344,0.134l-0.363,0.069l-0.17,0.016l-0.454,0.041l-0.454,0.038l-0.452,0.036l-0.451,0.034l-0.451,0.03l-0.449,0.029l-0.449,0.026l-0.448,0.023l-0.447,0.021l-0.446,0.019l-0.445,0.016l-0.444,0.014l-0.443,0.011l-0.442,0.009l-0.442,0.007l-0.44,0.004l-0.44,0.001l-0.414,0l-0.367,-0.035l-0.355,-0.101l-0.33,-0.165l-0.294,-0.223l-0.249,-0.273l-0.193,-0.314l-0.133,-0.344l-0.068,-0.363l0.001,-0.369l0.068,-0.363l0.134,-0.344l0.195,-0.313l0.249,-0.273l0.294,-0.222l0.331,-0.164l0.355,-0.1l0.368,-0.034l0.403,0l0.418,-0.001l0.419,-0.004l0.42,-0.006l0.42,-0.009l0.422,-0.011l0.423,-0.013l0.423,-0.015l0.425,-0.018l0.425,-0.02l0.427,-0.022l0.427,-0.025l0.428,-0.027l0.43,-0.029l0.43,-0.032l0.431,-0.034l0.431,-0.037l0.433,-0.039l0.16,-0.015l0.369,-0.001l0.363,0.067Zm-25.897,-1.793l0.358,0.085l0.373,0.088l0.375,0.085l0.376,0.084l0.377,0.081l0.378,0.08l0.379,0.079l0.381,0.076l0.381,0.074l0.382,0.073l0.383,0.071l0.385,0.068l0.385,0.067l0.386,0.065l0.388,0.063l0.388,0.061l0.389,0.059l0.391,0.058l0.391,0.055l0.393,0.053l0.016,0.002l0.36,0.081l0.339,0.146l0.306,0.206l0.264,0.259l0.211,0.302l0.152,0.337l0.088,0.358l0.02,0.369l-0.047,0.366l-0.115,0.351l-0.176,0.324l-0.233,0.286l-0.282,0.238l-0.321,0.183l-0.349,0.12l-0.365,0.054l-0.369,-0.013l-0.026,-0.004l-0.414,-0.056l-0.412,-0.058l-0.412,-0.06l-0.41,-0.063l-0.409,-0.064l-0.409,-0.066l-0.407,-0.069l-0.406,-0.07l-0.405,-0.073l-0.404,-0.074l-0.403,-0.077l-0.401,-0.078l-0.401,-0.081l-0.399,-0.082l-0.399,-0.084l-0.397,-0.087l-0.397,-0.088l-0.395,-0.09l-0.394,-0.092l-0.367,-0.088l-0.35,-0.118l-0.322,-0.181l-0.283,-0.237l-0.234,-0.284l-0.179,-0.324l-0.116,-0.35l-0.05,-0.366l0.019,-0.368l0.086,-0.359l0.15,-0.337l0.21,-0.304l0.261,-0.26l0.306,-0.208l0.338,-0.147l0.359,-0.084l0.369,-0.015l0.365,0.052Zm43.492,-1.737l0.346,0.128l0.317,0.189l0.277,0.244l0.227,0.29l0.17,0.328l0.107,0.353l0.04,0.367l-0.027,0.368l-0.095,0.357l-0.159,0.333l-0.218,0.298l-0.268,0.253l-0.311,0.2l-0.342,0.139l-0.304,0.092l-0.485,0.144l-0.484,0.142l-0.484,0.138l-0.483,0.136l-0.482,0.132l-0.481,0.13l-0.481,0.127l-0.479,0.124l-0.479,0.121l-0.479,0.119l-0.477,0.115l-0.477,0.113l-0.476,0.11l-0.475,0.107l-0.474,0.105l-0.403,0.086l-0.366,0.044l-0.368,-0.024l-0.358,-0.091l-0.335,-0.156l-0.3,-0.215l-0.256,-0.266l-0.203,-0.308l-0.142,-0.34l-0.078,-0.361l-0.009,-0.369l0.058,-0.365l0.124,-0.347l0.186,-0.319l0.241,-0.279l0.288,-0.231l0.326,-0.173l0.352,-0.11l0.393,-0.085l0.454,-0.1l0.454,-0.102l0.456,-0.106l0.457,-0.108l0.457,-0.11l0.458,-0.114l0.459,-0.116l0.46,-0.119l0.461,-0.122l0.461,-0.124l0.462,-0.127l0.463,-0.13l0.464,-0.133l0.465,-0.136l0.466,-0.138l0.294,-0.089l0.362,-0.074l0.369,-0.006l0.364,0.061Zm-60.334,-4.362l0.346,0.128l0.142,0.068l0.326,0.155l0.326,0.153l0.327,0.152l0.326,0.15l0.327,0.149l0.327,0.147l0.327,0.146l0.327,0.145l0.328,0.143l0.327,0.141l0.328,0.14l0.328,0.139l0.328,0.137l0.328,0.136l0.329,0.135l0.328,0.133l0.328,0.131l0.329,0.13l0.328,0.129l0.329,0.127l0.329,0.126l0.174,0.065l0.332,0.162l0.296,0.22l0.251,0.271l0.197,0.312l0.136,0.343l0.071,0.362l0.003,0.369l-0.065,0.364l-0.13,0.345l-0.192,0.315l-0.246,0.275l-0.293,0.225l-0.329,0.167l-0.354,0.104l-0.367,0.037l-0.368,-0.031l-0.356,-0.098l-0.182,-0.068l-0.343,-0.132l-0.343,-0.133l-0.343,-0.134l-0.343,-0.136l-0.343,-0.137l-0.343,-0.139l-0.342,-0.14l-0.343,-0.142l-0.342,-0.143l-0.342,-0.145l-0.342,-0.146l-0.342,-0.148l-0.342,-0.149l-0.342,-0.151l-0.341,-0.152l-0.341,-0.154l-0.341,-0.155l-0.34,-0.157l-0.341,-0.158l-0.34,-0.16l-0.34,-0.161l-0.149,-0.071l-0.317,-0.19l-0.277,-0.244l-0.227,-0.292l-0.169,-0.327l-0.106,-0.354l-0.04,-0.367l0.028,-0.368l0.096,-0.356l0.159,-0.333l0.218,-0.298l0.269,-0.253l0.311,-0.199l0.342,-0.138l0.362,-0.074l0.369,-0.005l0.364,0.062Zm76.7,-2.377l0.362,0.069l0.344,0.134l0.314,0.195l0.272,0.249l0.221,0.295l0.164,0.331l0.1,0.355l0.034,0.368l-0.035,0.367l-0.102,0.355l-0.165,0.33l-0.223,0.294l-0.274,0.248l-0.314,0.193l-0.391,0.194l-0.508,0.249l-0.508,0.245l-0.507,0.243l-0.507,0.239l-0.506,0.236l-0.505,0.232l-0.505,0.23l-0.503,0.226l-0.504,0.223l-0.502,0.22l-0.502,0.217l-0.502,0.214l-0.5,0.21l-0.452,0.188l-0.352,0.109l-0.367,0.043l-0.368,-0.025l-0.358,-0.093l-0.334,-0.156l-0.299,-0.216l-0.255,-0.267l-0.202,-0.309l-0.142,-0.341l-0.076,-0.361l-0.009,-0.369l0.059,-0.364l0.126,-0.347l0.186,-0.319l0.243,-0.278l0.289,-0.229l0.326,-0.173l0.443,-0.183l0.483,-0.203l0.483,-0.207l0.485,-0.209l0.485,-0.212l0.485,-0.216l0.487,-0.218l0.487,-0.222l0.488,-0.225l0.489,-0.227l0.49,-0.232l0.49,-0.234l0.491,-0.237l0.492,-0.241l0.382,-0.189l0.345,-0.133l0.363,-0.067l0.369,0.001Zm-92.094,-6.878l0.345,0.13l0.316,0.192l0.068,0.05l0.302,0.222l0.303,0.221l0.304,0.219l0.304,0.218l0.305,0.216l0.306,0.215l0.306,0.214l0.307,0.212l0.308,0.211l0.308,0.209l0.309,0.208l0.31,0.207l0.31,0.205l0.311,0.204l0.311,0.203l0.312,0.201l0.313,0.2l0.313,0.198l0.314,0.197l0.314,0.196l0.25,0.153l0.295,0.222l0.249,0.273l0.195,0.313l0.134,0.344l0.068,0.363l0.001,0.369l-0.067,0.363l-0.133,0.344l-0.194,0.314l-0.248,0.273l-0.294,0.223l-0.33,0.165l-0.355,0.102l-0.367,0.035l-0.368,-0.034l-0.355,-0.1l-0.331,-0.164l-0.256,-0.158l-0.328,-0.204l-0.327,-0.205l-0.327,-0.207l-0.326,-0.209l-0.326,-0.209l-0.324,-0.212l-0.325,-0.213l-0.323,-0.214l-0.324,-0.215l-0.322,-0.218l-0.322,-0.218l-0.321,-0.22l-0.32,-0.222l-0.32,-0.223l-0.319,-0.224l-0.318,-0.226l-0.318,-0.227l-0.317,-0.229l-0.316,-0.23l-0.315,-0.232l-0.075,-0.055l-0.275,-0.246l-0.225,-0.293l-0.168,-0.329l-0.104,-0.354l-0.037,-0.367l0.03,-0.368l0.098,-0.355l0.161,-0.332l0.22,-0.297l0.271,-0.251l0.312,-0.197l0.343,-0.137l0.362,-0.071l0.369,-0.003l0.363,0.064Zm107.704,-2.21l0.359,0.086l0.337,0.151l0.304,0.209l0.26,0.263l0.207,0.305l0.148,0.338l0.083,0.36l0.015,0.369l-0.052,0.365l-0.119,0.349l-0.181,0.322l-0.237,0.283l-0.285,0.234l-0.086,0.059l-0.527,0.354l-0.525,0.35l-0.526,0.347l-0.524,0.344l-0.525,0.34l-0.523,0.336l-0.523,0.333l-0.523,0.33l-0.522,0.326l-0.521,0.322l-0.521,0.319l-0.521,0.316l-0.472,0.283l-0.332,0.16l-0.357,0.097l-0.368,0.029l-0.367,-0.039l-0.353,-0.106l-0.328,-0.169l-0.292,-0.226l-0.245,-0.277l-0.19,-0.316l-0.129,-0.346l-0.062,-0.364l0.005,-0.369l0.072,-0.361l0.138,-0.343l0.199,-0.311l0.252,-0.269l0.298,-0.219l0.464,-0.279l0.506,-0.306l0.506,-0.31l0.507,-0.314l0.507,-0.317l0.508,-0.32l0.509,-0.324l0.509,-0.327l0.51,-0.331l0.511,-0.334l0.511,-0.338l0.512,-0.341l0.512,-0.345l0.079,-0.053l0.324,-0.178l0.35,-0.116l0.366,-0.05l0.368,0.019Zm-121.351,-9.917l0.362,0.07l0.344,0.136l0.312,0.197l0.271,0.25l0.157,0.175l0.257,0.283l0.259,0.283l0.26,0.281l0.261,0.28l0.262,0.278l0.264,0.277l0.264,0.276l0.266,0.275l0.267,0.273l0.267,0.272l0.269,0.27l0.271,0.27l0.271,0.268l0.272,0.266l0.273,0.265l0.275,0.264l0.275,0.263l0.277,0.261l0.277,0.26l0.244,0.226l0.246,0.275l0.191,0.316l0.131,0.345l0.064,0.363l-0.003,0.37l-0.071,0.362l-0.137,0.343l-0.197,0.312l-0.251,0.27l-0.296,0.22l-0.332,0.161l-0.356,0.098l-0.368,0.031l-0.367,-0.037l-0.354,-0.105l-0.329,-0.167l-0.293,-0.225l-0.25,-0.233l-0.29,-0.271l-0.289,-0.274l-0.289,-0.275l-0.287,-0.276l-0.286,-0.277l-0.285,-0.279l-0.284,-0.281l-0.283,-0.282l-0.281,-0.283l-0.281,-0.285l-0.279,-0.286l-0.279,-0.288l-0.277,-0.289l-0.276,-0.29l-0.275,-0.292l-0.273,-0.293l-0.273,-0.295l-0.271,-0.296l-0.27,-0.297l-0.163,-0.182l-0.22,-0.296l-0.162,-0.331l-0.099,-0.356l-0.031,-0.368l0.036,-0.367l0.104,-0.354l0.167,-0.33l0.224,-0.292l0.274,-0.247l0.316,-0.192l0.345,-0.131l0.363,-0.066l0.369,0.003Zm135.824,-0.949l0.351,0.114l0.324,0.177l0.286,0.233l0.239,0.281l0.183,0.321l0.12,0.349l0.055,0.365l-0.014,0.369l-0.081,0.36l-0.146,0.339l-0.205,0.306l-0.259,0.264l-0.171,0.145l-0.54,0.454l-0.539,0.45l-0.539,0.445l-0.538,0.442l-0.538,0.439l-0.537,0.434l-0.537,0.431l-0.536,0.427l-0.536,0.423l-0.536,0.42l-0.535,0.416l-0.209,0.161l-0.312,0.198l-0.343,0.136l-0.362,0.072l-0.369,0.004l-0.363,-0.064l-0.346,-0.13l-0.315,-0.191l-0.276,-0.246l-0.225,-0.293l-0.168,-0.328l-0.104,-0.354l-0.038,-0.367l0.03,-0.368l0.098,-0.356l0.161,-0.332l0.219,-0.297l0.271,-0.251l0.203,-0.157l0.522,-0.406l0.524,-0.41l0.523,-0.414l0.525,-0.417l0.524,-0.422l0.526,-0.425l0.526,-0.428l0.526,-0.433l0.527,-0.436l0.528,-0.44l0.528,-0.444l0.166,-0.141l0.303,-0.211l0.336,-0.153l0.358,-0.088l0.369,-0.02l0.366,0.047Zm13.04,-12.251l0.36,0.083l0.338,0.149l0.305,0.208l0.261,0.26l0.209,0.304l0.15,0.338l0.085,0.359l0.018,0.368l-0.05,0.366l-0.117,0.35l-0.179,0.323l-0.235,0.284l-0.426,0.428l-0.549,0.548l-0.549,0.544l-0.549,0.54l-0.549,0.536l-0.548,0.532l-0.547,0.528l-0.547,0.523l-0.547,0.52l-0.547,0.516l-0.431,0.405l-0.291,0.226l-0.328,0.169l-0.354,0.106l-0.367,0.04l-0.368,-0.029l-0.356,-0.096l-0.333,-0.16l-0.298,-0.219l-0.252,-0.269l-0.199,-0.311l-0.138,-0.342l-0.073,-0.362l-0.005,-0.369l0.063,-0.364l0.128,-0.346l0.19,-0.316l0.245,-0.276l0.426,-0.4l0.537,-0.506l0.536,-0.511l0.538,-0.514l0.537,-0.518l0.539,-0.523l0.538,-0.526l0.539,-0.531l0.54,-0.534l0.54,-0.539l0.421,-0.422l0.283,-0.237l0.323,-0.18l0.349,-0.118l0.366,-0.052l0.368,0.017Zm-159.253,-1.392l0.359,0.084l0.338,0.148l0.305,0.208l0.262,0.261l0.209,0.304l0.167,0.298l0.194,0.342l0.195,0.34l0.197,0.34l0.199,0.338l0.2,0.337l0.202,0.336l0.203,0.334l0.205,0.333l0.206,0.332l0.208,0.33l0.21,0.329l0.211,0.328l0.213,0.327l0.214,0.325l0.216,0.325l0.217,0.322l0.219,0.322l0.22,0.32l0.221,0.319l0.019,0.027l0.184,0.32l0.121,0.349l0.055,0.365l-0.013,0.369l-0.08,0.36l-0.145,0.339l-0.205,0.307l-0.258,0.264l-0.302,0.212l-0.336,0.153l-0.358,0.089l-0.369,0.021l-0.366,-0.047l-0.351,-0.113l-0.325,-0.176l-0.286,-0.232l-0.239,-0.281l-0.025,-0.035l-0.233,-0.336l-0.231,-0.336l-0.23,-0.338l-0.229,-0.34l-0.227,-0.341l-0.225,-0.342l-0.224,-0.344l-0.222,-0.345l-0.22,-0.346l-0.219,-0.348l-0.217,-0.349l-0.216,-0.351l-0.214,-0.351l-0.213,-0.354l-0.21,-0.354l-0.209,-0.356l-0.208,-0.358l-0.206,-0.358l-0.204,-0.361l-0.172,-0.307l-0.149,-0.337l-0.086,-0.359l-0.017,-0.369l0.05,-0.366l0.116,-0.35l0.179,-0.322l0.236,-0.285l0.283,-0.236l0.322,-0.18l0.35,-0.118l0.365,-0.052l0.369,0.016Zm171.694,-11.78l0.347,0.124l0.319,0.186l0.279,0.242l0.23,0.289l0.173,0.326l0.11,0.352l0.043,0.366l-0.024,0.369l-0.092,0.357l-0.156,0.335l-0.215,0.3l-0.555,0.642l-0.557,0.64l-0.557,0.635l-0.557,0.631l-0.556,0.628l-0.556,0.622l-0.556,0.619l-0.555,0.614l-0.555,0.61l-0.347,0.38l-0.273,0.248l-0.314,0.193l-0.345,0.133l-0.363,0.067l-0.369,-0.001l-0.362,-0.068l-0.344,-0.134l-0.314,-0.195l-0.272,-0.249l-0.222,-0.295l-0.164,-0.331l-0.1,-0.355l-0.033,-0.368l0.034,-0.367l0.102,-0.355l0.165,-0.33l0.223,-0.294l0.343,-0.375l0.547,-0.6l0.547,-0.606l0.547,-0.609l0.548,-0.613l0.548,-0.618l0.548,-0.622l0.549,-0.627l0.549,-0.631l0.552,-0.637l0.266,-0.255l0.309,-0.203l0.34,-0.142l0.361,-0.077l0.369,-0.01l0.365,0.059Zm-178.413,-4.811l0.354,0.104l0.33,0.166l0.293,0.225l0.246,0.274l0.193,0.315l0.131,0.345l0.046,0.168l0.113,0.398l0.114,0.396l0.117,0.394l0.118,0.394l0.121,0.392l0.123,0.391l0.125,0.39l0.126,0.389l0.129,0.387l0.131,0.386l0.132,0.385l0.135,0.384l0.136,0.382l0.139,0.381l0.14,0.38l0.143,0.379l0.144,0.377l0.146,0.376l0.099,0.251l0.103,0.355l0.037,0.367l-0.032,0.368l-0.099,0.355l-0.162,0.332l-0.22,0.296l-0.272,0.25l-0.312,0.196l-0.343,0.136l-0.363,0.07l-0.369,0.003l-0.363,-0.066l-0.345,-0.131l-0.315,-0.192l-0.274,-0.247l-0.225,-0.293l-0.166,-0.329l-0.104,-0.262l-0.154,-0.397l-0.152,-0.398l-0.15,-0.399l-0.148,-0.4l-0.146,-0.402l-0.144,-0.403l-0.142,-0.405l-0.14,-0.406l-0.138,-0.407l-0.135,-0.409l-0.134,-0.409l-0.131,-0.411l-0.13,-0.413l-0.127,-0.414l-0.125,-0.415l-0.123,-0.416l-0.121,-0.418l-0.119,-0.419l-0.049,-0.178l-0.065,-0.364l0.002,-0.369l0.07,-0.362l0.136,-0.343l0.197,-0.313l0.25,-0.271l0.296,-0.22l0.332,-0.162l0.355,-0.099l0.368,-0.031l0.367,0.036Zm-2.66,-17.728l0.349,0.12l0.321,0.182l0.283,0.238l0.233,0.286l0.177,0.324l0.115,0.351l0.048,0.366l0.004,0.094l0.019,0.449l0.023,0.447l0.024,0.446l0.028,0.445l0.029,0.443l0.032,0.442l0.035,0.441l0.036,0.44l0.04,0.438l0.041,0.437l0.044,0.436l0.046,0.435l0.049,0.434l0.051,0.432l0.053,0.431l0.056,0.429l0.058,0.429l0.03,0.214l0.018,0.368l-0.051,0.366l-0.116,0.35l-0.179,0.323l-0.236,0.284l-0.283,0.236l-0.322,0.18l-0.35,0.118l-0.366,0.052l-0.368,-0.017l-0.36,-0.084l-0.338,-0.148l-0.304,-0.208l-0.262,-0.261l-0.209,-0.304l-0.149,-0.337l-0.086,-0.359l-0.031,-0.225l-0.061,-0.451l-0.059,-0.453l-0.056,-0.453l-0.054,-0.455l-0.051,-0.456l-0.049,-0.457l-0.046,-0.459l-0.044,-0.459l-0.041,-0.461l-0.038,-0.462l-0.037,-0.464l-0.033,-0.465l-0.031,-0.465l-0.029,-0.468l-0.026,-0.468l-0.023,-0.47l-0.021,-0.47l-0.004,-0.106l0.02,-0.369l0.087,-0.359l0.152,-0.336l0.211,-0.303l0.263,-0.259l0.306,-0.206l0.339,-0.147l0.359,-0.081l0.369,-0.014l0.365,0.053Zm0.024,-10.661l0.357,0.092l0.335,0.156l0.3,0.214l0.256,0.266l0.202,0.309l0.143,0.34l0.077,0.361l0.01,0.369l-0.021,0.311l-0.019,0.309l0,0.002l-0.056,0.365l-0.122,0.348l-0.184,0.32l-0.24,0.281l-0.287,0.232l-0.325,0.175l-0.351,0.112l-0.366,0.046l-0.369,-0.022l-0.358,-0.089l-0.335,-0.154l-0.302,-0.213l-0.257,-0.264l-0.205,-0.307l-0.144,-0.34l-0.08,-0.36l-0.012,-0.369l0.001,-0.008l0.02,-0.321l0.021,-0.317l0.058,-0.365l0.124,-0.347l0.186,-0.319l0.241,-0.279l0.289,-0.231l0.326,-0.173l0.352,-0.11l0.366,-0.044l0.369,0.024Z" style="fill:#cecece;"/><path id="path1" d="M42.222,152.278l0.353,0.105l0.329,0.169l0.291,0.226l0.246,0.275l0.19,0.316l0.13,0.346l0.063,0.364l-0.004,0.369l-0.073,0.362l0.001,-0.001l-0.2,0.681l-0.093,0.321l-0.089,0.309l-0.085,0.298l-0.08,0.288l-0.077,0.277l-0.073,0.268l-0.07,0.259l-0.066,0.25l-0.063,0.242l-0.06,0.235l-0.057,0.229l-0.054,0.223l-0.052,0.217l-0.049,0.212l-0.046,0.208l-0.045,0.205l-0.043,0.202l-0.041,0.2l-0.039,0.198l-0.038,0.198l-0.037,0.198l-0.035,0.198l-0.035,0.2l-0.034,0.202l-0.033,0.204l-0.032,0.208l-0.033,0.212l-0.032,0.216l-0.031,0.221l-0.016,0.114l-0.085,0.36l-0.15,0.337l-0.208,0.304l-0.262,0.261l-0.304,0.208l-0.338,0.149l-0.359,0.084l-0.369,0.017l-0.366,-0.051l-0.349,-0.118l-0.323,-0.179l-0.283,-0.236l-0.236,-0.285l-0.179,-0.322l-0.117,-0.35l-0.051,-0.366l0.017,-0.368l0.017,-0.121l0.034,-0.236l0.035,-0.232l0.034,-0.23l0.036,-0.226l0.036,-0.225l0.038,-0.223l0.038,-0.223l0.04,-0.221l0.041,-0.222l0.043,-0.223l0.044,-0.223l0.046,-0.225l0.048,-0.227l0.05,-0.229l0.052,-0.232l0.055,-0.236l0.057,-0.239l0.059,-0.244l0.062,-0.249l0.065,-0.254l0.067,-0.261l0.071,-0.267l0.074,-0.275l0.077,-0.282l0.081,-0.291l0.084,-0.3l0.088,-0.309l0.092,-0.32l0.096,-0.332l0.204,-0.695l0.002,-0.006l0.137,-0.342l0.198,-0.312l0.252,-0.27l0.297,-0.219l0.332,-0.16l0.357,-0.097l0.367,-0.029l0.368,0.038Zm6.058,-16.915l0.358,0.089l0.336,0.153l0.301,0.213l0.258,0.264l0.204,0.307l0.145,0.34l0.08,0.36l0.012,0.369l-0.055,0.365l-0.122,0.348l-0.052,0.114l-0.159,0.351l-0.158,0.352l-0.157,0.353l-0.156,0.354l-0.154,0.355l-0.154,0.355l-0.152,0.357l-0.151,0.357l-0.15,0.358l-0.149,0.359l-0.147,0.36l-0.147,0.361l-0.145,0.361l-0.144,0.363l-0.143,0.364l-0.142,0.364l-0.141,0.365l-0.14,0.367l-0.138,0.367l-0.12,0.322l-0.16,0.333l-0.219,0.297l-0.269,0.252l-0.312,0.199l-0.342,0.138l-0.362,0.072l-0.369,0.005l-0.364,-0.063l-0.346,-0.129l-0.316,-0.19l-0.276,-0.246l-0.226,-0.291l-0.169,-0.328l-0.105,-0.354l-0.039,-0.367l0.029,-0.368l0.097,-0.356l0.122,-0.33l0.144,-0.381l0.145,-0.379l0.146,-0.379l0.147,-0.378l0.148,-0.377l0.149,-0.376l0.151,-0.375l0.152,-0.375l0.153,-0.373l0.155,-0.372l0.155,-0.371l0.157,-0.371l0.158,-0.37l0.159,-0.368l0.16,-0.368l0.162,-0.367l0.162,-0.366l0.164,-0.365l0.165,-0.365l0.055,-0.12l0.184,-0.32l0.239,-0.281l0.287,-0.232l0.325,-0.175l0.351,-0.113l0.366,-0.046l0.369,0.022Zm8.663,-15.732l0.36,0.078l0.341,0.142l0.308,0.203l0.266,0.256l0.215,0.3l0.155,0.335l0.092,0.357l0.024,0.369l-0.044,0.366l-0.11,0.352l-0.173,0.326l-0.101,0.154l-0.211,0.322l-0.209,0.323l-0.208,0.323l-0.207,0.324l-0.206,0.324l-0.205,0.324l-0.203,0.325l-0.203,0.326l-0.202,0.326l-0.2,0.327l-0.199,0.327l-0.199,0.328l-0.197,0.328l-0.196,0.329l-0.195,0.329l-0.194,0.33l-0.192,0.331l-0.192,0.331l-0.191,0.332l-0.189,0.332l-0.008,0.014l-0.211,0.303l-0.262,0.259l-0.306,0.207l-0.339,0.147l-0.36,0.082l-0.368,0.015l-0.366,-0.054l-0.349,-0.119l-0.321,-0.182l-0.282,-0.238l-0.234,-0.285l-0.178,-0.324l-0.115,-0.351l-0.048,-0.366l0.019,-0.368l0.087,-0.359l0.151,-0.336l0.012,-0.02l0.196,-0.344l0.197,-0.343l0.198,-0.343l0.199,-0.341l0.201,-0.342l0.201,-0.34l0.203,-0.34l0.204,-0.339l0.204,-0.339l0.206,-0.338l0.207,-0.337l0.209,-0.337l0.209,-0.336l0.21,-0.336l0.212,-0.335l0.212,-0.334l0.214,-0.334l0.214,-0.334l0.216,-0.333l0.217,-0.332l0.104,-0.159l0.23,-0.288l0.28,-0.241l0.319,-0.186l0.347,-0.124l0.365,-0.058l0.369,0.009Zm148.29,-12.912l0.36,0.081l0.339,0.146l0.307,0.206l0.43,0.35l2.945,2.399l2.827,2.306l0.264,0.259l0.211,0.303l0.152,0.336l0.088,0.358l0.02,0.369l-0.048,0.366l-0.114,0.351l-0.177,0.324l-0.233,0.286l-0.282,0.238l-0.321,0.183l-0.349,0.12l-0.365,0.054l-0.368,-0.014l-0.36,-0.081l-0.339,-0.146l-0.307,-0.206l-2.827,-2.305l-2.943,-2.399l-0.429,-0.349l-0.264,-0.258l-0.211,-0.303l-0.153,-0.336l-0.088,-0.359l-0.02,-0.368l0.047,-0.366l0.114,-0.351l0.176,-0.324l0.233,-0.286l0.282,-0.239l0.321,-0.183l0.348,-0.12l0.365,-0.055l0.369,0.013Zm-137.275,-1.444l0.349,0.119l0.322,0.181l0.283,0.237l0.234,0.285l0.179,0.323l0.116,0.351l0.049,0.365l-0.019,0.369l-0.086,0.359l-0.15,0.337l-0.21,0.303l-0.188,0.225l-0.257,0.309l-0.257,0.309l-0.256,0.309l-0.254,0.31l-0.254,0.309l-0.252,0.31l-0.252,0.31l-0.25,0.31l-0.25,0.31l-0.248,0.311l-0.248,0.31l-0.246,0.311l-0.245,0.311l-0.244,0.311l-0.244,0.312l-0.242,0.312l-0.241,0.312l-0.24,0.312l-0.239,0.313l-0.035,0.045l-0.249,0.272l-0.296,0.221l-0.331,0.164l-0.355,0.099l-0.368,0.033l-0.367,-0.035l-0.355,-0.102l-0.329,-0.166l-0.294,-0.224l-0.248,-0.273l-0.193,-0.315l-0.132,-0.344l-0.067,-0.363l0.002,-0.37l0.069,-0.362l0.134,-0.344l0.196,-0.313l0.038,-0.05l0.245,-0.32l0.246,-0.32l0.247,-0.32l0.248,-0.32l0.25,-0.319l0.25,-0.319l0.251,-0.318l0.252,-0.319l0.254,-0.318l0.254,-0.318l0.255,-0.317l0.256,-0.317l0.257,-0.317l0.259,-0.317l0.259,-0.317l0.26,-0.316l0.261,-0.316l0.263,-0.316l0.263,-0.315l0.19,-0.228l0.263,-0.26l0.305,-0.207l0.338,-0.148l0.36,-0.083l0.369,-0.015l0.365,0.052Zm123.228,-9.885l0.363,0.072l0.343,0.136l0.312,0.197l0.114,0.088l0.263,0.206l0.346,0.273l0.422,0.337l0.493,0.396l0.561,0.45l0.62,0.5l1.399,1.13l1.568,1.271l0.487,0.395l0.264,0.258l0.212,0.302l0.153,0.336l0.089,0.359l0.021,0.368l-0.047,0.366l-0.113,0.351l-0.176,0.325l-0.233,0.286l-0.281,0.239l-0.32,0.184l-0.349,0.121l-0.365,0.055l-0.369,-0.013l-0.36,-0.08l-0.339,-0.146l-0.307,-0.205l-0.486,-0.394l-1.565,-1.268l-1.395,-1.127l-0.617,-0.497l-0.555,-0.447l-0.488,-0.391l-0.413,-0.329l-0.33,-0.261l-0.241,-0.189l-0.103,-0.079l-0.27,-0.251l-0.22,-0.297l-0.162,-0.331l-0.097,-0.356l-0.031,-0.368l0.037,-0.367l0.104,-0.354l0.168,-0.329l0.225,-0.293l0.275,-0.246l0.316,-0.191l0.345,-0.13l0.363,-0.065l0.369,0.003Zm-110.181,-2.243l0.36,0.078l0.341,0.143l0.307,0.204l0.266,0.256l0.214,0.301l0.154,0.335l0.091,0.358l0.023,0.368l-0.044,0.367l-0.112,0.351l-0.174,0.326l-0.231,0.288l-0.28,0.24l-0.212,0.151l-0.366,0.264l-0.364,0.265l-0.362,0.266l-0.359,0.268l-0.357,0.269l-0.354,0.27l-0.351,0.272l-0.349,0.273l-0.347,0.275l-0.344,0.276l-0.342,0.277l-0.339,0.278l-0.336,0.28l-0.334,0.281l-0.331,0.282l-0.328,0.284l-0.326,0.284l-0.008,0.007l-0.298,0.218l-0.333,0.16l-0.356,0.096l-0.368,0.028l-0.367,-0.039l-0.354,-0.107l-0.327,-0.169l-0.292,-0.227l-0.244,-0.276l-0.19,-0.317l-0.128,-0.346l-0.062,-0.364l0.005,-0.369l0.073,-0.362l0.139,-0.342l0.199,-0.311l0.253,-0.269l0.017,-0.015l0.344,-0.301l0.347,-0.299l0.35,-0.298l0.352,-0.297l0.355,-0.295l0.357,-0.294l0.36,-0.292l0.363,-0.29l0.365,-0.29l0.368,-0.287l0.37,-0.287l0.373,-0.284l0.375,-0.283l0.378,-0.282l0.38,-0.28l0.382,-0.278l0.385,-0.277l0.222,-0.158l0.319,-0.185l0.348,-0.123l0.365,-0.057l0.369,0.011Zm94.968,-7.345l0.363,0.069l0.343,0.135l0.072,0.035l0.278,0.142l0.279,0.142l0.278,0.143l0.278,0.145l0.279,0.145l0.277,0.147l0.278,0.148l0.278,0.149l0.277,0.15l0.277,0.151l0.277,0.152l0.277,0.153l0.277,0.154l0.276,0.156l0.276,0.157l0.276,0.157l0.276,0.159l0.276,0.16l0.275,0.161l0.275,0.162l0.275,0.164l0.275,0.164l0.275,0.166l0.274,0.167l0.275,0.167l0.147,0.091l0.295,0.222l0.249,0.273l0.195,0.313l0.134,0.344l0.068,0.363l0.001,0.369l-0.067,0.363l-0.133,0.344l-0.194,0.314l-0.248,0.273l-0.294,0.223l-0.33,0.165l-0.355,0.102l-0.367,0.035l-0.368,-0.034l-0.355,-0.1l-0.331,-0.164l-0.141,-0.087l-0.263,-0.161l-0.263,-0.16l-0.263,-0.159l-0.264,-0.157l-0.263,-0.157l-0.264,-0.155l-0.264,-0.155l-0.264,-0.153l-0.264,-0.152l-0.265,-0.151l-0.264,-0.15l-0.265,-0.149l-0.265,-0.148l-0.265,-0.147l-0.265,-0.145l-0.266,-0.145l-0.265,-0.144l-0.266,-0.142l-0.266,-0.142l-0.266,-0.14l-0.266,-0.139l-0.266,-0.139l-0.267,-0.137l-0.266,-0.136l-0.267,-0.135l-0.065,-0.033l-0.313,-0.196l-0.272,-0.249l-0.222,-0.296l-0.163,-0.331l-0.1,-0.355l-0.032,-0.367l0.035,-0.368l0.102,-0.354l0.166,-0.33l0.223,-0.294l0.274,-0.248l0.314,-0.193l0.345,-0.132l0.363,-0.066l0.369,0.001Zm-79.28,-1.472l0.359,0.085l0.338,0.149l0.305,0.208l0.261,0.261l0.208,0.304l0.149,0.338l0.085,0.359l0.017,0.369l-0.051,0.365l-0.117,0.35l-0.179,0.323l-0.236,0.284l-0.284,0.236l-0.322,0.179l-0.411,0.182l-0.445,0.199l-0.442,0.202l-0.441,0.203l-0.439,0.205l-0.437,0.207l-0.435,0.209l-0.433,0.211l-0.431,0.213l-0.43,0.215l-0.427,0.217l-0.426,0.219l-0.423,0.22l-0.422,0.222l-0.419,0.224l-0.418,0.226l-0.145,0.08l-0.338,0.147l-0.36,0.082l-0.369,0.014l-0.365,-0.053l-0.349,-0.12l-0.322,-0.181l-0.282,-0.238l-0.234,-0.286l-0.177,-0.323l-0.115,-0.351l-0.049,-0.366l0.02,-0.368l0.087,-0.359l0.151,-0.337l0.211,-0.303l0.262,-0.259l0.306,-0.206l0.155,-0.085l0.436,-0.236l0.439,-0.235l0.44,-0.232l0.443,-0.23l0.444,-0.229l0.447,-0.226l0.448,-0.225l0.451,-0.222l0.452,-0.22l0.454,-0.219l0.456,-0.216l0.459,-0.214l0.459,-0.212l0.462,-0.21l0.464,-0.208l0.421,-0.186l0.35,-0.118l0.365,-0.051l0.369,0.017Zm62.842,-4.908l0.278,0.076l0.285,0.079l0.284,0.08l0.285,0.081l0.284,0.082l0.284,0.083l0.285,0.084l0.284,0.085l0.284,0.086l0.284,0.087l0.284,0.088l0.284,0.089l0.284,0.09l0.284,0.09l0.284,0.092l0.284,0.093l0.284,0.094l0.284,0.095l0.283,0.096l0.284,0.097l0.283,0.098l0.284,0.099l0.283,0.1l0.283,0.102l0.284,0.102l0.283,0.103l0.283,0.104l0.123,0.046l0.332,0.16l0.298,0.218l0.252,0.269l0.199,0.311l0.138,0.343l0.073,0.362l0.005,0.369l-0.063,0.363l-0.129,0.346l-0.19,0.317l-0.245,0.276l-0.291,0.226l-0.328,0.169l-0.354,0.106l-0.367,0.039l-0.368,-0.029l-0.356,-0.096l-0.117,-0.043l-0.271,-0.1l-0.27,-0.099l-0.271,-0.097l-0.271,-0.097l-0.271,-0.096l-0.271,-0.094l-0.271,-0.094l-0.271,-0.093l-0.271,-0.092l-0.272,-0.09l-0.271,-0.09l-0.271,-0.089l-0.272,-0.088l-0.271,-0.087l-0.272,-0.086l-0.272,-0.085l-0.271,-0.084l-0.272,-0.083l-0.272,-0.083l-0.272,-0.081l-0.272,-0.08l-0.271,-0.08l-0.272,-0.078l-0.272,-0.077l-0.272,-0.077l-0.272,-0.075l-0.272,-0.075l-0.345,-0.13l-0.316,-0.191l-0.275,-0.246l-0.225,-0.293l-0.168,-0.329l-0.104,-0.354l-0.038,-0.367l0.031,-0.368l0.098,-0.356l0.161,-0.331l0.22,-0.297l0.27,-0.251l0.312,-0.198l0.343,-0.136l0.362,-0.071l0.369,-0.004l0.363,0.065Zm-45.77,-0.749l0.359,0.087l0.336,0.151l0.304,0.21l0.259,0.262l0.207,0.306l0.147,0.339l0.083,0.359l0.015,0.369l-0.053,0.365l-0.12,0.35l-0.181,0.321l-0.237,0.283l-0.286,0.234l-0.323,0.178l-0.351,0.115l-0.046,0.01l-0.499,0.118l-0.497,0.119l-0.496,0.122l-0.495,0.125l-0.494,0.127l-0.492,0.13l-0.491,0.132l-0.49,0.135l-0.488,0.137l-0.487,0.139l-0.486,0.142l-0.484,0.144l-0.483,0.147l-0.481,0.149l-0.48,0.151l-0.157,0.05l-0.361,0.08l-0.368,0.013l-0.365,-0.056l-0.349,-0.122l-0.32,-0.184l-0.281,-0.239l-0.232,-0.287l-0.175,-0.325l-0.113,-0.351l-0.046,-0.366l0.021,-0.369l0.089,-0.358l0.154,-0.335l0.212,-0.302l0.265,-0.258l0.307,-0.205l0.339,-0.144l0.167,-0.054l0.5,-0.158l0.502,-0.155l0.503,-0.152l0.505,-0.151l0.506,-0.148l0.507,-0.145l0.509,-0.143l0.51,-0.14l0.512,-0.137l0.513,-0.136l0.514,-0.132l0.516,-0.13l0.517,-0.127l0.518,-0.125l0.52,-0.122l0.057,-0.013l0.365,-0.049l0.369,0.019Zm27.87,-2.276l0.282,0.02l0.282,0.021l0.283,0.022l0.282,0.022l0.283,0.024l0.282,0.024l0.283,0.025l0.283,0.027l0.283,0.027l0.283,0.027l0.283,0.029l0.283,0.03l0.284,0.03l0.283,0.032l0.283,0.032l0.284,0.033l0.283,0.034l0.284,0.035l0.284,0.036l0.284,0.037l0.283,0.038l0.284,0.038l0.284,0.04l0.284,0.04l0.284,0.041l0.284,0.043l0.285,0.043l0.254,0.039l0.358,0.09l0.335,0.154l0.302,0.213l0.257,0.265l0.204,0.308l0.143,0.34l0.08,0.36l0.011,0.369l-0.056,0.365l-0.123,0.348l-0.184,0.319l-0.24,0.281l-0.288,0.231l-0.325,0.175l-0.352,0.112l-0.366,0.046l-0.368,-0.023l-0.248,-0.038l-0.272,-0.042l-0.272,-0.04l-0.272,-0.04l-0.272,-0.038l-0.271,-0.038l-0.272,-0.037l-0.272,-0.036l-0.271,-0.035l-0.272,-0.034l-0.271,-0.034l-0.271,-0.033l-0.272,-0.031l-0.271,-0.031l-0.271,-0.03l-0.271,-0.029l-0.271,-0.029l-0.271,-0.027l-0.271,-0.027l-0.271,-0.026l-0.271,-0.025l-0.271,-0.024l-0.27,-0.024l-0.271,-0.022l-0.27,-0.022l-0.271,-0.021l-0.27,-0.02l-0.27,-0.019l-0.209,-0.014l-0.365,-0.059l-0.347,-0.125l-0.318,-0.186l-0.279,-0.242l-0.23,-0.289l-0.172,-0.327l-0.11,-0.352l-0.043,-0.367l0.025,-0.368l0.092,-0.357l0.157,-0.334l0.215,-0.3l0.267,-0.256l0.309,-0.201l0.34,-0.142l0.361,-0.077l0.369,-0.009l0.216,0.015Zm-10.059,-0.131l0.359,0.086l0.337,0.151l0.303,0.21l0.26,0.263l0.207,0.305l0.147,0.339l0.082,0.359l0.016,0.369l-0.053,0.365l-0.12,0.35l-0.181,0.321l-0.237,0.283l-0.285,0.234l-0.324,0.178l-0.35,0.115l-0.366,0.049l-0.195,0.008l-0.265,0.012l-0.265,0.012l-0.265,0.013l-0.265,0.014l-0.264,0.015l-0.265,0.015l-0.264,0.016l-0.264,0.017l-0.263,0.018l-0.264,0.018l-0.263,0.019l-0.264,0.02l-0.263,0.021l-0.262,0.021l-0.263,0.022l-0.262,0.023l-0.263,0.023l-0.262,0.024l-0.262,0.025l-0.261,0.026l-0.262,0.026l-0.261,0.027l-0.259,0.028l-0.523,0.058l-0.521,0.06l-0.52,0.064l-0.369,0.011l-0.365,-0.058l-0.347,-0.123l-0.32,-0.185l-0.28,-0.241l-0.23,-0.288l-0.175,-0.325l-0.111,-0.352l-0.045,-0.366l0.024,-0.369l0.09,-0.357l0.155,-0.335l0.214,-0.301l0.265,-0.257l0.309,-0.203l0.34,-0.143l0.36,-0.079l0.532,-0.065l0.542,-0.063l0.543,-0.06l0.273,-0.029l0.273,-0.028l0.272,-0.028l0.273,-0.026l0.273,-0.026l0.273,-0.026l0.274,-0.024l0.273,-0.024l0.274,-0.023l0.274,-0.022l0.275,-0.021l0.274,-0.021l0.275,-0.02l0.275,-0.019l0.275,-0.018l0.275,-0.018l0.276,-0.017l0.275,-0.016l0.276,-0.015l0.276,-0.014l0.277,-0.014l0.276,-0.013l0.277,-0.012l0.201,-0.008l0.368,0.019Z" style="fill:#cecece;"/></g></g></g></svg>